<?xml version="1.0" encoding="utf-8"?>
<svg width="100px" height="100px" viewBox="0 0 100 100" version="1.1" xmlns:xlink="http://www.w3.org/1999/xlink" xmlns="http://www.w3.org/2000/svg">
  <g id="Group-1456">
    <g id="Group-1446">
      <g id="Group">
        <path d="M31.4588 16.1292C22.4501 16.1292 15.1471 24.0725 15.1471 33.8711C15.1471 43.6697 22.4501 51.613 31.4588 51.613C40.4675 51.613 47.7705 43.6697 47.7705 33.8711C47.7705 24.0725 40.4675 16.1292 31.4588 16.1292L31.4588 16.1292Z" id="Shape" fill="#525252" fill-opacity="0.69803923" fill-rule="evenodd" stroke="none" />
        <path d="M68.5309 1.65991e-06C59.5222 2.21321e-06 52.2192 7.94334 52.2192 17.7419C52.2192 27.5405 59.5222 35.4839 68.5309 35.4839C77.5396 35.4839 84.8426 27.5405 84.8426 17.7419C84.8426 7.94333 77.5396 0 68.5309 0L68.5309 1.65991e-06Z" id="Shape" fill="#35E6B5" fill-rule="evenodd" stroke="none" />
        <path d="M99.3512 65.1433C94.5398 51.2537 82.154 41.936 68.5307 41.936C60.1241 41.936 52.2083 45.4983 46.2341 51.4858C57.2331 56.0576 66.3117 65.4798 70.611 77.8609C71.2724 79.7755 71.5711 81.7481 71.6885 83.7323C78.8682 83.4074 85.9732 82.0498 92.8329 79.5666C95.5426 78.5803 97.783 76.422 99.0098 73.6371C100.194 70.9219 100.322 67.9049 99.3618 65.1433L99.3512 65.1433Z" id="Shape" fill="#35E6B5" fill-rule="evenodd" stroke="none" />
        <path d="M62.2791 81.2712C57.4678 67.3817 45.0819 58.064 31.4586 58.064C17.8353 58.064 5.44953 67.3933 0.638162 81.2712C-0.321978 84.0445 -0.193959 87.0498 0.990213 89.7651C2.21706 92.5499 4.45738 94.7082 7.16711 95.6945C15.0296 98.549 23.2014 99.9995 31.4586 99.9995C39.7158 99.9995 47.8984 98.549 55.7502 95.6945C58.4599 94.7082 60.7002 92.5499 61.9271 89.7651C63.1112 87.0498 63.2393 84.0329 62.2791 81.2712L62.2791 81.2712Z" id="Shape" fill="#525252" fill-opacity="0.69803923" fill-rule="evenodd" stroke="none" />
      </g>
    </g>
  </g>
</svg>