<?xml version="1.0" encoding="utf-8"?>
<svg width="100px" height="100px" viewBox="0 0 100 100" version="1.1" xmlns:xlink="http://www.w3.org/1999/xlink" xmlns="http://www.w3.org/2000/svg">
  <g id="Group-1459">
    <g id="Group-1448">
      <path d="M28.3333 21.875C25.5755 21.875 23.3333 19.7729 23.3333 17.1875L23.3333 4.6875C23.3333 2.10207 25.5755 0 28.3333 0C31.091 0 33.3332 2.10207 33.3332 4.6875L33.3332 17.1875C33.3332 19.7729 31.091 21.875 28.3333 21.875L28.3333 21.875Z" id="Shape" fill="#525252" fill-opacity="0.69803923" fill-rule="evenodd" stroke="none" />
      <path d="M71.6666 21.875C68.9088 21.875 66.6666 19.7729 66.6666 17.1875L66.6666 4.6875C66.6666 2.10207 68.9088 0 71.6666 0C74.4244 0 76.6666 2.10207 76.6666 4.6875L76.6666 17.1875C76.6666 19.7729 74.4244 21.875 71.6666 21.875L71.6666 21.875Z" id="Shape" fill="#525252" fill-opacity="0.69803923" fill-rule="evenodd" stroke="none" />
      <path d="M81.6667 12.5L18.3333 12.5C8.22542 12.5 0 20.2113 0 29.6875L0 82.8125C0 92.2886 8.22542 100 18.3333 100L81.6667 100C91.7746 100 100 92.2886 100 82.8125L100 29.6875C100 20.2113 91.7746 12.5 81.6667 12.5L81.6667 12.5ZM81.6667 90.625L18.3333 90.625C13.741 90.625 10 87.1178 10 82.8125L10 43.75L90 43.75L90 82.8125C90 87.1178 86.259 90.625 81.6667 90.625L81.6667 90.625Z" id="Shape" fill="#525252" fill-opacity="0.69803923" fill-rule="evenodd" stroke="none" />
      <path d="M50 51.5625C46.331 51.5625 43.3334 54.3727 43.3334 57.8125C43.3334 61.2523 46.331 64.0625 50 64.0625C53.6691 64.0625 56.6667 61.2523 56.6667 57.8125C56.6667 54.3727 53.6691 51.5625 50 51.5625L50 51.5625Z" id="Shape" fill="#35E6B5" fill-rule="evenodd" stroke="none" />
      <path d="M73.3333 64.0625C77.0023 64.0625 80 61.2523 80 57.8125C80 54.3727 77.0023 51.5625 73.3333 51.5625C69.6642 51.5625 66.6666 54.3727 66.6666 57.8125C66.6666 61.2523 69.6642 64.0625 73.3333 64.0625L73.3333 64.0625Z" id="Shape" fill="#35E6B5" fill-rule="evenodd" stroke="none" />
      <path d="M50 70.3125C46.331 70.3125 43.3334 73.1228 43.3334 76.5625C43.3334 80.0023 46.331 82.8125 50 82.8125C53.6691 82.8125 56.6667 80.0023 56.6667 76.5625C56.6667 73.1228 53.6691 70.3125 50 70.3125L50 70.3125Z" id="Shape" fill="#35E6B5" fill-rule="evenodd" stroke="none" />
      <path d="M26.6667 70.3125C22.9976 70.3125 20 73.1228 20 76.5625C20 80.0023 22.9976 82.8125 26.6667 82.8125C30.3357 82.8125 33.3333 80.0023 33.3333 76.5625C33.3333 73.1228 30.3357 70.3125 26.6667 70.3125L26.6667 70.3125Z" id="Shape" fill="#35E6B5" fill-rule="evenodd" stroke="none" />
      <path d="M73.3333 70.3125C69.6642 70.3125 66.6666 73.1228 66.6666 76.5625C66.6666 80.0023 69.6642 82.8125 73.3333 82.8125C77.0023 82.8125 80 80.0023 80 76.5625C80 73.1228 77.0023 70.3125 73.3333 70.3125L73.3333 70.3125Z" id="Shape" fill="#35E6B5" fill-rule="evenodd" stroke="none" />
    </g>
  </g>
</svg>