<?xml version="1.0" encoding="utf-8"?>
<svg width="100.00098px" height="100px" viewBox="0 0 100.00098 100" version="1.1" xmlns:xlink="http://www.w3.org/1999/xlink" xmlns="http://www.w3.org/2000/svg">
  <g id="Group-1468">
    <path d="M50.2312 67.879C48.1372 66.2505 44.7456 66.2505 42.6516 67.879C40.5576 69.5075 40.5576 72.145 42.6516 73.7735L51.2718 80.4873C50.8479 80.4973 50.424 80.5573 50 80.5573C28.3402 80.5573 10.7143 66.8499 10.7143 50.0055C10.7143 41.0338 15.7631 32.5417 24.5632 26.7171C26.8114 25.2184 27.094 22.5909 25.167 20.8525C23.24 19.1141 19.8869 18.8943 17.6131 20.3729C6.42343 27.7761 0 38.5761 0 50.0055C0 70.8962 21.313 87.9404 47.8803 88.7996L42.6387 92.8858C40.5447 94.5143 40.5447 97.1519 42.6387 98.7804C43.6793 99.5896 45.054 99.9993 46.4157 99.9993C47.7775 99.9993 49.165 99.5896 50.2055 98.7804L66.277 86.282C68.371 84.6535 68.371 82.0159 66.277 80.3874L50.2055 67.889L50.2312 67.879Z" id="Shape" fill="#525252" fill-opacity="0.69803923" fill-rule="evenodd" stroke="none" />
    <path d="M52.1334 11.1921L57.3749 7.11592C59.469 5.48742 59.469 2.84986 57.3749 1.22137C55.2809 -0.407123 51.8893 -0.407123 49.7953 1.22137L33.7239 13.7198C31.6298 15.3483 31.6298 17.9859 33.7239 19.6144L49.7953 32.1128C50.8359 32.922 52.2105 33.3317 53.5851 33.3317C54.9597 33.3317 56.3343 32.922 57.3749 32.1128C59.469 30.4843 59.469 27.8467 57.3749 26.2182L48.7418 19.5045C49.1658 19.4945 49.5897 19.4345 50.0008 19.4345C71.6607 19.4345 89.2866 33.1418 89.2866 49.9862C89.2866 58.958 84.2377 67.4501 75.4505 73.2747C73.2023 74.7733 72.9196 77.4009 74.8467 79.1393C75.9001 80.1084 77.416 80.6079 78.9191 80.6079C80.1524 80.6079 81.3857 80.2782 82.3878 79.6188C93.5774 72.2157 100.001 61.4157 100.001 49.9863C100.001 29.0956 78.6879 12.0514 52.1206 11.1921L52.1334 11.1921Z" id="Shape" fill="#35E6B5" fill-rule="evenodd" stroke="none" />
  </g>
</svg>