<?xml version="1.0" encoding="utf-8"?>
<svg width="118px" height="118px" viewBox="0 0 118 118" version="1.1" xmlns:xlink="http://www.w3.org/1999/xlink" xmlns="http://www.w3.org/2000/svg">
  <defs>
    <filter filterUnits="userSpaceOnUse" color-interpolation-filters="sRGB" id="filter_1">
      <feFlood flood-opacity="0" result="BackgroundImageFix" />
      <feColorMatrix in="SourceAlpha" type="matrix" values="0 0 0 0 0 0 0 0 0 0 0 0 0 0 0 0 0 0 128 0" />
      <feOffset dx="0" dy="6" />
      <feGaussianBlur stdDeviation="3" />
      <feColorMatrix type="matrix" values="0 0 0 0 0 0 0 0 0 0 0 0 0 0 0 0 0 0 0.101960786 0" />
      <feBlend mode="normal" in2="BackgroundImageFix" result="effect0_dropShadow" />
      <feBlend mode="normal" in="SourceGraphic" in2="effect0_dropShadow" result="shape" />
    </filter>
    <path d="M66.7559 50C66.7559 50 100 50 100 50C100 77.6142 77.6143 100 50 100C22.3858 100 0 77.6142 0 50C0 22.3858 22.3858 0 50 0C77.6143 0 100 22.3858 100 50C100 50 66.7559 50 66.7559 50C66.7559 40.746 59.254 33.2441 50 33.2441C40.746 33.2441 33.2441 40.746 33.2441 50C33.2441 59.254 40.746 66.7559 50 66.7559C59.2541 66.7559 66.7559 59.254 66.7559 50Z" id="path_1" />
    <clipPath id="clip_1">
      <use xlink:href="#path_1" />
    </clipPath>
  </defs>
  <g id="Group-1458">
    <g id="Ellipse-11" filter="url(#filter_1)">
      <use stroke="none" fill="#FF8B38" xlink:href="#path_1" fill-rule="evenodd" />
      <g clip-path="url(#clip_1)">
        <use xlink:href="#path_1" fill="none" stroke="#FF8B38" stroke-width="8" />
      </g>
    </g>
  </g>
</svg>