<?xml version="1.0" encoding="utf-8"?>
<svg width="100px" height="100px" viewBox="0 0 100 100" version="1.1" xmlns:xlink="http://www.w3.org/1999/xlink" xmlns="http://www.w3.org/2000/svg">
  <path d="M21.3265 2.01807C20.9016 1.42432 20.3872 0.940918 19.8097 0.595703C19.2332 0.250977 18.6078 0.0512695 17.9678 0.00878906C17.3287 -0.0336914 16.6888 0.0810547 16.0864 0.347168C15.483 0.61377 14.9286 1.02539 14.455 1.55957C13.9811 2.09326 13.5974 2.73877 13.3269 3.45752C13.0553 4.17676 12.9017 4.95557 12.8755 5.74854C12.8484 6.54199 12.9492 7.33398 13.1711 8.07861C13.3928 8.82324 13.7318 9.50586 14.1675 10.0869L20.6176 18.9106C6.73059 30.3789 0.704468 46.8364 0.413452 47.6113C0.140991 48.3794 0 49.209 0 50.0483C0 50.8877 0.140991 51.7178 0.413452 52.4854C0.563599 52.8955 4.09436 62.6143 11.8987 72.2876C22.3307 85.2109 35.4834 92.0396 49.9946 92.0396C57.0474 92.0884 64.0369 90.3887 70.5524 87.0405L78.6506 98.0889C79.5188 99.2441 80.718 99.9287 81.9894 99.9946C83.261 100.061 84.5034 99.5029 85.4448 98.4409C86.3866 97.3789 86.9531 95.8994 87.0214 94.3237C87.0901 92.7471 86.6543 91.2012 85.8096 90.02L21.3265 2.01807L21.3265 2.01807ZM99.5935 52.4854C99.4468 52.8906 95.9634 62.4839 88.3032 72.063C87.8657 72.666 87.3315 73.1533 86.7367 73.4941C86.142 73.8345 85.4965 74.0215 84.8418 74.0439C84.1875 74.0659 83.5353 73.9238 82.9266 73.624C82.3169 73.3247 81.7626 72.8745 81.2979 72.3018C80.8328 71.729 80.4678 71.0449 80.2219 70.291C79.9769 69.5376 79.858 68.73 79.8723 67.9175C79.8857 67.105 80.0334 66.3047 80.3044 65.5649C80.5763 64.8252 80.9653 64.1611 81.4492 63.6138C84.6678 59.5571 87.4431 54.9956 89.7064 50.0459C87.3365 44.8906 84.4114 40.1611 81.0098 35.9878C72.3619 25.4146 61.9321 20.0503 50.0018 20.0503C48.6514 20.0503 47.3008 20.1201 45.9695 20.2603C45.3291 20.3452 44.6805 20.2705 44.0629 20.0405C43.4453 19.8105 42.871 19.4297 42.3745 18.9209C41.877 18.4116 41.4664 17.7842 41.1691 17.0762C40.8682 16.3677 40.6866 15.5918 40.6329 14.7954C40.5789 13.9985 40.6558 13.1963 40.8533 12.436C41.056 11.6758 41.3749 10.9731 41.7975 10.3687C42.2194 9.76416 42.7343 9.27002 43.3124 8.91602C43.891 8.56201 44.52 8.35498 45.1641 8.30664C46.7482 8.13672 48.3895 8.05176 50.0018 8.05176C64.5156 8.05176 77.6718 14.8857 88.0984 27.8091C95.8989 37.4824 99.4309 47.2061 99.5811 47.6113C99.8555 48.3779 99.9982 49.2075 100 50.0469C100.002 50.8862 99.8647 51.7163 99.5935 52.4854L99.5935 52.4854ZM49.9962 80.0444C38.069 80.0444 27.6367 74.6802 18.9944 64.1069C15.5947 59.9321 12.6696 55.2026 10.2997 50.0488C12.4241 45.3945 17.8745 35.1011 27.2297 27.9072L63.5446 77.4551C59.1658 79.189 54.5941 80.063 49.9962 80.0444L49.9962 80.0444Z" id="Vector-3" fill="#CAC2B7" fill-rule="evenodd" stroke="none" />
</svg>