<?xml version="1.0" encoding="utf-8"?>
<svg width="108.94116px" height="108.94092px" viewBox="0 0 108.94116 108.94092" version="1.1" xmlns:xlink="http://www.w3.org/1999/xlink" xmlns="http://www.w3.org/2000/svg">
  <defs>
    <filter filterUnits="userSpaceOnUse" color-interpolation-filters="sRGB" id="filter_1">
      <feFlood flood-opacity="0" result="BackgroundImageFix" />
      <feColorMatrix in="SourceAlpha" type="matrix" values="0 0 0 0 0 0 0 0 0 0 0 0 0 0 0 0 0 0 128 0" />
      <feOffset dx="0" dy="2.98" />
      <feGaussianBlur stdDeviation="1.49" />
      <feColorMatrix type="matrix" values="0 0 0 0 0 0 0 0 0 0 0 0 0 0 0 0 0 0 0.09019608 0" />
      <feBlend mode="normal" in2="BackgroundImageFix" result="effect0_dropShadow" />
      <feBlend mode="normal" in="SourceGraphic" in2="effect0_dropShadow" result="shape" />
    </filter>
  </defs>
  <g id="Group-1455">
    <g filter="url(#filter_1)">
      <g id="Group-1444">
        <path d="M0 50.0004C0 22.3859 22.386 3.8147e-06 50.0006 3.8147e-06C77.6151 3.8147e-06 100.001 22.3859 100.001 50.0004C100.001 77.6148 77.6151 100.001 50.0006 100.001C22.386 100.001 0 77.6148 0 50.0004Z" id="Ellipse-4" fill="#0A66C2" fill-rule="evenodd" stroke="none" />
        <g id="Group-1402" transform="translate(34.290543 20.00023)">
          <path d="M21.2583 63.0666L21.2583 34.2989L30.9147 34.2989L32.3604 23.0879L21.2583 23.0879L21.2583 15.9297C21.2583 12.6838 22.1599 10.4717 26.8147 10.4717L32.7514 10.4691L32.7514 0.441938C31.7243 0.305256 28.2004 0 24.1007 0C15.5409 0 9.68101 5.2247 9.68101 14.8198L9.68101 23.0879L0 23.0879L0 34.2989L9.68101 34.2989L9.68101 63.0666L21.2583 63.0666L21.2583 63.0666Z" id="Vector" fill="#FFFFFF" fill-rule="evenodd" stroke="none" />
        </g>
      </g>
    </g>
  </g>
</svg>