<?xml version="1.0" encoding="utf-8"?>
<svg width="100px" height="100px" viewBox="0 0 100 100" version="1.1" xmlns:xlink="http://www.w3.org/1999/xlink" xmlns="http://www.w3.org/2000/svg">
  <defs>
    <path d="M92 0C96.4189 0 100 3.58112 100 8L100 92C100 96.4189 96.4189 100 92 100L8 100C3.58112 100 0 96.4189 0 92L0 8C0 3.58112 3.58112 0 8 0L92 0Z" id="path_1" />
    <clipPath id="clip_1">
      <use xlink:href="#path_1" />
    </clipPath>
  </defs>
  <g id="Group-23">
    <g id="Rectangle-38">
      <use stroke="none" fill="#525252" fill-opacity="0.69803923" xlink:href="#path_1" />
      <g clip-path="url(#clip_1)">
        <use xlink:href="#path_1" fill="none" stroke="#CAC2B7" stroke-width="2" />
      </g>
    </g>
    <g id="Group" transform="translate(19.169922 18.754883)">
      <path d="M51.0825 56.295L47.955 56.295L47.955 11.4675C47.955 5.145 42.81 0 36.4875 0L17.7225 0C11.4 0 6.255 5.145 6.255 11.4675L6.255 56.295L3.1275 56.295C1.4025 56.295 0 57.6975 0 59.4225C0 61.1475 1.4025 62.55 3.1275 62.55L51.0825 62.55C52.8075 62.55 54.21 61.1475 54.21 59.4225C54.21 57.6975 52.8075 56.295 51.0825 56.295L51.0825 56.295ZM17.7223 6.25488L36.4873 6.25488C39.3598 6.25488 41.6998 8.59488 41.6998 11.4674L41.6998 27.1049L12.5098 27.1049L12.5098 11.4674C12.5098 8.59488 14.8498 6.25489 17.7223 6.25489L17.7223 6.25488Z" id="Shape" fill="#48F5F9" fill-rule="evenodd" stroke="none" />
      <path d="M68.7523 18.458L59.5498 9.2555C58.3273 8.033 56.3473 8.033 55.1248 9.2555C53.9023 10.478 53.9023 12.458 55.1248 13.6805L59.4148 17.978L59.4148 23.978C59.4148 27.2705 61.6273 30.0305 64.6273 30.9305L64.6273 42.743C64.6273 44.468 63.2248 45.8705 61.4998 45.8705C59.7748 45.8705 58.3723 44.468 58.3723 42.743L58.3723 38.573C58.3723 36.848 56.9698 35.4455 55.2448 35.4455C53.5198 35.4455 52.1173 36.848 52.1173 38.573L52.1173 42.743C52.1173 47.918 56.3248 52.1255 61.4998 52.1255C66.6748 52.1255 70.8823 47.918 70.8823 42.743L70.8823 23.618C70.8823 21.668 70.1248 19.838 68.7448 18.458L68.7523 18.458Z" id="Shape" fill="#48F5F9" fill-rule="evenodd" stroke="none" />
    </g>
  </g>
</svg>