<?xml version="1.0" encoding="utf-8"?>
<svg width="100px" height="100px" viewBox="0 0 100 100" version="1.1" xmlns:xlink="http://www.w3.org/1999/xlink" xmlns="http://www.w3.org/2000/svg">
  <defs>
    <path d="M100 0L100 0L100 100L0 100L0 0L100 0Z" id="path_1" />
    <clipPath id="clip_1">
      <use xlink:href="#path_1" clip-rule="evenodd" fill-rule="evenodd" />
    </clipPath>
  </defs>
  <g id="gas">
    <path d="M100 0L100 0L100 100L0 100L0 0L100 0Z" id="gas" fill="none" stroke="none" />
    <g id="Group" transform="translate(5.5598955 8.339844)" clip-path="url(#clip_1)">
      <path d="M68.11 75.06L63.94 75.06L63.94 15.29C63.94 6.86 57.08 0 48.65 0L23.63 0C15.2 0 8.34 6.86 8.34 15.29L8.34 75.06L4.17 75.06C1.87 75.06 0 76.93 0 79.23C0 81.53 1.87 83.4 4.17 83.4L68.11 83.4C70.41 83.4 72.28 81.53 72.28 79.23C72.28 76.93 70.41 75.06 68.11 75.06L68.11 75.06ZM23.6297 8.33984L48.6497 8.33984C52.4797 8.33984 55.5997 11.4598 55.5997 15.2898L55.5997 36.1398L16.6797 36.1398L16.6797 15.2898C16.6797 11.4598 19.7997 8.33985 23.6297 8.33985L23.6297 8.33984Z" id="Shape" fill="#525252" fill-opacity="0.69803923" fill-rule="evenodd" stroke="none" />
      <path d="M91.6705 24.6098L79.4006 12.3398C77.7706 10.7099 75.1306 10.7099 73.5005 12.3398C71.8705 13.9698 71.8706 16.6098 73.5005 18.2398L79.2206 23.9698L79.2206 31.9698C79.2206 36.3598 82.1705 40.0398 86.1705 41.2398L86.1705 56.9898C86.1705 59.2898 84.3005 61.1598 82.0005 61.1598C79.7006 61.1598 77.8306 59.2898 77.8306 56.9898L77.8306 51.4298C77.8306 49.1298 75.9605 47.2598 73.6606 47.2598C71.3606 47.2598 69.4906 49.1298 69.4906 51.4298L69.4906 56.9898C69.4906 63.8898 75.1006 69.4998 82.0006 69.4998C88.9006 69.4998 94.5106 63.8898 94.5106 56.9898L94.5106 31.4898C94.5106 28.8898 93.5006 26.4498 91.6606 24.6098L91.6705 24.6098Z" id="Shape" fill="#35E6B5" fill-rule="evenodd" stroke="none" />
    </g>
    <g id="Group" transform="translate(5.5598955 8.339844)" clip-path="url(#clip_1)">
      <path d="M68.11 75.06L63.94 75.06L63.94 15.29C63.94 6.86 57.08 0 48.65 0L23.63 0C15.2 0 8.34 6.86 8.34 15.29L8.34 75.06L4.17 75.06C1.87 75.06 0 76.93 0 79.23C0 81.53 1.87 83.4 4.17 83.4L68.11 83.4C70.41 83.4 72.28 81.53 72.28 79.23C72.28 76.93 70.41 75.06 68.11 75.06L68.11 75.06ZM23.6297 8.33984L48.6497 8.33984C52.4797 8.33984 55.5997 11.4598 55.5997 15.2898L55.5997 36.1398L16.6797 36.1398L16.6797 15.2898C16.6797 11.4598 19.7997 8.33985 23.6297 8.33985L23.6297 8.33984Z" id="Shape" fill="#525252" fill-opacity="0.69803923" fill-rule="evenodd" stroke="none" />
      <path d="M91.6705 24.6098L79.4006 12.3398C77.7706 10.7099 75.1306 10.7099 73.5005 12.3398C71.8705 13.9698 71.8706 16.6098 73.5005 18.2398L79.2206 23.9698L79.2206 31.9698C79.2206 36.3598 82.1705 40.0398 86.1705 41.2398L86.1705 56.9898C86.1705 59.2898 84.3005 61.1598 82.0005 61.1598C79.7006 61.1598 77.8306 59.2898 77.8306 56.9898L77.8306 51.4298C77.8306 49.1298 75.9605 47.2598 73.6606 47.2598C71.3606 47.2598 69.4906 49.1298 69.4906 51.4298L69.4906 56.9898C69.4906 63.8898 75.1006 69.4998 82.0006 69.4998C88.9006 69.4998 94.5106 63.8898 94.5106 56.9898L94.5106 31.4898C94.5106 28.8898 93.5006 26.4498 91.6606 24.6098L91.6705 24.6098Z" id="Shape" fill="#35E6B5" fill-rule="evenodd" stroke="none" />
    </g>
  </g>
</svg>