<?xml version="1.0" encoding="utf-8"?>
<svg width="100px" height="100px" viewBox="0 0 100 100" version="1.1" xmlns:xlink="http://www.w3.org/1999/xlink" xmlns="http://www.w3.org/2000/svg">
  <g id="Group-1453">
    <path d="M99.0274 40.2075L94.9995 40.2075L94.9995 40L49.9998 40L49.9998 60.0001L78.2573 60.0001C74.1345 71.6428 63.0571 80.0003 49.9998 80.0003C33.4324 80.0003 19.9999 66.5674 19.9999 50C19.9999 33.4325 33.4324 20 49.9998 20C57.6471 20 64.6048 22.885 69.9024 27.5975L84.0448 13.455C75.1149 5.1325 63.17 0 49.9998 0C22.3874 0 0 22.3875 0 50C0 77.6124 22.3874 99.9999 49.9998 99.9999C77.6121 99.9999 99.9995 77.6124 99.9995 50C99.9995 46.6475 99.6545 43.375 99.0274 40.2075L99.0274 40.2075Z" id="Vector-7" fill="#FFC107" fill-rule="evenodd" stroke="none" />
    <path d="M49.5058 98.8619C62.4207 98.8619 74.1557 93.9194 83.0279 85.8819L67.5533 72.787C62.3645 76.7329 56.0244 78.8671 49.5058 78.862C36.5008 78.862 25.4584 70.5695 21.2983 58.997L4.99342 71.5595C13.2684 87.7519 30.0733 98.8619 49.5058 98.8619L49.5058 98.8619Z" id="Vector-8" fill="#4CAF50" fill-rule="evenodd" stroke="none" />
    <path d="M98.9614 41.0515L94.9339 41.0515L94.9339 40.844L49.9342 40.844L49.9342 60.844L78.1915 60.844C76.2196 66.3851 72.6674 71.227 67.9741 74.7716L67.9816 74.7666L83.4565 87.8616C83.4211 87.8937 83.4052 87.9113 83.4076 87.9142C83.4786 88.0033 99.9339 75.0364 99.9339 50.844C99.9339 47.4916 99.5889 44.2191 98.9614 41.0515L98.9614 41.0515Z" id="Vector-9" fill="#1976D2" fill-rule="evenodd" stroke="none" />
    <path d="M4.99342 26.7276L21.4208 38.775C25.8658 27.77 36.6308 20 49.2282 20C56.8756 20 63.8333 22.885 69.1304 27.5975L83.2733 13.455C74.3429 5.13251 62.398 0 49.2282 0C30.0233 0 13.3684 10.8425 4.99342 26.7276L4.99342 26.7276Z" id="Vector-10" fill="#FF3D00" fill-rule="evenodd" stroke="none" />
  </g>
</svg>