<svg width="301" height="326" xmlns="http://www.w3.org/2000/svg" xmlns:xlink="http://www.w3.org/1999/xlink" xml:space="preserve" overflow="hidden"><g transform="translate(-358 -207)"><path d="M308.236 279.944 170.96 279.944C158.082 279.944 147.659 269.52 147.659 256.642L147.659 192.371C147.659 179.492 158.082 169.069 170.96 169.069L219.375 169.069" stroke="#F1883D" stroke-width="32.1959" stroke-miterlimit="10" fill="none" transform="matrix(1.00001 0 0 1 229.501 56.4098)"/><path d="M268.434 279.944 358.22 279.944C383.735 279.944 404.462 304.252 404.462 334.234L404.462 360.957C404.462 390.939 383.776 415.247 358.22 415.247L177.681 415.247C170.96 415.247 165.527 420.68 165.527 427.401L165.527 457.987" stroke="#F1883D" stroke-width="32.1959" stroke-linecap="round" stroke-miterlimit="10" fill="none" transform="matrix(1.00001 0 0 1 229.501 56.4098)"/><path d="M150.999 457.102C150.999 465.111 157.519 471.63 165.527 471.63 173.536 471.63 180.056 465.111 180.056 457.102 180.056 449.093 173.536 442.574 165.527 442.574 157.519 442.614 150.999 449.093 150.999 457.102Z" fill="#FFFFFF" transform="matrix(1.00001 0 0 1 229.501 56.4098)"/><path d="M149.067 457.102C149.067 448.047 156.432 440.642 165.527 440.642 174.623 440.642 181.988 448.007 181.988 457.102 181.988 466.197 174.623 473.562 165.527 473.562 156.432 473.562 149.067 466.197 149.067 457.102 149.067 448.007 149.067 466.197 149.067 457.102ZM178.124 457.102C178.124 450.14 172.49 444.505 165.527 444.505 158.565 444.505 152.931 450.14 152.931 457.102 152.931 464.064 158.565 469.699 165.527 469.699 172.49 469.699 178.124 464.064 178.124 457.102 178.124 450.14 178.124 464.064 178.124 457.102Z" fill="#F1883D" transform="matrix(1.00001 0 0 1 229.501 56.4098)"/><path d="M216.075 169.029 260.304 169.029C303.89 169.029 330.008 195.148 330.008 227.344L330.008 457.947" stroke="#F1883D" stroke-width="32.1959" stroke-miterlimit="10" fill="none" transform="matrix(1.00001 0 0 1 229.501 56.4098)"/><path d="M315.48 457.102C315.48 465.111 322 471.63 330.008 471.63 338.017 471.63 344.537 465.111 344.537 457.102 344.537 449.093 338.017 442.574 330.008 442.574 322 442.574 315.48 449.093 315.48 457.102Z" fill="#FFFFFF" transform="matrix(1.00001 0 0 1 229.501 56.4098)"/><path d="M313.548 457.102C313.548 448.047 320.913 440.642 330.008 440.642 339.104 440.642 346.469 448.007 346.469 457.102 346.469 466.197 339.104 473.562 330.008 473.562 320.913 473.562 313.548 466.197 313.548 457.102 313.548 448.007 313.548 466.197 313.548 457.102ZM342.565 457.102C342.565 450.14 336.931 444.505 329.968 444.505 323.006 444.505 317.372 450.14 317.372 457.102 317.372 464.064 323.006 469.699 329.968 469.699 336.931 469.699 342.565 464.064 342.565 457.102 342.565 450.14 342.565 464.064 342.565 457.102Z" fill="#F1883D" transform="matrix(1.00001 0 0 1 229.501 56.4098)"/></g></svg>