<?xml version="1.0" encoding="utf-8"?>
<svg width="100px" height="100px" viewBox="0 0 100 100" version="1.1" xmlns:xlink="http://www.w3.org/1999/xlink" xmlns="http://www.w3.org/2000/svg">
  <path d="M50 0C22.4258 0 0 22.4258 0 50C0 77.5742 22.4258 100 50 100C77.5742 100 100 77.5742 100 50C100 22.4258 77.5742 0 50 0L50 0ZM54.687 73.8652C54.687 76.4507 52.585 78.5527 49.9995 78.5527C47.4141 78.5527 45.312 76.4507 45.312 73.8652L45.312 45.313C45.312 42.7275 47.4141 40.6255 49.9995 40.6255C52.585 40.6255 54.687 42.7275 54.687 45.313L54.687 73.8652L54.687 73.8652ZM50 35.938C46.5488 35.938 43.75 33.1274 43.75 29.688C43.75 26.248 46.5488 23.438 50 23.438C53.4512 23.438 56.25 26.248 56.25 29.688C56.25 33.1274 53.4512 35.938 50 35.938L50 35.938Z" id="Group-1432" fill="#525252" fill-opacity="0.69803923" fill-rule="evenodd" stroke="none" />
</svg>