<?xml version="1.0" encoding="utf-8"?>
<svg width="100px" height="100px" viewBox="0 0 100 100" version="1.1" xmlns:xlink="http://www.w3.org/1999/xlink" xmlns="http://www.w3.org/2000/svg">
  <path d="M94.9812 12.0659L98.5298 8.56738C99.4713 7.62598 100 6.34961 100 5.01855C100 3.6875 99.4713 2.41113 98.5298 1.46973C97.5887 0.528809 96.3121 0 94.9812 0C93.6501 0 92.3737 0.528809 91.4329 1.46973L84.4355 8.51709L70.2908 22.6621L38.7527 54.1499C33.585 50.7402 27.3354 49.3706 21.2153 50.3057C15.0952 51.2412 9.54004 54.415 5.62646 59.2119C1.71265 64.0098 -0.280762 70.0889 0.0319824 76.272C0.344727 82.4561 2.94165 88.3027 7.31958 92.6802C11.6975 97.0586 17.5444 99.6553 23.7278 99.9683C29.9111 100.281 35.9905 98.2876 40.7878 94.3735C45.5852 90.46 48.759 84.9048 49.6941 78.7852C50.6294 72.6646 49.2598 66.415 45.8501 61.2471L73.7896 33.2578L84.3854 43.9038C84.8512 44.3667 85.4041 44.7329 86.012 44.9824C86.6191 45.2314 87.2703 45.3584 87.9268 45.356C88.5833 45.3535 89.2334 45.2222 89.839 44.9688C90.4452 44.7153 90.9952 44.3447 91.4578 43.8789C91.9204 43.4126 92.2869 42.8604 92.536 42.2524C92.785 41.645 92.9122 40.9941 92.9103 40.3374C92.9075 39.6807 92.7758 39.0308 92.5223 38.4253C92.2689 37.8193 91.8986 37.269 91.4329 36.8066L80.8369 26.2104L87.934 19.1631L91.4329 22.6621C91.8954 23.1279 92.4453 23.498 93.051 23.752C93.6572 24.0049 94.3069 24.1367 94.9639 24.1392C95.6204 24.1416 96.2714 24.0142 96.8787 23.7651C97.4866 23.5161 98.0388 23.1494 98.5051 22.687C98.9711 22.2241 99.3416 21.6743 99.5948 21.0684C99.8481 20.4624 99.9799 19.8125 99.9821 19.1558C99.9847 18.499 99.8575 17.8481 99.6084 17.2407C99.3595 16.6333 98.9929 16.0806 98.5298 15.6147L94.9812 12.0659L94.9812 12.0659ZM25.0093 89.9893C22.0437 89.9893 19.1448 89.1094 16.679 87.4619C14.2131 85.814 12.2913 83.4727 11.1565 80.7324C10.0215 77.9927 9.72461 74.978 10.3032 72.0693C10.8818 69.1606 12.3098 66.4893 14.4067 64.3916C16.5037 62.2949 19.1755 60.8667 22.084 60.2886C24.9927 59.71 28.0076 60.0068 30.7473 61.1416C33.4873 62.2764 35.8291 64.1987 37.4766 66.6641C39.1243 69.1299 40.0037 72.0288 40.0037 74.9946C40.0037 78.9717 38.4238 82.7852 35.6118 85.5972C32.8 88.4092 28.9861 89.9893 25.0093 89.9893L25.0093 89.9893Z" id="Vector-2" fill="#CAC2B7" fill-rule="evenodd" stroke="none" />
</svg>