<?xml version="1.0" encoding="utf-8"?>
<svg width="100.000244px" height="100.00098px" viewBox="0 0 100.000244 100.00098" version="1.1" xmlns:xlink="http://www.w3.org/1999/xlink" xmlns="http://www.w3.org/2000/svg">
  <g id="Group">
    <path d="M47.0158 61.0552C47.4595 61.1751 47.8912 61.223 48.3348 61.223C50.5291 61.223 52.5436 59.7602 53.1551 57.542C53.8865 54.8801 52.3037 52.1343 49.6418 51.4029C45.7808 50.3477 42.2315 48.693 39.042 46.5707C44.0541 40.7554 47.9031 33.1415 49.414 23.3333L58.3351 23.3333C61.0929 23.3333 63.3352 21.0911 63.3352 18.3333C63.3352 15.5755 61.0929 13.3333 58.3351 13.3333L36.6679 13.3333L36.6679 5C36.6679 2.24221 34.4256 0 31.6677 0C28.9099 0 26.6676 2.24221 26.6676 5L26.6676 13.3333L5.00038 13.3333C2.24251 13.3333 0.000249288 15.5755 0.000249288 18.3333C0.000249288 21.0911 2.24251 23.3333 5.00038 23.3333L13.8855 23.3333C15.1085 32.0504 18.6938 40 24.1735 46.4628C15.0966 52.4341 5.39607 53.2974 4.66464 53.3453C1.90677 53.5372 -0.179612 55.9113 0.0122391 58.6691C0.192099 61.3069 2.3864 63.3333 4.98839 63.3453C5.0963 63.3453 5.21621 63.3453 5.33612 63.3333C12.3986 62.8657 22.6987 60.048 31.6437 53.4412C36.1762 56.8225 41.2963 59.4964 47.0158 61.0552L47.0158 61.0552ZM39.3058 23.3336C37.9749 30.348 35.145 35.7197 31.6438 39.8444C27.7348 35.1681 25.0249 29.5326 23.9217 23.3336L39.3058 23.3336L39.3058 23.3336Z" id="Shape" fill="#525252" fill-opacity="0.69803923" fill-rule="evenodd" stroke="none" />
    <path d="M99.6793 93.2502L79.6788 39.9169C78.9473 37.9624 77.0768 36.6675 75.0024 36.6675L71.669 36.6675C69.5946 36.6675 67.724 37.9624 66.9926 39.9169L46.9921 93.2502C46.0208 95.8401 47.3278 98.7178 49.9178 99.6771C52.4958 100.648 55.3856 99.3413 56.3448 96.7514L61.3809 83.3341L85.2904 83.3341L90.3265 96.7514C91.0819 98.7538 92.9764 100.001 95.0029 100.001C95.5784 100.001 96.178 99.9049 96.7535 99.6771C99.3435 98.7059 100.65 95.8282 99.6793 93.2502L99.6793 93.2502ZM65.1339 73.3337L73.3355 51.4632L81.5372 73.3337L65.1339 73.3337L65.1339 73.3337Z" id="Shape" fill="#35E6B5" fill-rule="evenodd" stroke="none" />
  </g>
</svg>