<?xml version="1.0" encoding="utf-8"?>
<svg width="100px" height="100.00049px" viewBox="0 0 100 100.00049" version="1.1" xmlns:xlink="http://www.w3.org/1999/xlink" xmlns="http://www.w3.org/2000/svg">
  <g id="Group-1466">
    <path d="M75.0081 25C75.0081 11.2073 63.7995 0 50.0053 0C36.211 0 25.0024 11.2073 25.0024 25C25.0024 37.1853 33.7714 47.3246 45.3172 49.5279L45.3172 76.5625C45.3172 79.1479 47.4195 81.25 50.0053 81.25C52.591 81.25 54.6933 79.1479 54.6933 76.5625L54.6933 49.5279C66.2391 47.3246 75.0081 37.1853 75.0081 25L75.0081 25Z" id="Shape" fill="#525252" fill-opacity="0.69803923" fill-rule="evenodd" stroke="none" />
    <path d="M50.0056 100.001C31.4334 100.001 0 96.3809 0 82.813C0 72.7411 16.6723 68.537 30.6689 66.7834C33.2209 66.4574 35.5818 68.2784 35.9078 70.8526C36.2338 73.4268 34.4126 75.7649 31.8381 76.0797C17.6841 77.8558 11.0736 81.1494 9.56718 82.8243C11.8494 85.4097 25.2052 90.6368 49.9944 90.6368C74.7836 90.6368 88.1394 85.4097 90.4328 82.8243C88.9376 81.1606 82.3271 77.867 68.1619 76.0797C65.5874 75.7537 63.7662 73.4156 64.0922 70.8526C64.4182 68.2784 66.7791 66.4574 69.3311 66.7834C83.3277 68.5369 100 72.7523 100 82.813C100 96.3809 68.5666 100.001 49.9944 100.001L50.0056 100.001Z" id="Shape" fill="#35E6B5" fill-rule="evenodd" stroke="none" />
  </g>
</svg>