<?xml version="1.0" encoding="utf-8"?>
<!-- Generator: Adobe Illustrator 28.0.0, SVG Export Plug-In . SVG Version: 6.00 Build 0)  -->
<svg version="1.1" id="Capa_1" xmlns="http://www.w3.org/2000/svg" xmlns:xlink="http://www.w3.org/1999/xlink" x="0px" y="0px"
	 viewBox="0 0 250 100" style="enable-background:new 0 0 250 100;" xml:space="preserve">
<style type="text/css">
	.st0{fill:none;stroke:#F1883D;stroke-width:6;stroke-miterlimit:10;}
	.st1{fill:none;stroke:#F1883D;stroke-width:6;stroke-linecap:round;stroke-miterlimit:10;}
	.st2{fill:#FFFFFF;}
	.st3{fill:#F1883D;}
	.st4{fill:#1D1D1B;}
	.st5{font-family:'Campton-Medium';}
	.st6{font-size:60px;}
	.st7{letter-spacing:2.07;}
	.st8{font-family:'Campton-Light';}
	.st9{font-size:20px;}
</style>
<text transform="matrix(0.9658 0 0 1 -424.1615 64.5156)" class="st4 st5 st6 st7">rofi </text>
<text transform="matrix(0.9658 0 0 1 -423.5031 83.4688)" class="st4 st8 st9">road finder</text>
<path class="st0" d="M-473.13,46.23H-499c-2.43,0-4.39-1.97-4.39-4.39V29.72c0-2.43,1.97-4.39,4.39-4.39h9.12"/>
<!-- <g>
	<g>
		<path class="st1" d="M-480.64,46.23h16.92c4.81,0,8.71,4.58,8.71,10.23v5.04c0,5.65-3.9,10.23-8.71,10.23h-34.02
			c-1.26,0-2.29,1.02-2.29,2.29v5.8"/>
		<g>
			<g>
				<path class="st2" d="M-502.73,79.66c0,1.49,1.21,2.71,2.71,2.71s2.71-1.21,2.71-2.71c0-1.49-1.21-2.71-2.71-2.71
					S-502.73,78.17-502.73,79.66z"/>
				<path class="st3" d="M-503.09,79.66c0-1.69,1.38-3.07,3.07-3.07c1.69,0,3.07,1.38,3.07,3.07c0,1.69-1.38,3.07-3.07,3.07
					C-501.72,82.73-503.09,81.35-503.09,79.66C-503.09,77.97-503.09,81.35-503.09,79.66z M-497.68,79.66c0-1.29-1.05-2.35-2.35-2.35
					c-1.29,0-2.35,1.05-2.35,2.35c0,1.29,1.05,2.35,2.35,2.35C-498.73,82.01-497.68,80.96-497.68,79.66
					C-497.68,78.37-497.68,80.96-497.68,79.66z"/>
			</g>
		</g>
	</g>
</g> -->
<!-- <g>
	<g>
		<path class="st0" d="M-490.5,25.33h8.34c8.21,0,13.13,4.92,13.13,10.99v43.5"/>
		<g>
			<g>
				<path class="st2" d="M-471.74,79.66c0,1.49,1.21,2.71,2.71,2.71s2.71-1.21,2.71-2.71c0-1.49-1.21-2.71-2.71-2.71
					S-471.74,78.17-471.74,79.66z"/>
				<path class="st3" d="M-472.1,79.66c0-1.69,1.38-3.07,3.07-3.07s3.07,1.38,3.07,3.07c0,1.69-1.38,3.07-3.07,3.07
					S-472.1,81.35-472.1,79.66C-472.1,77.97-472.1,81.35-472.1,79.66z M-466.68,79.66c0-1.29-1.05-2.35-2.35-2.35
					c-1.29,0-2.35,1.05-2.35,2.35c0,1.29,1.05,2.35,2.35,2.35C-467.74,82.01-466.68,80.96-466.68,79.66
					C-466.68,78.37-466.68,80.96-466.68,79.66z"/>
			</g>
		</g>
	</g>
</g> -->
<!-- <text transform="matrix(0.9658 0 0 1 -158.8638 63.2434)" class="st4 st5 st6 st7">rof </text>
<text transform="matrix(0.9658 0 0 1 -158.2053 82.1965)" class="st4 st8 st9">road finder</text> -->
<path class="st0" d="M-207.83,44.96h-25.87c-2.43,0-4.39-1.97-4.39-4.39V28.45c0-2.43,1.97-4.39,4.39-4.39h9.12"/>
<g>
	<g>
		<path class="st1" d="M-215.34,44.96h16.92c4.81,0,8.71,4.58,8.71,10.23v5.04c0,5.65-3.9,10.23-8.71,10.23h-34.02
			c-1.26,0-2.29,1.02-2.29,2.29v5.8"/>
		<g>
			<g>
				<path class="st2" d="M-237.44,78.39c0,1.49,1.21,2.71,2.71,2.71s2.71-1.21,2.71-2.71c0-1.49-1.21-2.71-2.71-2.71
					S-237.44,76.89-237.44,78.39z"/>
				<path class="st3" d="M-237.8,78.39c0-1.69,1.38-3.07,3.07-3.07c1.69,0,3.07,1.38,3.07,3.07c0,1.69-1.38,3.07-3.07,3.07
					C-236.42,81.46-237.8,80.08-237.8,78.39C-237.8,76.7-237.8,80.08-237.8,78.39z M-232.38,78.39c0-1.29-1.05-2.35-2.35-2.35
					c-1.29,0-2.35,1.05-2.35,2.35c0,1.29,1.05,2.35,2.35,2.35C-233.43,80.74-232.38,79.68-232.38,78.39
					C-232.38,77.09-232.38,79.68-232.38,78.39z"/>
			</g>
		</g>
	</g>
</g>
<g>
	<g>
		<path class="st0" d="M-225.2,24.06h8.34c8.21,0,13.13,4.92,13.13,10.99v43.5"/>
		<g>
			<g>
				<path class="st2" d="M-206.44,78.39c0,1.49,1.21,2.71,2.71,2.71s2.71-1.21,2.71-2.71c0-1.49-1.21-2.71-2.71-2.71
					S-206.44,76.89-206.44,78.39z"/>
				<path class="st3" d="M-206.8,78.39c0-1.69,1.38-3.07,3.07-3.07s3.07,1.38,3.07,3.07c0,1.69-1.38,3.07-3.07,3.07
					S-206.8,80.08-206.8,78.39C-206.8,76.7-206.8,80.08-206.8,78.39z M-201.39,78.39c0-1.29-1.05-2.35-2.35-2.35
					s-2.35,1.05-2.35,2.35c0,1.29,1.05,2.35,2.35,2.35S-201.39,79.68-201.39,78.39C-201.39,77.09-201.39,79.68-201.39,78.39z"/>
			</g>
		</g>
	</g>
</g>
<text transform="matrix(0.9658 0 0 1 -73.8638 63.2434)" class="st4 st5 st6 st7">i</text>
<text transform="matrix(0.9658 0 0 1 87.3053 63.2224)" class="st4 st5 st6 st7">rof </text>
<text transform="matrix(0.9658 0 0 1 84.9637 82.1755)" class="st4 st8 st9">road finder</text>
<g>
	<g>
		<path class="st0" d="M91.7,62.98l-0.3-12.84C91.4,41.92,86.48,37,80.41,37l-43.5,0"/>
		<g>
			<g>
				<path class="st2" d="M37.07,34.29c-1.49,0-2.71,1.21-2.71,2.71s1.21,2.71,2.71,2.71c1.49,0,2.71-1.21,2.71-2.71
					S38.56,34.29,37.07,34.29z"/>
				<path class="st3" d="M37.07,33.93c1.69,0,3.07,1.38,3.07,3.07c0,1.69-1.38,3.07-3.07,3.07C35.38,40.07,34,38.69,34,37
					S35.38,33.93,37.07,33.93C38.76,33.93,35.38,33.93,37.07,33.93z M37.07,39.35c1.29,0,2.35-1.05,2.35-2.35s-1.05-2.35-2.35-2.35
					c-1.29,0-2.35,1.05-2.35,2.35S35.77,39.35,37.07,39.35C38.36,39.35,35.77,39.35,37.07,39.35z"/>
			</g>
		</g>
	</g>
</g>
<text transform="matrix(0.9658 0 0 1 171.3053 63.2224)" class="st4 st5 st6 st7">i</text>
<circle class="st3" cx="179" cy="25" r="4"/>
</svg>
