<?xml version="1.0" encoding="utf-8"?>
<!-- Generator: Adobe Illustrator 28.0.0, SVG Export Plug-In . SVG Version: 6.00 Build 0)  -->
<svg width="500px" height="500px" version="1.1" id="Capa_1" xmlns="http://www.w3.org/2000/svg" xmlns:xlink="http://www.w3.org/1999/xlink" x="0px" y="0px"
	 viewBox="0 0 641 250" style="enable-background:new 0 0 641 250;" xml:space="preserve">
<style type="text/css">
	.st0{fill:#EDE6D6;}
	.st1{fill:none;stroke:#68BEA4;stroke-width:6;stroke-miterlimit:10;}
	.st2{fill:none;stroke:#68BEA4;stroke-width:4;stroke-miterlimit:10;}
	.st3{fill:#FBC243;}
	.st4{fill:#FFFFFF;stroke:#1D1D1B;stroke-width:2;stroke-miterlimit:10;}
	.st5{fill:none;stroke:#1D1D1B;stroke-width:2;stroke-miterlimit:10;}
	.st6{fill:none;stroke:#F1883D;stroke-width:6;stroke-miterlimit:10;}
	.st7{fill:none;stroke:#F1883D;stroke-width:4;stroke-miterlimit:10;}
	.st8{fill:#77C9DB;}
	.st9{fill:none;stroke:#EDE6D6;stroke-width:6;stroke-miterlimit:10;}
	.st10{fill:none;stroke:#EDE6D6;stroke-width:4;stroke-miterlimit:10;}
	.st11{fill:#FFFFFF;}
	.st12{fill:none;stroke:#FCC343;stroke-width:6;stroke-miterlimit:10;}
	.st13{fill:none;stroke:#FCC343;stroke-width:4;stroke-miterlimit:10;}
</style>
<!-- <path class="st0" d="M168.74,171.82H55.43c-3.03,0-5.49-2.46-5.49-5.49V63.44c0-3.03,2.46-5.49,5.49-5.49h113.31
	c3.03,0,5.49,2.46,5.49,5.49v102.89C174.22,169.36,171.77,171.82,168.74,171.82z"/> -->
<g>
	<path class="st1" d="M118.37,107.46H90.26c-2.64,0-4.77-2.14-4.77-4.77V89.53c0-2.64,2.14-4.77,4.77-4.77h9.91"/>
	<path class="st1" d="M110.21,107.46h18.39c5.23,0,9.47,4.98,9.47,11.12v5.47c0,6.14-4.24,11.12-9.47,11.12H91.63
		c-1.37,0-2.49,1.11-2.49,2.49v2.12"/>
	<path class="st1" d="M101.82,84.75h9.06c6.59,0,11.94,5.35,11.94,11.94v44.72"/>
	<circle class="st2" cx="89.14" cy="143.8" r="2.9"/>
	<circle class="st2" cx="122.82" cy="144.83" r="2.9"/>
</g>
<!-- <path class="st3" d="M313.57,170.05H200.26c-3.03,0-5.49-2.46-5.49-5.49V61.67c0-3.03,2.46-5.49,5.49-5.49h113.31
	c3.03,0,5.49,2.46,5.49,5.49v102.89C319.06,167.59,316.6,170.05,313.57,170.05z"/>
<path class="st4" d="M250.27,107.08"/>
<line class="st4" x1="246.99" y1="115.71" x2="246.99" y2="115.71"/>
<path class="st5" d="M245.33,132.01"/>
<path class="st5" d="M256.29,132.01"/>
<line class="st4" x1="259.45" y1="100.17" x2="259.45" y2="100.17"/>
<path class="st4" d="M268.54,102.91"/>
<path class="st4" d="M268.54,124.83"/> -->
<!-- <g>
	<path class="st6" d="M263.2,105.7h-28.11c-2.64,0-4.77-2.14-4.77-4.77V87.76c0-2.64,2.14-4.77,4.77-4.77H245"/>
	<path class="st6" d="M255.05,105.7h18.39c5.23,0,9.47,4.98,9.47,11.12v5.47c0,6.14-4.24,11.12-9.47,11.12h-36.97
		c-1.37,0-2.49,1.11-2.49,2.49V138"/>
	<path class="st6" d="M246.66,82.99h9.06c6.59,0,11.94,5.35,11.94,11.94v44.72"/>
	<circle class="st7" cx="233.98" cy="142.04" r="2.9"/>
	<circle class="st7" cx="267.65" cy="143.06" r="2.9"/>
</g>
<path class="st8" d="M462.15,170.43H348.85c-3.03,0-5.49-2.46-5.49-5.49V62.05c0-3.03,2.46-5.49,5.49-5.49h113.31
	c3.03,0,5.49,2.46,5.49,5.49v102.89C467.64,167.98,465.18,170.43,462.15,170.43z"/>
<path class="st4" d="M398.85,107.46"/>
<line class="st4" x1="395.57" y1="116.09" x2="395.57" y2="116.09"/>
<path class="st5" d="M393.91,132.39"/>
<path class="st5" d="M404.87,132.39"/>
<line class="st4" x1="408.03" y1="100.56" x2="408.03" y2="100.56"/>
<path class="st4" d="M417.12,103.3"/>
<path class="st4" d="M417.12,125.22"/>
<g>
	<path class="st9" d="M411.78,106.08h-28.11c-2.64,0-4.77-2.14-4.77-4.77V88.14c0-2.64,2.14-4.77,4.77-4.77h9.91"/>
	<path class="st9" d="M403.63,106.08h18.39c5.23,0,9.47,4.98,9.47,11.12v5.47c0,6.14-4.24,11.12-9.47,11.12h-36.97
		c-1.37,0-2.49,1.11-2.49,2.49v2.12"/>
	<path class="st9" d="M395.24,83.37h9.06c6.59,0,11.94,5.35,11.94,11.94v44.72"/>
	<circle class="st10" cx="382.56" cy="142.42" r="2.9"/>
	<circle class="st10" cx="416.24" cy="143.44" r="2.9"/>
</g>
<path class="st11" d="M597.15,164.43H483.85c-3.03,0-5.49-2.46-5.49-5.49V56.05c0-3.03,2.46-5.49,5.49-5.49h113.31
	c3.03,0,5.49,2.46,5.49,5.49v102.89C602.64,161.98,600.18,164.43,597.15,164.43z"/>
<path class="st4" d="M533.85,101.46"/>
<line class="st4" x1="530.57" y1="110.09" x2="530.57" y2="110.09"/>
<path class="st5" d="M528.91,126.39"/>
<path class="st5" d="M539.87,126.39"/>
<line class="st4" x1="543.03" y1="94.56" x2="543.03" y2="94.56"/>
<path class="st4" d="M552.12,97.3"/>
<path class="st4" d="M552.12,119.22"/>
<g>
	<path class="st12" d="M546.78,100.08h-28.11c-2.64,0-4.77-2.14-4.77-4.77V82.14c0-2.64,2.14-4.77,4.77-4.77h9.91"/>
	<path class="st12" d="M538.63,100.08h18.39c5.23,0,9.47,4.98,9.47,11.12v5.47c0,6.14-4.24,11.12-9.47,11.12h-36.97
		c-1.37,0-2.49,1.11-2.49,2.49v2.12"/>
	<path class="st12" d="M530.24,77.37h9.06c6.59,0,11.94,5.35,11.94,11.94v44.72"/>
	<circle class="st13" cx="517.56" cy="136.42" r="2.9"/>
	<circle class="st13" cx="551.24" cy="137.44" r="2.9"/>
</g> -->
</svg>
