<?xml version="1.0" encoding="utf-8"?>
<svg width="100px" height="100px" viewBox="0 0 100 100" version="1.1" xmlns:xlink="http://www.w3.org/1999/xlink" xmlns="http://www.w3.org/2000/svg">
  <g id="Group-79">
    <path d="M58.8635 19.492L19.6212 19.492C8.80322 19.492 0 27.1329 0 36.5225L0 95.355C0 97.1038 1.12928 98.7077 2.93868 99.4985C4.73526 100.289 6.90398 100.133 8.5209 99.0975L39.2423 79.4495L69.9638 99.0975C70.9006 99.699 72.017 99.9997 73.1335 99.9997C73.9548 99.9997 74.776 99.8438 75.546 99.4985C77.3554 98.7077 78.4847 97.1038 78.4847 95.355L78.4847 36.5225C78.4847 27.1329 69.6815 19.492 58.8635 19.492L58.8635 19.492Z" id="Shape-7" fill="#525252" fill-opacity="0.69803923" fill-rule="evenodd" stroke="none" />
    <path d="M80.3782 1.59335e-06L41.1359 1.59335e-06C37.8122 1.59335e-06 34.5271 0.73513 31.6269 2.12742C29.0475 3.37491 28.1107 6.1929 29.548 8.44284C30.9853 10.6928 34.2448 11.4947 36.8241 10.2584C38.1716 9.61236 39.6088 9.28935 41.1359 9.28935L80.3782 9.28935C85.2932 9.28935 89.297 12.7645 89.297 17.0305L89.297 75.863C89.297 78.4248 91.6967 80.5077 94.6482 80.5077C97.5997 80.5077 99.9994 78.4248 99.9994 75.863L99.9994 17.0305C99.9994 7.64088 91.1962 0 80.3782 0L80.3782 1.59335e-06Z" id="Shape-8" fill="#35E6B5" fill-rule="evenodd" stroke="none" />
  </g>
</svg>