<?xml version="1.0" encoding="utf-8"?>
<svg width="100px" height="100.00049px" viewBox="0 0 100 100.00049" version="1.1" xmlns:xlink="http://www.w3.org/1999/xlink" xmlns="http://www.w3.org/2000/svg">
  <g id="Group-1433">
    <path d="M95 71.875C90.4077 71.875 86.6667 68.3678 86.6667 64.0625L86.6667 34.375C86.6667 15.4227 70.2158 0 50 0C29.7842 0 13.3333 15.4227 13.3333 34.375L13.3333 64.0625C13.3333 68.3678 9.59232 71.875 5 71.875C2.24221 71.875 0 73.9771 0 76.5625C0 79.1479 2.24221 81.25 5 81.25L95 81.25C97.7578 81.25 100 79.1479 100 76.5625C100 73.9771 97.7578 71.875 95 71.875L95 71.875Z" id="Shape" fill="#525252" fill-opacity="0.69803923" fill-rule="evenodd" stroke="none" />
    <path d="M57.997 87.5005L42.0018 87.5005C40.9946 87.5005 40.0473 87.9277 39.4238 88.6583C38.7883 89.389 38.5485 90.3557 38.7404 91.2663C39.8914 96.4034 44.5317 100.001 50.0113 100.001C55.491 100.001 60.1193 96.4034 61.2703 91.2663C61.4742 90.3445 61.2344 89.389 60.5869 88.6583C59.9514 87.9277 59.0042 87.5005 58.0089 87.5005L57.997 87.5005Z" id="Shape" fill="#35E6B5" fill-rule="evenodd" stroke="none" />
  </g>
</svg>