<?xml version="1.0" encoding="utf-8"?>
<svg width="100px" height="100px" viewBox="0 0 100 100" version="1.1" xmlns:xlink="http://www.w3.org/1999/xlink" xmlns="http://www.w3.org/2000/svg">
  <g id="Group-1460">
    <g id="Group">
      <path d="M67.6471 9.35586e-06L32.3531 9.35586e-06C29.9198 9.35586e-06 27.9414 3.05756 27.9414 6.81819L27.9414 7.50491C29.3908 7.1452 30.8402 6.81819 32.3531 6.81819C47.7784 6.81819 60.2942 26.1609 60.2942 50C60.2942 73.8391 47.7784 93.1818 32.3531 93.1818C30.8402 93.1818 29.3908 92.8548 27.9414 92.4951L27.9414 93.1818C27.9414 96.9424 29.9198 100 32.3531 100L67.6471 100C85.4845 100 99.9999 77.567 99.9999 50C99.9999 22.433 85.4845 0 67.6471 0L67.6471 9.35586e-06Z" id="Shape" fill="#35E6B5" fill-rule="evenodd" stroke="none" />
      <path d="M32.3528 100C14.5154 100 0 77.567 0 50C0 22.433 14.5154 0 32.3528 0C50.1903 0 64.7057 22.433 64.7057 50C64.7057 77.567 50.1903 100 32.3528 100L32.3528 100ZM32.3526 13.636C19.3713 13.636 8.82329 29.9375 8.82329 49.9997C8.82329 70.0618 19.3713 86.3633 32.3526 86.3633C45.334 86.3633 55.8819 70.0618 55.8819 49.9997C55.8819 29.9375 45.3339 13.636 32.3526 13.636L32.3526 13.636Z" id="Shape" fill="#525252" fill-opacity="0.69803923" fill-rule="evenodd" stroke="none" />
    </g>
  </g>
</svg>