<?xml version="1.0" encoding="utf-8"?>
<svg width="100px" height="100px" viewBox="0 0 100 100" version="1.1" xmlns:xlink="http://www.w3.org/1999/xlink" xmlns="http://www.w3.org/2000/svg">
  <g id="Group-1435">
    <path d="M59.6826 66.6666C57.0136 66.6666 54.8435 68.9088 54.8435 71.6666L54.8435 88.3333C54.8435 89.2566 54.124 90 53.2305 90L19.02 90L30.1488 82.8777C33.491 80.7314 35.487 77.0264 35.487 72.9616L35.487 27.0504C35.487 22.9856 33.491 19.2806 30.1488 17.1343L19.02 10.012L53.2305 10.012C54.124 10.012 54.8435 10.7554 54.8435 11.6787L54.8435 28.3453C54.8435 31.1031 57.0136 33.3453 59.6826 33.3453C62.3517 33.3453 64.5218 31.1031 64.5218 28.3453L64.5218 11.6667C64.5218 5.22782 59.4621 0 53.2304 0L11.2913 0C5.05962 0 0 5.22782 0 11.6667L0 88.3333C0 94.7722 5.05962 100 11.2913 100L53.2304 100C59.4621 100 64.5218 94.7722 64.5218 88.3333L64.5218 71.6666C64.5218 68.9089 62.3517 66.6667 59.6826 66.6667L59.6826 66.6666Z" id="Shape" fill="#525252" fill-opacity="0.69803923" fill-rule="evenodd" stroke="none" />
    <path d="M98.593 46.463L80.8495 28.1296C78.9579 26.1752 75.8943 26.1752 74.0028 28.1296C72.1112 30.0841 72.1112 33.2495 74.0028 35.204L83.4837 45.0121L56.4566 45.0121C53.7875 45.0121 51.6174 47.2543 51.6174 50.0121C51.6174 52.7699 53.7875 55.0121 56.4566 55.0121L83.4837 55.0121L74.0028 64.8083C72.1112 66.7627 72.1112 69.9282 74.0028 71.8826C74.9427 72.8539 76.1844 73.3455 77.4145 73.3455C78.6446 73.3455 79.8979 72.8539 80.8379 71.8826L98.5814 53.5493C100.473 51.5949 100.473 48.4294 98.5814 46.475L98.593 46.463Z" id="Shape" fill="#35E6B5" fill-rule="evenodd" stroke="none" />
  </g>
</svg>