<?xml version="1.0" encoding="utf-8"?>
<svg width="100px" height="100px" viewBox="0 0 100 100" version="1.1" xmlns:xlink="http://www.w3.org/1999/xlink" xmlns="http://www.w3.org/2000/svg">
  <g id="Group-1457">
    <g id="Group-1447">
      <path d="M93.4113 62.7877L74.5299 54.41C69.9343 52.3678 64.5264 53.6789 61.3698 57.5893L52.55 68.5662C44.1131 63.0546 36.918 55.8488 31.4056 47.4015L42.4072 38.6408C46.3413 35.4963 47.6527 30.0775 45.6102 25.4825L37.2313 6.59204C35.0148 1.61415 29.5836 -1.00823 24.2917 0.360976L8.32322 4.50342C2.86885 5.91904 -0.670682 11.2102 0.106855 16.8031C6.12986 59.7012 40.2951 93.8618 83.2105 99.8956C83.7211 99.9652 84.2317 100 84.7423 100C89.7325 100 94.212 96.635 95.5002 91.6804L99.6432 75.7024C101.001 70.4344 98.3898 65.004 93.4113 62.7877L93.4113 62.7877Z" id="Group" fill="#525252" fill-opacity="0.69803923" fill-rule="evenodd" stroke="none" />
    </g>
  </g>
</svg>