<?xml version="1.0" encoding="utf-8"?>
<svg width="100px" height="100px" viewBox="0 0 100 100" version="1.1" xmlns:xlink="http://www.w3.org/1999/xlink" xmlns="http://www.w3.org/2000/svg">
  <defs>
    <path d="M92 0C96.4189 0 100 3.58112 100 8L100 92C100 96.4189 96.4189 100 92 100L8 100C3.58112 100 0 96.4189 0 92L0 8C0 3.58112 3.58112 0 8 0L92 0Z" id="path_1" />
    <path d="M75 0L75 0L75 75L0 75L0 0L75 0Z" id="path_2" />
    <clipPath id="clip_1">
      <use xlink:href="#path_1" />
    </clipPath>
    <clipPath id="clip_2">
      <use xlink:href="#path_2" clip-rule="evenodd" fill-rule="evenodd" />
    </clipPath>
  </defs>
  <g id="Group-1449">
    <g id="Group-5">
      <g id="Rectangle-6">
        <use stroke="none" fill="#525252" xlink:href="#path_1" />
        <g clip-path="url(#clip_1)">
          <use xlink:href="#path_1" fill="none" stroke="#CAC2B7" stroke-width="2" />
        </g>
      </g>
      <g id="pin-tack">
        <path d="M75 0L75 0L75 75L0 75L0 0L75 0Z" id="pin-tack" fill="none" stroke="none" transform="translate(12.5 12.5)" />
        <g id="Group" clip-path="url(#clip_2)" transform="translate(12.5 12.5), translate(12.507935 4.169922)">
          <path d="M25.022 66.7204C23.297 66.7204 21.8945 65.3179 21.8945 63.5929L21.8945 46.9129C21.8945 45.1879 23.297 43.7854 25.022 43.7854C26.747 43.7854 28.1495 45.1879 28.1495 46.9129L28.1495 63.5929C28.1495 65.3179 26.747 66.7204 25.022 66.7204L25.022 66.7204Z" id="Shape" fill="#CAC2B7" fill-rule="evenodd" stroke="none" />
          <path d="M45.5796 33.345C44.4696 31.44 43.1721 29.64 41.7021 27.975L41.7021 11.4675C41.7021 5.145 36.5571 0 30.2346 0L19.8096 0C13.4871 0 8.34207 5.145 8.34207 11.4675L8.34207 27.975C6.87207 29.64 5.57457 31.4475 4.46457 33.345C2.11707 37.3725 0.624569 41.7975 0.024569 46.515C-0.0879307 47.4075 0.189569 48.3075 0.782069 48.975C1.38207 49.65 2.22957 50.0325 3.12957 50.0325L46.9146 50.0325C47.8146 50.0325 48.6696 49.6425 49.2621 48.975C49.8546 48.3 50.1321 47.4075 50.0196 46.515C49.4196 41.7975 47.9271 37.3725 45.5796 33.345L45.5796 33.345Z" id="Shape" fill="#CAC2B7" fill-rule="evenodd" stroke="none" />
        </g>
        <g id="Group" clip-path="url(#clip_2)" transform="translate(12.5 12.5), translate(12.507935 4.169922)">
          <path d="M25.022 66.7204C23.297 66.7204 21.8945 65.3179 21.8945 63.5929L21.8945 46.9129C21.8945 45.1879 23.297 43.7854 25.022 43.7854C26.747 43.7854 28.1495 45.1879 28.1495 46.9129L28.1495 63.5929C28.1495 65.3179 26.747 66.7204 25.022 66.7204L25.022 66.7204Z" id="Shape" fill="#CAC2B7" fill-rule="evenodd" stroke="none" />
          <path d="M45.5796 33.345C44.4696 31.44 43.1721 29.64 41.7021 27.975L41.7021 11.4675C41.7021 5.145 36.5571 0 30.2346 0L19.8096 0C13.4871 0 8.34207 5.145 8.34207 11.4675L8.34207 27.975C6.87207 29.64 5.57457 31.4475 4.46457 33.345C2.11707 37.3725 0.624569 41.7975 0.024569 46.515C-0.0879307 47.4075 0.189569 48.3075 0.782069 48.975C1.38207 49.65 2.22957 50.0325 3.12957 50.0325L46.9146 50.0325C47.8146 50.0325 48.6696 49.6425 49.2621 48.975C49.8546 48.3 50.1321 47.4075 50.0196 46.515C49.4196 41.7975 47.9271 37.3725 45.5796 33.345L45.5796 33.345Z" id="Shape" fill="#CAC2B7" fill-rule="evenodd" stroke="none" />
        </g>
      </g>
    </g>
  </g>
</svg>