<?xml version="1.0" encoding="utf-8"?>
<svg width="100px" height="100px" viewBox="0 0 100 100" version="1.1" xmlns:xlink="http://www.w3.org/1999/xlink" xmlns="http://www.w3.org/2000/svg">
  <g id="Group-1432">
    <g id="Group">
      <path d="M49.9999 99.9997C46.553 99.9997 43.7504 97.8976 43.7504 95.3122L43.7504 70.3122C43.7504 67.7267 46.553 65.6247 49.9999 65.6247C53.4469 65.6247 56.2494 67.7268 56.2494 70.3122L56.2494 95.3122C56.2494 97.8976 53.4469 99.9997 49.9999 99.9997L49.9999 99.9997Z" id="Shape" fill="#35E6B5" fill-rule="evenodd" stroke="none" />
      <path d="M91.0787 49.9775C88.8607 47.1223 86.268 44.4245 83.3306 41.929L83.3306 17.1875C83.3306 7.71133 73.0497 0 60.4158 0L39.5842 0C26.9503 0 16.6694 7.71133 16.6694 17.1875L16.6694 41.929C13.732 44.4245 11.1393 47.1335 8.92126 49.9775C4.2304 56.0139 1.24804 62.6461 0.0490947 69.7167C-0.175706 71.0544 0.378803 72.4033 1.56276 73.4038C2.7617 74.4155 4.45521 74.9888 6.25362 74.9888L93.7464 74.9888C95.5448 74.9888 97.2533 74.4042 98.4372 73.4038C99.6212 72.3921 100.176 71.0544 99.9509 69.7167C98.752 62.6461 95.7696 56.0139 91.0787 49.9775L91.0787 49.9775Z" id="Shape" fill="#525252" fill-opacity="0.69803923" fill-rule="evenodd" stroke="none" />
    </g>
  </g>
</svg>