<?xml version="1.0" encoding="utf-8"?>
<svg width="100px" height="100px" viewBox="0 0 100 100" version="1.1" xmlns:xlink="http://www.w3.org/1999/xlink" xmlns="http://www.w3.org/2000/svg">
  <path d="M80.3569 0L19.6431 0C8.81299 0 0 8.81299 0 19.6431L0 80.3569C0 91.187 8.81299 100 19.6431 100L80.3569 100C91.187 100 100 91.187 100 80.3569L100 19.6431C100 8.81299 91.187 0 80.3569 0L80.3569 0ZM73.2139 55.3569L55.3569 55.3569L55.3569 73.2139C55.3569 76.1689 52.9546 78.5713 49.9995 78.5713C47.0449 78.5713 44.6426 76.1689 44.6426 73.2139L44.6426 55.3569L26.7852 55.3569C23.8306 55.3569 21.4282 52.9546 21.4282 49.9995C21.4282 47.0449 23.8306 44.6426 26.7852 44.6426L44.6426 44.6426L44.6426 26.7852C44.6426 23.8306 47.0449 21.4282 49.9995 21.4282C52.9546 21.4282 55.3569 23.8306 55.3569 26.7852L55.3569 44.6426L73.2139 44.6426C76.1689 44.6426 78.5713 47.0449 78.5713 49.9995C78.5713 52.9546 76.1689 55.3569 73.2139 55.3569L73.2139 55.3569Z" id="Group-1467" fill="#525252" fill-opacity="0.69803923" fill-rule="evenodd" stroke="none" />
</svg>