<?xml version="1.0" encoding="utf-8"?>
<svg width="100.00049px" height="100px" viewBox="0 0 100.00049 100" version="1.1" xmlns:xlink="http://www.w3.org/1999/xlink" xmlns="http://www.w3.org/2000/svg">
  <g id="Group-79">
    <path d="M98.7551 43.1032C98.3982 40.5287 96.0894 38.7862 93.5129 39.101C90.9698 39.4607 89.1853 41.8216 89.5422 44.3848C89.7987 46.2398 89.9214 48.1172 89.9214 49.9947C89.9214 72.4004 71.8412 90.624 49.6118 90.624C27.3824 90.624 9.30222 72.4004 9.30222 49.9947C9.30222 27.5889 27.3824 9.36532 49.6118 9.36532C51.4633 9.36532 53.3483 9.50023 55.1775 9.74756C57.676 10.0736 60.0629 8.30855 60.4198 5.74533C60.7767 3.18211 58.9921 0.810001 56.4379 0.461493C54.1848 0.146711 51.8872 -0.0106801 49.6007 0.000562338C22.2517 -0.0106801 0 22.4288 0 49.9947C0 77.5606 22.2517 100 49.6118 100C76.9719 100 99.2236 77.5718 99.2236 49.9947C99.2236 47.69 99.0675 45.3741 98.7551 43.1032L98.7551 43.1032Z" id="Shape-2" fill="#525252" fill-opacity="0.69803923" fill-rule="evenodd" stroke="none" />
    <path d="M96.526 3.38953C92.0422 -1.12984 84.2234 -1.12984 79.7396 3.38953L38.2031 45.2555C34.1989 49.2915 32.7601 58.1166 32.2694 63.0182C32.1355 64.4235 32.6263 65.8175 33.6078 66.8068C34.4889 67.695 35.6712 68.1784 36.8982 68.1784C37.0543 68.1784 37.2105 68.1671 37.3666 68.1559C42.2296 67.6612 50.9742 66.2222 54.9895 62.175L96.5372 20.2978C101.155 15.6323 101.155 8.04381 96.5372 3.37829L96.526 3.38953Z" id="Shape-3" fill="#35E6B5" fill-rule="evenodd" stroke="none" />
  </g>
</svg>