<?xml version="1.0" encoding="utf-8"?>
<svg width="100px" height="100px" viewBox="0 0 100 100" version="1.1" xmlns:xlink="http://www.w3.org/1999/xlink" xmlns="http://www.w3.org/2000/svg">
  <defs>
    <path d="M100 0L100 0L100 100L0 100L0 0L100 0Z" id="path_1" />
    <path d="M0 0L3.9999 0L3.9999 4.79155L0 4.79155L0 0Z" id="path_2" />
    <clipPath id="clip_1">
      <use xlink:href="#path_1" clip-rule="evenodd" fill-rule="evenodd" />
    </clipPath>
    <clipPath id="clip_2">
      <use xlink:href="#path_2" clip-rule="evenodd" fill-rule="evenodd" />
    </clipPath>
  </defs>
  <g id="road">
    <path d="M100 0L100 0L100 100L0 100L0 0L100 0Z" id="road" fill="none" stroke="none" />
    <path d="M7.51034 59.3591C6.53638 59.3591 5.56242 59.7862 4.96867 60.5727C3.99992 61.8383 4.54159 63.432 4.5468 63.4477C4.97388 64.6768 6.11972 65.5362 7.40096 65.5831C8.81763 65.6404 10.0937 64.755 10.5155 63.4268C10.953 62.0623 10.3541 60.531 9.10409 59.7862C8.61451 59.4945 8.06242 59.3591 7.51034 59.3591L7.51034 59.3591ZM7.52601 66.6043C7.47393 66.6043 7.41664 66.6043 7.35935 66.6043C5.66664 66.5366 4.15102 65.4012 3.58331 63.7866C3.55727 63.698 2.86456 61.6512 4.15622 59.9532C5.41664 58.297 7.81768 57.8387 9.62497 58.9116C11.2812 59.8959 12.0625 61.922 11.4896 63.7345C10.9427 65.4428 9.3281 66.6043 7.52601 66.6043" id="Shape" fill="#525252" fill-opacity="0.69803923" fill-rule="evenodd" stroke="none" clip-path="url(#clip_1)" />
    <path d="M7.51034 59.3591C6.53638 59.3591 5.56242 59.7862 4.96867 60.5727C3.99992 61.8383 4.54159 63.432 4.5468 63.4477C4.97388 64.6768 6.11972 65.5362 7.40096 65.5831C8.81763 65.6404 10.0937 64.755 10.5155 63.4268C10.953 62.0623 10.3541 60.531 9.10409 59.7862C8.61451 59.4945 8.06242 59.3591 7.51034 59.3591L7.51034 59.3591ZM7.52601 66.6043C7.47393 66.6043 7.41664 66.6043 7.35935 66.6043C5.66664 66.5366 4.15102 65.4012 3.58331 63.7866C3.55727 63.698 2.86456 61.6512 4.15622 59.9532C5.41664 58.297 7.81768 57.8387 9.62497 58.9116C11.2812 59.8959 12.0625 61.922 11.4896 63.7345C10.9427 65.4428 9.3281 66.6043 7.52601 66.6043" id="Shape" fill="#525252" fill-opacity="0.69803923" fill-rule="evenodd" stroke="none" clip-path="url(#clip_1)" />
    <path d="M7.38552 57.1252C5.76052 57.1252 4.16677 57.7138 3.05739 58.8336C1.42718 60.469 1.08864 62.995 2.04177 66.3388C2.1251 66.6357 2.35427 67.4377 4.60948 71.0471C5.55739 72.5627 6.54698 74.0627 7.55739 75.5211C8.89073 73.7659 10.0886 71.9117 11.1251 70.0055C13.172 66.2502 14.0574 64.5002 13.6668 62.3752C13.573 61.8805 12.9949 59.3284 10.5991 57.9638C9.60948 57.4013 8.48969 57.1252 7.38552 57.1252L7.38552 57.1252ZM7.51056 77.2394L7.11473 76.6769C5.96369 75.0259 4.82827 73.3124 3.75015 71.5832C1.41682 67.854 1.17723 67.0155 1.06265 66.6144C0.000148326 62.8957 0.427231 60.0363 2.33348 58.1144C4.51577 55.9165 8.2814 55.4686 11.1043 57.078C13.8908 58.6665 14.5574 61.6144 14.6668 62.1926C15.1408 64.7603 14.0314 66.7967 12.021 70.4894C10.8491 72.6457 9.47411 74.7342 7.93244 76.6978L7.51056 77.2394" id="Shape" fill="#525252" fill-opacity="0.69803923" fill-rule="evenodd" stroke="none" clip-path="url(#clip_1)" />
    <path d="M7.38552 57.1252C5.76052 57.1252 4.16677 57.7138 3.05739 58.8336C1.42718 60.469 1.08864 62.995 2.04177 66.3388C2.1251 66.6357 2.35427 67.4377 4.60948 71.0471C5.55739 72.5627 6.54698 74.0627 7.55739 75.5211C8.89073 73.7659 10.0886 71.9117 11.1251 70.0055C13.172 66.2502 14.0574 64.5002 13.6668 62.3752C13.573 61.8805 12.9949 59.3284 10.5991 57.9638C9.60948 57.4013 8.48969 57.1252 7.38552 57.1252L7.38552 57.1252ZM7.51056 77.2394L7.11473 76.6769C5.96369 75.0259 4.82827 73.3124 3.75015 71.5832C1.41682 67.854 1.17723 67.0155 1.06265 66.6144C0.000148326 62.8957 0.427231 60.0363 2.33348 58.1144C4.51577 55.9165 8.2814 55.4686 11.1043 57.078C13.8908 58.6665 14.5574 61.6144 14.6668 62.1926C15.1408 64.7603 14.0314 66.7967 12.021 70.4894C10.8491 72.6457 9.47411 74.7342 7.93244 76.6978L7.51056 77.2394" id="Shape" fill="#525252" fill-opacity="0.69803923" fill-rule="evenodd" stroke="none" clip-path="url(#clip_1)" />
    <path d="M92.3646 26.062C91.3906 26.062 90.4219 26.4891 89.8229 27.2756C88.8594 28.5412 89.3959 30.1401 89.4063 30.1558C89.8334 31.3797 90.9792 32.2391 92.2604 32.2912C93.6719 32.3433 94.9531 31.4578 95.375 30.1297C95.8073 28.7651 95.2136 27.2339 93.9584 26.4891C93.474 26.2026 92.9167 26.062 92.3646 26.062L92.3646 26.062ZM92.3854 33.3122C92.3281 33.3122 92.276 33.3122 92.2187 33.3069C90.526 33.2392 89.0052 32.109 88.4427 30.4892C88.4114 30.4007 87.7239 28.3538 89.0156 26.6611C90.276 25.0049 92.677 24.5465 94.4791 25.6142C96.1354 26.5986 96.9218 28.6299 96.3437 30.4372C95.802 32.1507 94.1874 33.3122 92.3854 33.3122" id="Shape" fill="#525252" fill-opacity="0.69803923" fill-rule="evenodd" stroke="none" clip-path="url(#clip_1)" />
    <path d="M92.3646 26.062C91.3906 26.062 90.4219 26.4891 89.8229 27.2756C88.8594 28.5412 89.3959 30.1401 89.4063 30.1558C89.8334 31.3797 90.9792 32.2391 92.2604 32.2912C93.6719 32.3433 94.9531 31.4578 95.375 30.1297C95.8073 28.7651 95.2136 27.2339 93.9584 26.4891C93.474 26.2026 92.9167 26.062 92.3646 26.062L92.3646 26.062ZM92.3854 33.3122C92.3281 33.3122 92.276 33.3122 92.2187 33.3069C90.526 33.2392 89.0052 32.109 88.4427 30.4892C88.4114 30.4007 87.7239 28.3538 89.0156 26.6611C90.276 25.0049 92.677 24.5465 94.4791 25.6142C96.1354 26.5986 96.9218 28.6299 96.3437 30.4372C95.802 32.1507 94.1874 33.3122 92.3854 33.3122" id="Shape" fill="#525252" fill-opacity="0.69803923" fill-rule="evenodd" stroke="none" clip-path="url(#clip_1)" />
    <path d="M92.2395 23.833C90.6197 23.833 89.0208 24.4163 87.9114 25.5361C86.2864 27.1768 85.9426 29.6976 86.8958 33.0413C86.9843 33.3434 87.2083 34.1403 89.4687 37.7497C90.4166 39.2653 91.4062 40.7705 92.4114 42.2288C93.7447 40.4684 94.9479 38.6143 95.9843 36.708C98.026 32.9528 98.9114 31.208 98.5208 29.0778C98.427 28.583 97.8489 26.0309 95.4531 24.6663C94.4687 24.1038 93.3489 23.833 92.2395 23.833L92.2395 23.833ZM92.37 43.9425L91.9741 43.38C90.8179 41.729 89.6877 40.0206 88.6043 38.2915C86.271 34.5571 86.0314 33.7238 85.9168 33.3175C84.8596 29.5988 85.2866 26.7394 87.1877 24.8175C89.37 22.6196 93.1408 22.1769 95.9585 23.7811C98.745 25.3748 99.4168 28.3227 99.521 28.8956C99.995 31.4634 98.8908 33.4998 96.8804 37.1977C95.7033 39.354 94.3283 41.4425 92.7918 43.4009L92.37 43.9425" id="Shape" fill="#525252" fill-opacity="0.69803923" fill-rule="evenodd" stroke="none" clip-path="url(#clip_1)" />
    <path d="M92.2395 23.833C90.6197 23.833 89.0208 24.4163 87.9114 25.5361C86.2864 27.1768 85.9426 29.6976 86.8958 33.0413C86.9843 33.3434 87.2083 34.1403 89.4687 37.7497C90.4166 39.2653 91.4062 40.7705 92.4114 42.2288C93.7447 40.4684 94.9479 38.6143 95.9843 36.708C98.026 32.9528 98.9114 31.208 98.5208 29.0778C98.427 28.583 97.8489 26.0309 95.4531 24.6663C94.4687 24.1038 93.3489 23.833 92.2395 23.833L92.2395 23.833ZM92.37 43.9425L91.9741 43.38C90.8179 41.729 89.6877 40.0206 88.6043 38.2915C86.271 34.5571 86.0314 33.7238 85.9168 33.3175C84.8596 29.5988 85.2866 26.7394 87.1877 24.8175C89.37 22.6196 93.1408 22.1769 95.9585 23.7811C98.745 25.3748 99.4168 28.3227 99.521 28.8956C99.995 31.4634 98.8908 33.4998 96.8804 37.1977C95.7033 39.354 94.3283 41.4425 92.7918 43.4009L92.37 43.9425" id="Shape" fill="#525252" fill-opacity="0.69803923" fill-rule="evenodd" stroke="none" clip-path="url(#clip_1)" />
    <g id="Mask-Group" clip-path="url(#clip_1)">
      <path d="M0 0L3.9999 0L3.9999 4.79155L0 4.79155L0 0Z" id="Shape" fill="none" fill-rule="evenodd" stroke="none" />
    </g>
    <g id="Mask-Group" clip-path="url(#clip_1)">
      <path d="M0 0L3.9999 0L3.9999 4.79155L0 4.79155L0 0Z" id="Shape" fill="none" fill-rule="evenodd" stroke="none" />
    </g>
    <path d="M12.8283 74.114C13.672 73.4109 14.5262 72.713 15.3855 72.0307C15.5001 71.9421 15.5626 71.739 15.5626 71.5984C15.5626 71.4526 15.5001 71.2703 15.3855 71.1661C15.271 71.0619 15.1147 70.9838 14.9533 70.989C14.7814 70.9994 14.6564 71.0619 14.521 71.1661C13.6616 71.8484 12.8074 72.5463 11.9637 73.2494C11.7189 73.4578 11.7345 73.9057 11.9637 74.114C12.2241 74.3536 12.5678 74.3328 12.8283 74.114" id="Shape" fill="#525252" fill-opacity="0.69803923" stroke="none" clip-path="url(#clip_1)" />
    <path d="M12.8283 74.114C13.672 73.4109 14.5262 72.713 15.3855 72.0307C15.5001 71.9421 15.5626 71.739 15.5626 71.5984C15.5626 71.4526 15.5001 71.2703 15.3855 71.1661C15.271 71.0619 15.1147 70.9838 14.9533 70.989C14.7814 70.9994 14.6564 71.0619 14.521 71.1661C13.6616 71.8484 12.8074 72.5463 11.9637 73.2494C11.7189 73.4578 11.7345 73.9057 11.9637 74.114C12.2241 74.3536 12.5678 74.3328 12.8283 74.114" id="Shape" fill="#525252" fill-opacity="0.69803923" stroke="none" clip-path="url(#clip_1)" />
    <path d="M17.5417 70.37C17.7292 70.219 17.9167 70.0419 18.1198 69.9065C18.0834 69.9325 18.0469 69.9638 18.1042 69.9169C18.1302 69.9013 18.1563 69.8804 18.1771 69.8648C18.2292 69.8232 18.2761 69.7867 18.3282 69.7502C18.4323 69.6721 18.5365 69.594 18.6459 69.5159C19.0521 69.2242 19.4688 68.9429 19.8959 68.6773C20.1615 68.5054 20.2969 68.1252 20.1146 67.8388C19.9375 67.5679 19.5677 67.4377 19.2761 67.62C18.3698 68.1929 17.5052 68.8232 16.6771 69.5107C16.4323 69.7138 16.4479 70.1617 16.6771 70.37C16.9375 70.6148 17.2761 70.5888 17.5417 70.37" id="Shape" fill="#525252" fill-opacity="0.69803923" stroke="none" clip-path="url(#clip_1)" />
    <path d="M17.5417 70.37C17.7292 70.219 17.9167 70.0419 18.1198 69.9065C18.0834 69.9325 18.0469 69.9638 18.1042 69.9169C18.1302 69.9013 18.1563 69.8804 18.1771 69.8648C18.2292 69.8232 18.2761 69.7867 18.3282 69.7502C18.4323 69.6721 18.5365 69.594 18.6459 69.5159C19.0521 69.2242 19.4688 68.9429 19.8959 68.6773C20.1615 68.5054 20.2969 68.1252 20.1146 67.8388C19.9375 67.5679 19.5677 67.4377 19.2761 67.62C18.3698 68.1929 17.5052 68.8232 16.6771 69.5107C16.4323 69.7138 16.4479 70.1617 16.6771 70.37C16.9375 70.6148 17.2761 70.5888 17.5417 70.37" id="Shape" fill="#525252" fill-opacity="0.69803923" stroke="none" clip-path="url(#clip_1)" />
    <path d="M22.4687 67.3907C22.7083 67.2501 22.9479 67.1146 23.1979 66.9896C23.3229 66.9271 23.4479 66.8646 23.5729 66.8073C23.6406 66.7761 23.7135 66.7448 23.7812 66.7136C23.8125 66.698 23.8385 66.6876 23.8698 66.6771C23.9739 66.6303 23.802 66.7032 23.8698 66.6719C24.3958 66.4636 24.927 66.2813 25.4687 66.1407C25.7812 66.0574 26 65.698 25.8958 65.3855C25.7968 65.0678 25.4791 64.8751 25.1458 64.9584C23.9895 65.2605 22.875 65.7292 21.8489 66.3334C21.5781 66.5001 21.4531 66.8907 21.6302 67.1719C21.8125 67.448 22.1718 67.5626 22.4687 67.3907" id="Shape" fill="#525252" fill-opacity="0.69803923" stroke="none" clip-path="url(#clip_1)" />
    <path d="M22.4687 67.3907C22.7083 67.2501 22.9479 67.1146 23.1979 66.9896C23.3229 66.9271 23.4479 66.8646 23.5729 66.8073C23.6406 66.7761 23.7135 66.7448 23.7812 66.7136C23.8125 66.698 23.8385 66.6876 23.8698 66.6771C23.9739 66.6303 23.802 66.7032 23.8698 66.6719C24.3958 66.4636 24.927 66.2813 25.4687 66.1407C25.7812 66.0574 26 65.698 25.8958 65.3855C25.7968 65.0678 25.4791 64.8751 25.1458 64.9584C23.9895 65.2605 22.875 65.7292 21.8489 66.3334C21.5781 66.5001 21.4531 66.8907 21.6302 67.1719C21.8125 67.448 22.1718 67.5626 22.4687 67.3907" id="Shape" fill="#525252" fill-opacity="0.69803923" stroke="none" clip-path="url(#clip_1)" />
    <path d="M28.2709 65.1565C28.3334 65.1253 28.4011 65.0992 28.4636 65.0732C28.5313 65.0419 28.3594 65.1148 28.4688 65.068C28.4948 65.0575 28.5261 65.0471 28.5521 65.0367C28.6928 64.9794 28.8334 64.9273 28.9688 64.8805C29.2448 64.7867 29.5209 64.7086 29.8021 64.6409C29.9376 64.6096 30.0782 64.5784 30.2136 64.5575C30.2501 64.5471 30.6303 64.495 30.6303 64.4898C30.5521 64.495 30.5365 64.5003 30.5834 64.495C30.599 64.4898 30.6146 64.4898 30.6303 64.4898C30.6667 64.4846 30.7084 64.4794 30.7449 64.4742C30.8126 64.469 30.8855 64.4586 30.9532 64.4534C31.1042 64.443 31.2501 64.4325 31.3959 64.4273C31.7188 64.4169 32.0261 64.1565 32.0105 63.818C31.9949 63.495 31.7396 63.193 31.3959 63.2086C30.099 63.2555 28.8386 63.5628 27.6563 64.0992C27.3646 64.2346 27.2709 64.6773 27.4323 64.9378C27.6303 65.2398 27.9584 65.2971 28.2709 65.1565" id="Shape" fill="#525252" fill-opacity="0.69803923" stroke="none" clip-path="url(#clip_1)" />
    <path d="M28.2709 65.1565C28.3334 65.1253 28.4011 65.0992 28.4636 65.0732C28.5313 65.0419 28.3594 65.1148 28.4688 65.068C28.4948 65.0575 28.5261 65.0471 28.5521 65.0367C28.6928 64.9794 28.8334 64.9273 28.9688 64.8805C29.2448 64.7867 29.5209 64.7086 29.8021 64.6409C29.9376 64.6096 30.0782 64.5784 30.2136 64.5575C30.2501 64.5471 30.6303 64.495 30.6303 64.4898C30.5521 64.495 30.5365 64.5003 30.5834 64.495C30.599 64.4898 30.6146 64.4898 30.6303 64.4898C30.6667 64.4846 30.7084 64.4794 30.7449 64.4742C30.8126 64.469 30.8855 64.4586 30.9532 64.4534C31.1042 64.443 31.2501 64.4325 31.3959 64.4273C31.7188 64.4169 32.0261 64.1565 32.0105 63.818C31.9949 63.495 31.7396 63.193 31.3959 63.2086C30.099 63.2555 28.8386 63.5628 27.6563 64.0992C27.3646 64.2346 27.2709 64.6773 27.4323 64.9378C27.6303 65.2398 27.9584 65.2971 28.2709 65.1565" id="Shape" fill="#525252" fill-opacity="0.69803923" stroke="none" clip-path="url(#clip_1)" />
    <path d="M33.9895 64.2764C34.9114 64.2035 35.828 64.0941 36.7447 63.9483C37.0624 63.8962 37.2655 63.4847 37.1718 63.1983C37.0624 62.8545 36.7603 62.7139 36.4218 62.7712C36.203 62.8025 35.9895 62.8389 35.7759 62.865C35.7551 62.8702 35.5832 62.8962 35.7395 62.8702C35.6874 62.8806 35.6353 62.8858 35.5884 62.891C35.4791 62.9066 35.3697 62.917 35.2655 62.9327C34.8384 62.9795 34.4114 63.0212 33.9895 63.0525C33.6718 63.0785 33.3593 63.3181 33.3749 63.667C33.3905 63.9743 33.6457 64.3025 33.9895 64.2764" id="Shape" fill="#525252" fill-opacity="0.69803923" stroke="none" clip-path="url(#clip_1)" />
    <path d="M33.9895 64.2764C34.9114 64.2035 35.828 64.0941 36.7447 63.9483C37.0624 63.8962 37.2655 63.4847 37.1718 63.1983C37.0624 62.8545 36.7603 62.7139 36.4218 62.7712C36.203 62.8025 35.9895 62.8389 35.7759 62.865C35.7551 62.8702 35.5832 62.8962 35.7395 62.8702C35.6874 62.8806 35.6353 62.8858 35.5884 62.891C35.4791 62.9066 35.3697 62.917 35.2655 62.9327C34.8384 62.9795 34.4114 63.0212 33.9895 63.0525C33.6718 63.0785 33.3593 63.3181 33.3749 63.667C33.3905 63.9743 33.6457 64.3025 33.9895 64.2764" id="Shape" fill="#525252" fill-opacity="0.69803923" stroke="none" clip-path="url(#clip_1)" />
    <path d="M39.2501 63.9059C40.1772 63.8798 41.1095 63.8121 42.0313 63.708C42.198 63.6923 42.3386 63.6559 42.4636 63.5309C42.5678 63.4267 42.6511 63.2496 42.6407 63.0986C42.6303 62.8017 42.3699 62.4527 42.0313 62.4892C41.1095 62.5934 40.1772 62.6559 39.2501 62.6819C38.9272 62.6923 38.6251 62.958 38.6355 63.2913C38.6511 63.6194 38.9063 63.9111 39.2501 63.9059" id="Shape" fill="#525252" fill-opacity="0.69803923" stroke="none" clip-path="url(#clip_1)" />
    <path d="M39.2501 63.9059C40.1772 63.8798 41.1095 63.8121 42.0313 63.708C42.198 63.6923 42.3386 63.6559 42.4636 63.5309C42.5678 63.4267 42.6511 63.2496 42.6407 63.0986C42.6303 62.8017 42.3699 62.4527 42.0313 62.4892C41.1095 62.5934 40.1772 62.6559 39.2501 62.6819C38.9272 62.6923 38.6251 62.958 38.6355 63.2913C38.6511 63.6194 38.9063 63.9111 39.2501 63.9059" id="Shape" fill="#525252" fill-opacity="0.69803923" stroke="none" clip-path="url(#clip_1)" />
    <path d="M44.5833 63.5311C45.2292 63.5832 45.8906 63.4374 46.5208 63.3124C47.125 63.1874 47.724 63.0363 48.3125 62.8592C48.6198 62.7655 48.8437 62.4269 48.7396 62.1092C48.6406 61.7967 48.3177 61.5832 47.9896 61.6821C47.4167 61.854 46.8333 62.0051 46.2448 62.1249C45.9531 62.1821 45.6615 62.2394 45.3698 62.2811C45.3542 62.2863 45.25 62.2967 45.3281 62.2915C45.4219 62.2811 45.2813 62.2967 45.2656 62.2967C45.1927 62.3019 45.1198 62.3124 45.0469 62.3176C44.8906 62.3228 44.7396 62.3228 44.5833 62.3124C44.2656 62.2863 43.9583 62.6092 43.974 62.9217C43.9896 63.2759 44.2396 63.5051 44.5833 63.5311" id="Shape" fill="#525252" fill-opacity="0.69803923" stroke="none" clip-path="url(#clip_1)" />
    <path d="M44.5833 63.5311C45.2292 63.5832 45.8906 63.4374 46.5208 63.3124C47.125 63.1874 47.724 63.0363 48.3125 62.8592C48.6198 62.7655 48.8437 62.4269 48.7396 62.1092C48.6406 61.7967 48.3177 61.5832 47.9896 61.6821C47.4167 61.854 46.8333 62.0051 46.2448 62.1249C45.9531 62.1821 45.6615 62.2394 45.3698 62.2811C45.3542 62.2863 45.25 62.2967 45.3281 62.2915C45.4219 62.2811 45.2813 62.2967 45.2656 62.2967C45.1927 62.3019 45.1198 62.3124 45.0469 62.3176C44.8906 62.3228 44.7396 62.3228 44.5833 62.3124C44.2656 62.2863 43.9583 62.6092 43.974 62.9217C43.9896 63.2759 44.2396 63.5051 44.5833 63.5311" id="Shape" fill="#525252" fill-opacity="0.69803923" stroke="none" clip-path="url(#clip_1)" />
    <path d="M51.1458 62.2863C52.401 61.9998 53.6146 61.5571 54.7708 60.9946C55.0573 60.854 55.1615 60.4217 54.9896 60.156C54.8021 59.8644 54.4635 59.7863 54.1562 59.9373C54.0208 60.005 53.8854 60.0675 53.7448 60.13C53.6771 60.1665 53.6042 60.1977 53.5312 60.229C53.4948 60.2446 53.4583 60.2602 53.4219 60.2758C53.3594 60.3019 53.3958 60.2915 53.4375 60.2706C53.1562 60.4008 52.8646 60.4998 52.5729 60.604C52 60.8071 51.4167 60.9738 50.8229 61.1092C50.5104 61.1821 50.2969 61.5571 50.3958 61.8592C50.5 62.1873 50.8125 62.3644 51.1458 62.2863" id="Shape" fill="#525252" fill-opacity="0.69803923" stroke="none" clip-path="url(#clip_1)" />
    <path d="M51.1458 62.2863C52.401 61.9998 53.6146 61.5571 54.7708 60.9946C55.0573 60.854 55.1615 60.4217 54.9896 60.156C54.8021 59.8644 54.4635 59.7863 54.1562 59.9373C54.0208 60.005 53.8854 60.0675 53.7448 60.13C53.6771 60.1665 53.6042 60.1977 53.5312 60.229C53.4948 60.2446 53.4583 60.2602 53.4219 60.2758C53.3594 60.3019 53.3958 60.2915 53.4375 60.2706C53.1562 60.4008 52.8646 60.4998 52.5729 60.604C52 60.8071 51.4167 60.9738 50.8229 61.1092C50.5104 61.1821 50.2969 61.5571 50.3958 61.8592C50.5 62.1873 50.8125 62.3644 51.1458 62.2863" id="Shape" fill="#525252" fill-opacity="0.69803923" stroke="none" clip-path="url(#clip_1)" />
    <path d="M56.4842 60.542C57.5051 60.292 58.4894 59.8702 59.3749 59.3025C59.6457 59.1306 59.7759 58.7504 59.5936 58.4639C59.4217 58.1983 59.0467 58.0629 58.7603 58.2452C58.3436 58.516 57.9061 58.74 57.453 58.9431C57.3749 58.9743 57.5571 58.9014 57.4738 58.9327C57.4478 58.9431 57.4165 58.9587 57.3905 58.9691C57.3332 58.99 57.2759 59.0108 57.2238 59.0316C57.1092 59.0785 56.9946 59.1202 56.8801 59.1566C56.6405 59.2348 56.4009 59.3025 56.1561 59.365C55.8488 59.4431 55.6301 59.8077 55.729 60.115C55.8332 60.4379 56.1509 60.6254 56.4842 60.542" id="Shape" fill="#525252" fill-opacity="0.69803923" stroke="none" clip-path="url(#clip_1)" />
    <path d="M56.4842 60.542C57.5051 60.292 58.4894 59.8702 59.3749 59.3025C59.6457 59.1306 59.7759 58.7504 59.5936 58.4639C59.4217 58.1983 59.0467 58.0629 58.7603 58.2452C58.3436 58.516 57.9061 58.74 57.453 58.9431C57.3749 58.9743 57.5571 58.9014 57.4738 58.9327C57.4478 58.9431 57.4165 58.9587 57.3905 58.9691C57.3332 58.99 57.2759 59.0108 57.2238 59.0316C57.1092 59.0785 56.9946 59.1202 56.8801 59.1566C56.6405 59.2348 56.4009 59.3025 56.1561 59.365C55.8488 59.4431 55.6301 59.8077 55.729 60.115C55.8332 60.4379 56.1509 60.6254 56.4842 60.542" id="Shape" fill="#525252" fill-opacity="0.69803923" stroke="none" clip-path="url(#clip_1)" />
    <path d="M61.552 58.1305C62.6822 57.5212 63.7395 56.766 64.6926 55.9066C64.9322 55.693 64.927 55.2555 64.6926 55.042C64.4426 54.8076 64.0833 54.8128 63.8333 55.042C63.6041 55.2451 63.3749 55.443 63.1354 55.6357C63.0781 55.6826 63.0208 55.7347 62.9531 55.7764C63.0208 55.7347 63.0104 55.7347 62.9531 55.7764C62.9218 55.8024 62.8906 55.8232 62.8593 55.8493C62.7395 55.9378 62.6145 56.0264 62.4895 56.1149C61.9895 56.4639 61.4739 56.7868 60.9374 57.0785C60.6562 57.2295 60.5416 57.641 60.7187 57.9118C60.901 58.1983 61.2499 58.292 61.552 58.1305" id="Shape" fill="#525252" fill-opacity="0.69803923" stroke="none" clip-path="url(#clip_1)" />
    <path d="M61.552 58.1305C62.6822 57.5212 63.7395 56.766 64.6926 55.9066C64.9322 55.693 64.927 55.2555 64.6926 55.042C64.4426 54.8076 64.0833 54.8128 63.8333 55.042C63.6041 55.2451 63.3749 55.443 63.1354 55.6357C63.0781 55.6826 63.0208 55.7347 62.9531 55.7764C63.0208 55.7347 63.0104 55.7347 62.9531 55.7764C62.9218 55.8024 62.8906 55.8232 62.8593 55.8493C62.7395 55.9378 62.6145 56.0264 62.4895 56.1149C61.9895 56.4639 61.4739 56.7868 60.9374 57.0785C60.6562 57.2295 60.5416 57.641 60.7187 57.9118C60.901 58.1983 61.2499 58.292 61.552 58.1305" id="Shape" fill="#525252" fill-opacity="0.69803923" stroke="none" clip-path="url(#clip_1)" />
    <path d="M65.8177 54.5522C66.5729 53.7137 67.1979 52.7657 67.6406 51.7293C67.7084 51.573 67.75 51.4324 67.7031 51.2605C67.6667 51.1147 67.5573 50.9637 67.4219 50.8907C67.1615 50.7553 66.724 50.797 66.5886 51.1147C66.3802 51.5991 66.1302 52.0678 65.849 52.5157C65.7084 52.7345 65.5573 52.948 65.4011 53.1564C65.3542 53.2137 65.3906 53.172 65.4167 53.1407C65.3906 53.1668 65.3698 53.198 65.3438 53.2241C65.3073 53.2709 65.2709 53.3178 65.2344 53.3647C65.1406 53.4741 65.0469 53.5834 64.9531 53.6876C64.7396 53.922 64.7031 54.3178 64.9531 54.5522C65.1875 54.7657 65.5886 54.8022 65.8177 54.5522" id="Shape" fill="#525252" fill-opacity="0.69803923" stroke="none" clip-path="url(#clip_1)" />
    <path d="M65.8177 54.5522C66.5729 53.7137 67.1979 52.7657 67.6406 51.7293C67.7084 51.573 67.75 51.4324 67.7031 51.2605C67.6667 51.1147 67.5573 50.9637 67.4219 50.8907C67.1615 50.7553 66.724 50.797 66.5886 51.1147C66.3802 51.5991 66.1302 52.0678 65.849 52.5157C65.7084 52.7345 65.5573 52.948 65.4011 53.1564C65.3542 53.2137 65.3906 53.172 65.4167 53.1407C65.3906 53.1668 65.3698 53.198 65.3438 53.2241C65.3073 53.2709 65.2709 53.3178 65.2344 53.3647C65.1406 53.4741 65.0469 53.5834 64.9531 53.6876C64.7396 53.922 64.7031 54.3178 64.9531 54.5522C65.1875 54.7657 65.5886 54.8022 65.8177 54.5522" id="Shape" fill="#525252" fill-opacity="0.69803923" stroke="none" clip-path="url(#clip_1)" />
    <path d="M67.0835 46.9579C67.1147 47.4163 67.1147 47.8746 67.0835 48.3329C67.0731 48.4475 67.0626 48.5621 67.0522 48.6715C67.047 48.7235 67.0418 48.7704 67.0366 48.8225C67.0314 48.8538 67.0262 48.885 67.0262 48.9163C67.0366 48.8381 67.0366 48.8329 67.0262 48.9006C66.9897 49.1298 66.9481 49.3538 66.9012 49.5777C66.8335 49.8902 66.9949 50.2548 67.3283 50.3277C67.6356 50.4006 68.0053 50.234 68.0783 49.9006C68.2918 48.9371 68.3699 47.9423 68.3022 46.9579C68.2814 46.6402 68.0366 46.3277 67.6928 46.3433C67.3803 46.359 67.0574 46.6142 67.0835 46.9579" id="Shape" fill="#525252" fill-opacity="0.69803923" stroke="none" clip-path="url(#clip_1)" />
    <path d="M67.0835 46.9579C67.1147 47.4163 67.1147 47.8746 67.0835 48.3329C67.0731 48.4475 67.0626 48.5621 67.0522 48.6715C67.047 48.7235 67.0418 48.7704 67.0366 48.8225C67.0314 48.8538 67.0262 48.885 67.0262 48.9163C67.0366 48.8381 67.0366 48.8329 67.0262 48.9006C66.9897 49.1298 66.9481 49.3538 66.9012 49.5777C66.8335 49.8902 66.9949 50.2548 67.3283 50.3277C67.6356 50.4006 68.0053 50.234 68.0783 49.9006C68.2918 48.9371 68.3699 47.9423 68.3022 46.9579C68.2814 46.6402 68.0366 46.3277 67.6928 46.3433C67.3803 46.359 67.0574 46.6142 67.0835 46.9579" id="Shape" fill="#525252" fill-opacity="0.69803923" stroke="none" clip-path="url(#clip_1)" />
    <path d="M65.2604 42.8543C65.4166 43.021 65.5677 43.1929 65.7135 43.3752C65.7448 43.4168 65.776 43.4585 65.8125 43.5002C65.7916 43.4741 65.7395 43.4064 65.7864 43.4741C65.8073 43.5002 65.8281 43.5262 65.8489 43.5522C65.9166 43.646 65.9843 43.7397 66.0468 43.8335C66.3073 44.2085 66.5364 44.6043 66.7395 45.0158C66.8802 45.3022 67.3125 45.4012 67.5729 45.2345C67.8698 45.0418 67.9427 44.7033 67.7916 44.396C67.3593 43.521 66.7916 42.7085 66.125 41.9897C65.9062 41.7554 65.4791 41.7554 65.2604 41.9897C65.0312 42.245 65.0312 42.6043 65.2604 42.8543" id="Shape" fill="#525252" fill-opacity="0.69803923" stroke="none" clip-path="url(#clip_1)" />
    <path d="M65.2604 42.8543C65.4166 43.021 65.5677 43.1929 65.7135 43.3752C65.7448 43.4168 65.776 43.4585 65.8125 43.5002C65.7916 43.4741 65.7395 43.4064 65.7864 43.4741C65.8073 43.5002 65.8281 43.5262 65.8489 43.5522C65.9166 43.646 65.9843 43.7397 66.0468 43.8335C66.3073 44.2085 66.5364 44.6043 66.7395 45.0158C66.8802 45.3022 67.3125 45.4012 67.5729 45.2345C67.8698 45.0418 67.9427 44.7033 67.7916 44.396C67.3593 43.521 66.7916 42.7085 66.125 41.9897C65.9062 41.7554 65.4791 41.7554 65.2604 41.9897C65.0312 42.245 65.0312 42.6043 65.2604 42.8543" id="Shape" fill="#525252" fill-opacity="0.69803923" stroke="none" clip-path="url(#clip_1)" />
    <path d="M60.8073 39.6612C60.948 39.7133 61.0938 39.7654 61.2344 39.8175C61.2969 39.8435 61.3594 39.8695 61.4271 39.8956C61.4584 39.9112 61.4948 39.9216 61.5313 39.9373C61.4636 39.906 61.4636 39.9112 61.5313 39.9373C61.8073 40.057 62.073 40.182 62.3386 40.3175C62.8646 40.5935 63.3698 40.9008 63.8594 41.2393C64.1198 41.4268 64.5469 41.2966 64.6927 41.0206C64.8594 40.7081 64.7552 40.3852 64.474 40.1873C63.448 39.4633 62.3177 38.8956 61.1302 38.4841C60.8282 38.38 60.448 38.6039 60.3802 38.9112C60.3021 39.2498 60.4844 39.5518 60.8073 39.6612" id="Shape" fill="#525252" fill-opacity="0.69803923" stroke="none" clip-path="url(#clip_1)" />
    <path d="M60.8073 39.6612C60.948 39.7133 61.0938 39.7654 61.2344 39.8175C61.2969 39.8435 61.3594 39.8695 61.4271 39.8956C61.4584 39.9112 61.4948 39.9216 61.5313 39.9373C61.4636 39.906 61.4636 39.9112 61.5313 39.9373C61.8073 40.057 62.073 40.182 62.3386 40.3175C62.8646 40.5935 63.3698 40.9008 63.8594 41.2393C64.1198 41.4268 64.5469 41.2966 64.6927 41.0206C64.8594 40.7081 64.7552 40.3852 64.474 40.1873C63.448 39.4633 62.3177 38.8956 61.1302 38.4841C60.8282 38.38 60.448 38.6039 60.3802 38.9112C60.3021 39.2498 60.4844 39.5518 60.8073 39.6612" id="Shape" fill="#525252" fill-opacity="0.69803923" stroke="none" clip-path="url(#clip_1)" />
    <path d="M59.2657 37.943C58.3282 37.7764 57.3855 37.6618 56.4324 37.5889C56.1147 37.568 55.8074 37.8857 55.823 38.2034C55.8386 38.5524 56.0939 38.7868 56.4324 38.8128C56.8751 38.8441 57.3126 38.8857 57.7501 38.9378C57.8074 38.9482 57.8647 38.9534 57.922 38.9639C57.9532 38.9639 58.1095 38.9795 57.9584 38.9639C58.0626 38.9743 58.172 38.9951 58.2761 39.0107C58.5001 39.0472 58.7189 39.0837 58.9428 39.1201C59.1043 39.1514 59.2605 39.1462 59.4116 39.0576C59.5366 38.9847 59.6616 38.8389 59.6928 38.693C59.7605 38.3962 59.6043 38.0003 59.2657 37.943" id="Shape" fill="#525252" fill-opacity="0.69803923" stroke="none" clip-path="url(#clip_1)" />
    <path d="M59.2657 37.943C58.3282 37.7764 57.3855 37.6618 56.4324 37.5889C56.1147 37.568 55.8074 37.8857 55.823 38.2034C55.8386 38.5524 56.0939 38.7868 56.4324 38.8128C56.8751 38.8441 57.3126 38.8857 57.7501 38.9378C57.8074 38.9482 57.8647 38.9534 57.922 38.9639C57.9532 38.9639 58.1095 38.9795 57.9584 38.9639C58.0626 38.9743 58.172 38.9951 58.2761 39.0107C58.5001 39.0472 58.7189 39.0837 58.9428 39.1201C59.1043 39.1514 59.2605 39.1462 59.4116 39.0576C59.5366 38.9847 59.6616 38.8389 59.6928 38.693C59.7605 38.3962 59.6043 38.0003 59.2657 37.943" id="Shape" fill="#525252" fill-opacity="0.69803923" stroke="none" clip-path="url(#clip_1)" />
    <path d="M54.224 37.2657C53.1875 37.2761 52.1563 37.3647 51.1303 37.5105C50.9896 37.5313 50.8334 37.6772 50.7657 37.7917C50.6875 37.9219 50.6563 38.1147 50.7032 38.2605C50.75 38.4115 50.8438 38.5522 50.9844 38.6251C51.1407 38.7084 51.2813 38.7136 51.4532 38.6876C51.4896 38.6824 51.5209 38.6772 51.5521 38.6719C51.474 38.6876 51.4688 38.6876 51.5417 38.6772C51.599 38.6667 51.6563 38.6615 51.7136 38.6563C51.8386 38.6407 51.9584 38.6251 52.0834 38.6147C52.3178 38.5886 52.5469 38.5678 52.7813 38.5469C53.2605 38.5105 53.7448 38.4897 54.224 38.4844C54.5417 38.4792 54.849 38.2084 54.8334 37.8751C54.823 37.5469 54.5678 37.2605 54.224 37.2657" id="Shape" fill="#525252" fill-opacity="0.69803923" stroke="none" clip-path="url(#clip_1)" />
    <path d="M54.224 37.2657C53.1875 37.2761 52.1563 37.3647 51.1303 37.5105C50.9896 37.5313 50.8334 37.6772 50.7657 37.7917C50.6875 37.9219 50.6563 38.1147 50.7032 38.2605C50.75 38.4115 50.8438 38.5522 50.9844 38.6251C51.1407 38.7084 51.2813 38.7136 51.4532 38.6876C51.4896 38.6824 51.5209 38.6772 51.5521 38.6719C51.474 38.6876 51.4688 38.6876 51.5417 38.6772C51.599 38.6667 51.6563 38.6615 51.7136 38.6563C51.8386 38.6407 51.9584 38.6251 52.0834 38.6147C52.3178 38.5886 52.5469 38.5678 52.7813 38.5469C53.2605 38.5105 53.7448 38.4897 54.224 38.4844C54.5417 38.4792 54.849 38.2084 54.8334 37.8751C54.823 37.5469 54.5678 37.2605 54.224 37.2657" id="Shape" fill="#525252" fill-opacity="0.69803923" stroke="none" clip-path="url(#clip_1)" />
    <path d="M49.0676 37.7399C47.5364 38.0056 46.1093 38.6826 44.901 39.6514C44.6562 39.8441 44.4218 40.0576 44.203 40.2764C43.9739 40.5003 43.9583 40.917 44.203 41.141C44.4478 41.3649 44.8228 41.3806 45.0624 41.141C45.2499 40.9535 45.4426 40.7816 45.6405 40.6149C45.6978 40.5681 45.7499 40.5264 45.8072 40.4795C45.8228 40.4691 45.8333 40.4587 45.8489 40.4483C45.8541 40.4431 45.7447 40.5264 45.7968 40.4899C45.8333 40.4639 45.8697 40.4326 45.901 40.4066C46.0416 40.3076 46.1822 40.2087 46.3228 40.1149C46.6353 39.9118 46.9635 39.7295 47.2968 39.5681C47.3853 39.5264 47.4739 39.4847 47.5624 39.4483C47.5833 39.4378 47.6041 39.4274 47.6301 39.417C47.6249 39.4222 47.5312 39.4587 47.5937 39.4326C47.6458 39.4118 47.6978 39.391 47.7499 39.3701C47.9322 39.3024 48.1197 39.2347 48.3072 39.1774C48.6614 39.0681 49.026 38.9795 49.3906 38.917C49.7083 38.8597 49.9114 38.4587 49.8176 38.167C49.7083 37.8233 49.4062 37.6774 49.0676 37.7399" id="Shape" fill="#525252" fill-opacity="0.69803923" stroke="none" clip-path="url(#clip_1)" />
    <path d="M49.0676 37.7399C47.5364 38.0056 46.1093 38.6826 44.901 39.6514C44.6562 39.8441 44.4218 40.0576 44.203 40.2764C43.9739 40.5003 43.9583 40.917 44.203 41.141C44.4478 41.3649 44.8228 41.3806 45.0624 41.141C45.2499 40.9535 45.4426 40.7816 45.6405 40.6149C45.6978 40.5681 45.7499 40.5264 45.8072 40.4795C45.8228 40.4691 45.8333 40.4587 45.8489 40.4483C45.8541 40.4431 45.7447 40.5264 45.7968 40.4899C45.8333 40.4639 45.8697 40.4326 45.901 40.4066C46.0416 40.3076 46.1822 40.2087 46.3228 40.1149C46.6353 39.9118 46.9635 39.7295 47.2968 39.5681C47.3853 39.5264 47.4739 39.4847 47.5624 39.4483C47.5833 39.4378 47.6041 39.4274 47.6301 39.417C47.6249 39.4222 47.5312 39.4587 47.5937 39.4326C47.6458 39.4118 47.6978 39.391 47.7499 39.3701C47.9322 39.3024 48.1197 39.2347 48.3072 39.1774C48.6614 39.0681 49.026 38.9795 49.3906 38.917C49.7083 38.8597 49.9114 38.4587 49.8176 38.167C49.7083 37.8233 49.4062 37.6774 49.0676 37.7399" id="Shape" fill="#525252" fill-opacity="0.69803923" stroke="none" clip-path="url(#clip_1)" />
    <path d="M43.0417 42.0884C42.5053 43.4217 42.2969 44.9009 42.4584 46.3331C42.5001 46.6977 42.5574 47.0675 42.6407 47.4269C42.7136 47.7394 43.0886 47.9529 43.3959 47.854C43.7188 47.7498 43.8959 47.4373 43.8178 47.104C43.7813 46.9373 43.7501 46.7706 43.7188 46.604C43.7136 46.5571 43.7084 46.5102 43.698 46.4634C43.6719 46.2915 43.7084 46.5571 43.698 46.4477C43.6824 46.3436 43.6719 46.2394 43.6615 46.1352C43.6199 45.6717 43.6199 45.2029 43.6563 44.7394C43.6615 44.6092 43.6772 44.4842 43.6928 44.354C43.7032 44.2811 43.7032 44.2915 43.6876 44.3748C43.6928 44.3436 43.698 44.3123 43.7032 44.2811C43.7136 44.2238 43.724 44.1613 43.7344 44.104C43.7709 43.8956 43.8178 43.6821 43.8699 43.479C43.9636 43.1144 44.0782 42.7602 44.2188 42.4113C44.2761 42.2759 44.2292 42.0623 44.1563 41.9425C44.0834 41.8123 43.9376 41.6925 43.7917 41.6613C43.4376 41.5779 43.1719 41.7706 43.0417 42.0884" id="Shape" fill="#525252" fill-opacity="0.69803923" stroke="none" clip-path="url(#clip_1)" />
    <path d="M43.0417 42.0884C42.5053 43.4217 42.2969 44.9009 42.4584 46.3331C42.5001 46.6977 42.5574 47.0675 42.6407 47.4269C42.7136 47.7394 43.0886 47.9529 43.3959 47.854C43.7188 47.7498 43.8959 47.4373 43.8178 47.104C43.7813 46.9373 43.7501 46.7706 43.7188 46.604C43.7136 46.5571 43.7084 46.5102 43.698 46.4634C43.6719 46.2915 43.7084 46.5571 43.698 46.4477C43.6824 46.3436 43.6719 46.2394 43.6615 46.1352C43.6199 45.6717 43.6199 45.2029 43.6563 44.7394C43.6615 44.6092 43.6772 44.4842 43.6928 44.354C43.7032 44.2811 43.7032 44.2915 43.6876 44.3748C43.6928 44.3436 43.698 44.3123 43.7032 44.2811C43.7136 44.2238 43.724 44.1613 43.7344 44.104C43.7709 43.8956 43.8178 43.6821 43.8699 43.479C43.9636 43.1144 44.0782 42.7602 44.2188 42.4113C44.2761 42.2759 44.2292 42.0623 44.1563 41.9425C44.0834 41.8123 43.9376 41.6925 43.7917 41.6613C43.4376 41.5779 43.1719 41.7706 43.0417 42.0884" id="Shape" fill="#525252" fill-opacity="0.69803923" stroke="none" clip-path="url(#clip_1)" />
    <path d="M42.948 48.9167C43.2761 50.0001 43.7761 51.0313 44.448 51.948C44.5418 52.0782 44.6459 52.1824 44.8126 52.2292C44.9584 52.2657 45.1511 52.2501 45.2813 52.1667C45.5366 52.0001 45.7032 51.6042 45.5001 51.3282C45.1876 50.9011 44.9063 50.448 44.6668 49.9688C44.6095 49.8542 44.5574 49.7397 44.5053 49.6251C44.4897 49.5886 44.4741 49.5574 44.4584 49.5209C44.4532 49.5053 44.4116 49.4115 44.4428 49.4897C44.4793 49.5678 44.4376 49.474 44.4324 49.4636C44.4168 49.4272 44.4063 49.3907 44.3907 49.3542C44.2918 49.1042 44.2032 48.849 44.1251 48.5938C44.0313 48.2865 43.6928 48.0626 43.3751 48.1667C43.0626 48.2657 42.8491 48.5886 42.948 48.9167" id="Shape" fill="#525252" fill-opacity="0.69803923" stroke="none" clip-path="url(#clip_1)" />
    <path d="M42.948 48.9167C43.2761 50.0001 43.7761 51.0313 44.448 51.948C44.5418 52.0782 44.6459 52.1824 44.8126 52.2292C44.9584 52.2657 45.1511 52.2501 45.2813 52.1667C45.5366 52.0001 45.7032 51.6042 45.5001 51.3282C45.1876 50.9011 44.9063 50.448 44.6668 49.9688C44.6095 49.8542 44.5574 49.7397 44.5053 49.6251C44.4897 49.5886 44.4741 49.5574 44.4584 49.5209C44.4532 49.5053 44.4116 49.4115 44.4428 49.4897C44.4793 49.5678 44.4376 49.474 44.4324 49.4636C44.4168 49.4272 44.4063 49.3907 44.3907 49.3542C44.2918 49.1042 44.2032 48.849 44.1251 48.5938C44.0313 48.2865 43.6928 48.0626 43.3751 48.1667C43.0626 48.2657 42.8491 48.5886 42.948 48.9167" id="Shape" fill="#525252" fill-opacity="0.69803923" stroke="none" clip-path="url(#clip_1)" />
    <path d="M45.3177 53.25C46.0104 53.8593 46.7031 54.4687 47.3958 55.0781C47.6354 55.2916 48.026 55.3333 48.2604 55.0781C48.4687 54.8489 48.5156 54.4375 48.2604 54.2135C47.5677 53.6041 46.875 52.9947 46.1823 52.3854C45.9427 52.177 45.5521 52.1354 45.3177 52.3854C45.1094 52.6197 45.0625 53.026 45.3177 53.25" id="Shape" fill="#525252" fill-opacity="0.69803923" stroke="none" clip-path="url(#clip_1)" />
    <path d="M45.3177 53.25C46.0104 53.8593 46.7031 54.4687 47.3958 55.0781C47.6354 55.2916 48.026 55.3333 48.2604 55.0781C48.4687 54.8489 48.5156 54.4375 48.2604 54.2135C47.5677 53.6041 46.875 52.9947 46.1823 52.3854C45.9427 52.177 45.5521 52.1354 45.3177 52.3854C45.1094 52.6197 45.0625 53.026 45.3177 53.25" id="Shape" fill="#525252" fill-opacity="0.69803923" stroke="none" clip-path="url(#clip_1)" />
    <path d="M48.6874 55.8441C49.4478 56.3129 50.2916 56.6566 51.1666 56.8337C51.4791 56.9014 51.8437 56.7452 51.9166 56.4118C51.9895 56.1045 51.828 55.7295 51.4947 55.6566C51.0884 55.5733 50.6874 55.4587 50.302 55.3025C50.2655 55.292 50.1041 55.2035 50.2603 55.2868C50.2239 55.2712 50.1822 55.2556 50.1457 55.2348C50.0416 55.1931 49.9426 55.1462 49.8437 55.0941C49.6614 55.0004 49.4791 54.8962 49.3072 54.7868C49.0312 54.6202 48.6197 54.7191 48.4687 55.0056C48.3124 55.3077 48.3957 55.6618 48.6874 55.8441" id="Shape" fill="#525252" fill-opacity="0.69803923" stroke="none" clip-path="url(#clip_1)" />
    <path d="M48.6874 55.8441C49.4478 56.3129 50.2916 56.6566 51.1666 56.8337C51.4791 56.9014 51.8437 56.7452 51.9166 56.4118C51.9895 56.1045 51.828 55.7295 51.4947 55.6566C51.0884 55.5733 50.6874 55.4587 50.302 55.3025C50.2655 55.292 50.1041 55.2035 50.2603 55.2868C50.2239 55.2712 50.1822 55.2556 50.1457 55.2348C50.0416 55.1931 49.9426 55.1462 49.8437 55.0941C49.6614 55.0004 49.4791 54.8962 49.3072 54.7868C49.0312 54.6202 48.6197 54.7191 48.4687 55.0056C48.3124 55.3077 48.3957 55.6618 48.6874 55.8441" id="Shape" fill="#525252" fill-opacity="0.69803923" stroke="none" clip-path="url(#clip_1)" />
    <path d="M52.573 57.1974C53.3907 57.3953 54.2241 57.5203 55.0626 57.5724C55.3855 57.5933 55.6876 57.2808 55.6772 56.963C55.6616 56.6141 55.4064 56.3745 55.0626 56.3537C54.8699 56.338 54.6772 56.3276 54.4897 56.3068C54.3907 56.2964 54.297 56.2808 54.198 56.2703C54.1564 56.2651 54.172 56.2703 54.2553 56.2808C54.2241 56.2755 54.1928 56.2703 54.1668 56.2651C54.1199 56.2599 54.0782 56.2547 54.0314 56.2443C53.6511 56.187 53.2761 56.1089 52.9011 56.0151C52.5886 55.9422 52.2241 56.1141 52.1459 56.4422C52.0782 56.7599 52.2449 57.1141 52.573 57.1974" id="Shape" fill="#525252" fill-opacity="0.69803923" stroke="none" clip-path="url(#clip_1)" />
    <path d="M52.573 57.1974C53.3907 57.3953 54.2241 57.5203 55.0626 57.5724C55.3855 57.5933 55.6876 57.2808 55.6772 56.963C55.6616 56.6141 55.4064 56.3745 55.0626 56.3537C54.8699 56.338 54.6772 56.3276 54.4897 56.3068C54.3907 56.2964 54.297 56.2808 54.198 56.2703C54.1564 56.2651 54.172 56.2703 54.2553 56.2808C54.2241 56.2755 54.1928 56.2703 54.1668 56.2651C54.1199 56.2599 54.0782 56.2547 54.0314 56.2443C53.6511 56.187 53.2761 56.1089 52.9011 56.0151C52.5886 55.9422 52.2241 56.1141 52.1459 56.4422C52.0782 56.7599 52.2449 57.1141 52.573 57.1974" id="Shape" fill="#525252" fill-opacity="0.69803923" stroke="none" clip-path="url(#clip_1)" />
    <path d="M56.5728 57.4692C57.5937 57.7296 58.6301 57.9119 59.6718 58.0161C59.9895 58.0525 60.2968 57.714 60.2864 57.4067C60.2655 57.0473 60.0155 56.8338 59.6718 56.7973C59.5416 56.7817 59.4114 56.7713 59.2864 56.7504C59.2655 56.7504 59.078 56.7296 59.1718 56.74C59.2603 56.7504 59.0728 56.7244 59.0572 56.7244C58.8176 56.6879 58.5728 56.6515 58.3332 56.6046C57.8489 56.5161 57.3749 56.4119 56.901 56.2921C56.5885 56.2088 56.2239 56.3911 56.1457 56.714C56.0728 57.0369 56.2447 57.3806 56.5728 57.4692" id="Shape" fill="#525252" fill-opacity="0.69803923" stroke="none" clip-path="url(#clip_1)" />
    <path d="M56.5728 57.4692C57.5937 57.7296 58.6301 57.9119 59.6718 58.0161C59.9895 58.0525 60.2968 57.714 60.2864 57.4067C60.2655 57.0473 60.0155 56.8338 59.6718 56.7973C59.5416 56.7817 59.4114 56.7713 59.2864 56.7504C59.2655 56.7504 59.078 56.7296 59.1718 56.74C59.2603 56.7504 59.0728 56.7244 59.0572 56.7244C58.8176 56.6879 58.5728 56.6515 58.3332 56.6046C57.8489 56.5161 57.3749 56.4119 56.901 56.2921C56.5885 56.2088 56.2239 56.3911 56.1457 56.714C56.0728 57.0369 56.2447 57.3806 56.5728 57.4692" id="Shape" fill="#525252" fill-opacity="0.69803923" stroke="none" clip-path="url(#clip_1)" />
    <path d="M62.5938 58.5359C63.6771 58.7026 64.7604 58.838 65.849 58.937C66.1667 58.963 66.474 58.6349 66.4583 58.3276C66.4427 57.9682 66.1875 57.7443 65.849 57.713C65.3386 57.6661 64.8333 57.6141 64.3229 57.5516C64.1979 57.5359 64.0781 57.5203 63.9531 57.5047C63.8854 57.4995 63.8177 57.4891 63.75 57.4786C63.9063 57.4995 63.724 57.4786 63.6927 57.4734C63.4323 57.437 63.1771 57.4005 62.9219 57.3588C62.7552 57.3328 62.6042 57.3328 62.4531 57.4213C62.3229 57.4943 62.2031 57.6401 62.1719 57.7859C62.1042 58.0776 62.2604 58.4838 62.5938 58.5359" id="Shape" fill="#525252" fill-opacity="0.69803923" stroke="none" clip-path="url(#clip_1)" />
    <path d="M62.5938 58.5359C63.6771 58.7026 64.7604 58.838 65.849 58.937C66.1667 58.963 66.474 58.6349 66.4583 58.3276C66.4427 57.9682 66.1875 57.7443 65.849 57.713C65.3386 57.6661 64.8333 57.6141 64.3229 57.5516C64.1979 57.5359 64.0781 57.5203 63.9531 57.5047C63.8854 57.4995 63.8177 57.4891 63.75 57.4786C63.9063 57.4995 63.724 57.4786 63.6927 57.4734C63.4323 57.437 63.1771 57.4005 62.9219 57.3588C62.7552 57.3328 62.6042 57.3328 62.4531 57.4213C62.3229 57.4943 62.2031 57.6401 62.1719 57.7859C62.1042 58.0776 62.2604 58.4838 62.5938 58.5359" id="Shape" fill="#525252" fill-opacity="0.69803923" stroke="none" clip-path="url(#clip_1)" />
    <path d="M67.521 59.0261C68.6668 59.0938 69.8126 59.1095 70.9532 59.0678C71.271 59.0574 71.5782 58.797 71.5626 58.4584C71.5522 58.1355 71.297 57.8334 70.9532 57.849C69.8126 57.8855 68.6668 57.8751 67.521 57.8074C67.2032 57.7865 66.896 58.099 66.9116 58.4168C66.9272 58.7657 67.1824 59.0105 67.521 59.0261" id="Shape" fill="#525252" fill-opacity="0.69803923" stroke="none" clip-path="url(#clip_1)" />
    <path d="M67.521 59.0261C68.6668 59.0938 69.8126 59.1095 70.9532 59.0678C71.271 59.0574 71.5782 58.797 71.5626 58.4584C71.5522 58.1355 71.297 57.8334 70.9532 57.849C69.8126 57.8855 68.6668 57.8751 67.521 57.8074C67.2032 57.7865 66.896 58.099 66.9116 58.4168C66.9272 58.7657 67.1824 59.0105 67.521 59.0261" id="Shape" fill="#525252" fill-opacity="0.69803923" stroke="none" clip-path="url(#clip_1)" />
    <path d="M72.4948 59.0469C73.4635 58.8803 74.4219 58.6251 75.3438 58.2813C75.6406 58.1719 75.875 57.8646 75.7708 57.5313C75.6771 57.2396 75.3385 56.9844 75.0208 57.1042C74.0938 57.448 73.1406 57.7032 72.1667 57.8699C71.8542 57.9219 71.6458 58.3282 71.7448 58.6199C71.8542 58.9584 72.1563 59.1042 72.4948 59.0469" id="Shape" fill="#525252" fill-opacity="0.69803923" stroke="none" clip-path="url(#clip_1)" />
    <path d="M72.4948 59.0469C73.4635 58.8803 74.4219 58.6251 75.3438 58.2813C75.6406 58.1719 75.875 57.8646 75.7708 57.5313C75.6771 57.2396 75.3385 56.9844 75.0208 57.1042C74.0938 57.448 73.1406 57.7032 72.1667 57.8699C71.8542 57.9219 71.6458 58.3282 71.7448 58.6199C71.8542 58.9584 72.1563 59.1042 72.4948 59.0469" id="Shape" fill="#525252" fill-opacity="0.69803923" stroke="none" clip-path="url(#clip_1)" />
    <path d="M77.1771 57.4059C77.8959 56.9997 78.5886 56.5518 79.2501 56.0674C79.3855 55.9684 79.4896 55.8643 79.5313 55.6976C79.573 55.5518 79.5574 55.3591 79.474 55.2289C79.3074 54.9737 78.9115 54.807 78.6355 55.0101C77.9688 55.4997 77.2761 55.9476 76.5574 56.3487C76.2813 56.5101 76.1615 56.9112 76.3386 57.1872C76.5209 57.4684 76.8751 57.5726 77.1771 57.4059" id="Shape" fill="#525252" fill-opacity="0.69803923" stroke="none" clip-path="url(#clip_1)" />
    <path d="M77.1771 57.4059C77.8959 56.9997 78.5886 56.5518 79.2501 56.0674C79.3855 55.9684 79.4896 55.8643 79.5313 55.6976C79.573 55.5518 79.5574 55.3591 79.474 55.2289C79.3074 54.9737 78.9115 54.807 78.6355 55.0101C77.9688 55.4997 77.2761 55.9476 76.5574 56.3487C76.2813 56.5101 76.1615 56.9112 76.3386 57.1872C76.5209 57.4684 76.8751 57.5726 77.1771 57.4059" id="Shape" fill="#525252" fill-opacity="0.69803923" stroke="none" clip-path="url(#clip_1)" />
    <path d="M80.3804 54.9738C81.0366 54.3123 81.6304 53.5936 82.172 52.8332C82.2606 52.7134 82.271 52.505 82.2345 52.3644C82.1929 52.2238 82.0835 52.0675 81.9533 51.9998C81.8127 51.9269 81.6408 51.8853 81.4845 51.9373C81.3231 51.9894 81.2137 52.0832 81.1199 52.2186C81.0574 52.3019 81.0002 52.3853 80.9377 52.4686C80.9012 52.5103 80.8699 52.5571 80.8387 52.5988C80.8231 52.6196 80.8074 52.6405 80.7918 52.6613C80.7397 52.7238 80.797 52.6457 80.8179 52.63C80.7397 52.6925 80.6772 52.8071 80.6095 52.8853C80.5366 52.979 80.4585 53.0675 80.3856 53.1613C80.1095 53.4894 79.8179 53.8019 79.5158 54.1092C79.2918 54.3384 79.271 54.7498 79.5158 54.9738C79.7606 55.1978 80.1408 55.2186 80.3804 54.9738" id="Shape" fill="#525252" fill-opacity="0.69803923" stroke="none" clip-path="url(#clip_1)" />
    <path d="M80.3804 54.9738C81.0366 54.3123 81.6304 53.5936 82.172 52.8332C82.2606 52.7134 82.271 52.505 82.2345 52.3644C82.1929 52.2238 82.0835 52.0675 81.9533 51.9998C81.8127 51.9269 81.6408 51.8853 81.4845 51.9373C81.3231 51.9894 81.2137 52.0832 81.1199 52.2186C81.0574 52.3019 81.0002 52.3853 80.9377 52.4686C80.9012 52.5103 80.8699 52.5571 80.8387 52.5988C80.8231 52.6196 80.8074 52.6405 80.7918 52.6613C80.7397 52.7238 80.797 52.6457 80.8179 52.63C80.7397 52.6925 80.6772 52.8071 80.6095 52.8853C80.5366 52.979 80.4585 53.0675 80.3856 53.1613C80.1095 53.4894 79.8179 53.8019 79.5158 54.1092C79.2918 54.3384 79.271 54.7498 79.5158 54.9738C79.7606 55.1978 80.1408 55.2186 80.3804 54.9738" id="Shape" fill="#525252" fill-opacity="0.69803923" stroke="none" clip-path="url(#clip_1)" />
    <path d="M82.8178 51.6613C83.3126 50.9322 83.7866 50.1874 84.2501 49.4374C84.4168 49.1665 84.3178 48.7551 84.0262 48.604C83.7293 48.4426 83.3699 48.5311 83.1928 48.8228C82.7345 49.5728 82.2553 50.3124 81.7657 51.0467C81.5887 51.3124 81.7032 51.7342 81.9845 51.8801C82.2918 52.0415 82.6303 51.9478 82.8178 51.6613" id="Shape" fill="#525252" fill-opacity="0.69803923" stroke="none" clip-path="url(#clip_1)" />
    <path d="M82.8178 51.6613C83.3126 50.9322 83.7866 50.1874 84.2501 49.4374C84.4168 49.1665 84.3178 48.7551 84.0262 48.604C83.7293 48.4426 83.3699 48.5311 83.1928 48.8228C82.7345 49.5728 82.2553 50.3124 81.7657 51.0467C81.5887 51.3124 81.7032 51.7342 81.9845 51.8801C82.2918 52.0415 82.6303 51.9478 82.8178 51.6613" id="Shape" fill="#525252" fill-opacity="0.69803923" stroke="none" clip-path="url(#clip_1)" />
    <path d="M85.0782 48.6204C85.4115 48.2193 85.7813 47.8548 86.1823 47.5214C86.2292 47.485 86.2813 47.4433 86.3282 47.4068C86.349 47.386 86.375 47.3704 86.3959 47.3548C86.2813 47.4537 86.3594 47.3808 86.3855 47.36C86.4896 47.2818 86.599 47.2037 86.7084 47.1308C86.9219 46.9798 87.1511 46.8443 87.3802 46.7141C87.6563 46.5579 87.7761 46.1516 87.599 45.8808C87.4167 45.5995 87.0573 45.4902 86.7605 45.662C85.8021 46.1985 84.9271 46.912 84.2136 47.7558C84.0052 47.9954 83.9584 48.3808 84.2136 48.6204C84.4427 48.8287 84.8542 48.8756 85.0782 48.6204" id="Shape" fill="#525252" fill-opacity="0.69803923" stroke="none" clip-path="url(#clip_1)" />
    <path d="M85.0782 48.6204C85.4115 48.2193 85.7813 47.8548 86.1823 47.5214C86.2292 47.485 86.2813 47.4433 86.3282 47.4068C86.349 47.386 86.375 47.3704 86.3959 47.3548C86.2813 47.4537 86.3594 47.3808 86.3855 47.36C86.4896 47.2818 86.599 47.2037 86.7084 47.1308C86.9219 46.9798 87.1511 46.8443 87.3802 46.7141C87.6563 46.5579 87.7761 46.1516 87.599 45.8808C87.4167 45.5995 87.0573 45.4902 86.7605 45.662C85.8021 46.1985 84.9271 46.912 84.2136 47.7558C84.0052 47.9954 83.9584 48.3808 84.2136 48.6204C84.4427 48.8287 84.8542 48.8756 85.0782 48.6204" id="Shape" fill="#525252" fill-opacity="0.69803923" stroke="none" clip-path="url(#clip_1)" />
    <path d="M89.0624 46.0524C89.5364 45.8597 90.026 45.693 90.5208 45.5576C90.7656 45.4951 91.0156 45.4378 91.2603 45.3857C91.3853 45.3597 91.5103 45.3388 91.6353 45.318C91.6978 45.3076 91.7603 45.2972 91.8228 45.292C91.8541 45.2868 91.8853 45.2816 91.9166 45.2763C92.0051 45.2607 91.7656 45.2972 91.9166 45.2763C92.0885 45.2555 92.2239 45.2243 92.3489 45.0941C92.4583 44.9899 92.5364 44.818 92.5312 44.667C92.5156 44.3701 92.2603 44.0107 91.9166 44.0524C90.8228 44.193 89.7603 44.4534 88.7395 44.8753C88.5833 44.9378 88.4583 45.0055 88.3749 45.1566C88.2968 45.2868 88.2656 45.4795 88.3124 45.6253C88.4062 45.9118 88.7447 46.1826 89.0624 46.0524" id="Shape" fill="#525252" fill-opacity="0.69803923" stroke="none" clip-path="url(#clip_1)" />
    <path d="M89.0624 46.0524C89.5364 45.8597 90.026 45.693 90.5208 45.5576C90.7656 45.4951 91.0156 45.4378 91.2603 45.3857C91.3853 45.3597 91.5103 45.3388 91.6353 45.318C91.6978 45.3076 91.7603 45.2972 91.8228 45.292C91.8541 45.2868 91.8853 45.2816 91.9166 45.2763C92.0051 45.2607 91.7656 45.2972 91.9166 45.2763C92.0885 45.2555 92.2239 45.2243 92.3489 45.0941C92.4583 44.9899 92.5364 44.818 92.5312 44.667C92.5156 44.3701 92.2603 44.0107 91.9166 44.0524C90.8228 44.193 89.7603 44.4534 88.7395 44.8753C88.5833 44.9378 88.4583 45.0055 88.3749 45.1566C88.2968 45.2868 88.2656 45.4795 88.3124 45.6253C88.4062 45.9118 88.7447 46.1826 89.0624 46.0524" id="Shape" fill="#525252" fill-opacity="0.69803923" stroke="none" clip-path="url(#clip_1)" />
  </g>
</svg>