<?xml version="1.0" encoding="UTF-8"?>
<svg id="Capa_1" data-name="Capa 1" xmlns="http://www.w3.org/2000/svg" viewBox="0 0 92.32 105.51">
  <defs>
    <style>
      .cls-1, .cls-2 {
        stroke: #f1883d;
        stroke-miterlimit: 10;
        stroke-width: 8px;
      }

      .cls-1, .cls-2, .cls-3 {
        fill: none;
      }

      .cls-4, .cls-5, .cls-6 {
        stroke-width: 0px;
      }

      .cls-2, .cls-3 {
        stroke-linecap: round;
      }

      .cls-5 {
        fill: #fff;
      }

      .cls-6 {
        fill: #f1883d;
      }

      .cls-3 {
        stroke: #000;
        stroke-linejoin: round;
        stroke-width: 2px;
      }
    </style>
  </defs>
  <g>
    <path class="cls-1" d="m56.83,43.98H22.72c-3.2,0-5.79-2.59-5.79-5.79v-15.97c0-3.2,2.59-5.79,5.79-5.79h12.03"/>
    <g>
      <path class="cls-2" d="m46.94,43.98h22.31c6.34,0,11.49,6.04,11.49,13.49v6.64c0,7.45-5.14,13.49-11.49,13.49H24.39c-1.67,0-3.02,1.35-3.02,3.02v7.6"/>
      <g>
        <path class="cls-5" d="m17.76,88c0,1.99,1.62,3.61,3.61,3.61s3.61-1.62,3.61-3.61-1.62-3.61-3.61-3.61c-1.99,0-3.61,1.62-3.61,3.61Z"/>
        <path class="cls-6" d="m17.28,88c0-2.25,1.83-4.09,4.09-4.09s4.09,1.83,4.09,4.09-1.83,4.09-4.09,4.09c-2.25,0-4.09-1.83-4.09-4.09s0,2.26,0,0Zm7.22,0c0-1.73-1.4-3.13-3.13-3.13s-3.13,1.4-3.13,3.13,1.4,3.13,3.13,3.13,3.13-1.4,3.13-3.13,0,1.73,0,0Z"/>
      </g>
    </g>
    <g>
      <path class="cls-1" d="m33.93,16.42h10.99c10.83,0,17.32,6.49,17.32,14.49v57.3"/>
      <g>
        <path class="cls-5" d="m58.63,88c0,1.99,1.62,3.61,3.61,3.61s3.61-1.62,3.61-3.61-1.62-3.61-3.61-3.61-3.61,1.62-3.61,3.61Z"/>
        <path class="cls-6" d="m58.15,88c0-2.25,1.83-4.09,4.09-4.09s4.09,1.83,4.09,4.09-1.83,4.09-4.09,4.09-4.09-1.83-4.09-4.09,0,2.26,0,0Zm7.21,0c0-1.73-1.4-3.13-3.13-3.13s-3.13,1.4-3.13,3.13,1.4,3.13,3.13,3.13,3.13-1.4,3.13-3.13,0,1.73,0,0Z"/>
      </g>
    </g>
  </g>
  <circle class="cls-4" cx="21.36" cy="87.92" r="3.25"/>
  <circle class="cls-4" cx="62.36" cy="87.92" r="3.25"/>
  <g>
    <path class="cls-3" d="m31.14,53.75s7.62,6.75,20.17,0"/>
    <g>
      <circle class="cls-4" cx="34.87" cy="33.39" r="2.19"/>
      <path class="cls-3" d="m42.73,33.91s2.66-2.36,7.05,0"/>
    </g>
  </g>
</svg>