<?xml version="1.0" encoding="utf-8"?>
<svg width="100.00049px" height="100px" viewBox="0 0 100.00049 100" version="1.1" xmlns:xlink="http://www.w3.org/1999/xlink" xmlns="http://www.w3.org/2000/svg">
  <g id="Group-79">
    <path d="M51.4413 45.9338C50.1431 45.9338 48.9132 46.2318 47.7516 46.6984L22.3456 17.7845C20.4894 15.672 17.483 15.672 15.6268 17.7845C13.7706 19.897 13.7706 23.3184 15.6268 25.4309L41.0329 54.3448C40.6229 55.6668 40.361 57.0665 40.361 58.5439C40.361 65.5035 45.3261 71.1541 51.4413 71.1541C57.5565 71.1541 62.5215 65.5035 62.5215 58.5439C62.5215 51.5844 57.5565 45.9338 51.4413 45.9338L51.4413 45.9338Z" id="Shape-9" fill="#35E6B5" fill-rule="evenodd" stroke="none" />
    <path d="M85.185 16.887C85.1509 16.8481 85.0939 16.8351 85.0598 16.7833C75.8926 6.41524 63.275 0 49.3706 0C42.0597 0 35.0106 1.73665 28.4058 5.15811C26.0143 6.38932 24.9667 9.59046 26.0485 12.3121C27.1303 15.0337 29.9545 16.226 32.3345 14.9818C36.2519 12.9601 40.3743 11.677 44.6105 11.1197L44.6105 19.803C44.6105 22.7838 46.74 25.2074 49.3592 25.2074C51.9784 25.2074 54.1079 22.7838 54.1079 19.803L54.1079 11.1457C61.8971 12.1695 69.0258 15.6817 74.8791 20.9564L69.5155 27.0736C67.6593 29.1861 67.6593 32.6076 69.5155 34.7201C70.4379 35.7698 71.6564 36.3012 72.8635 36.3012C74.0706 36.3012 75.3005 35.7698 76.2229 34.7201L81.5865 28.6029C86.2327 35.2644 89.3074 43.3644 90.2184 52.2421L82.6 52.2421C79.9808 52.2421 77.8513 54.6656 77.8513 57.6464C77.8513 60.6272 79.9808 63.0508 82.6 63.0508L90.1159 63.0508C89.2391 71.7211 86.4035 79.8859 81.6321 86.7288L76.2229 80.5728C74.3667 78.4603 71.3603 78.4603 69.5041 80.5728C67.6479 82.6853 67.6479 86.1067 69.5041 88.2192L78.4549 98.4059C79.3773 99.4556 80.5958 99.987 81.8143 100C83.0328 100.013 84.2512 99.4686 85.1736 98.4059C94.7394 87.5194 100.012 73.043 100 57.6464C100 41.8092 94.3636 27.4624 85.2534 17.0295C85.2192 16.9907 85.2078 16.9259 85.1736 16.887L85.185 16.887Z" id="Shape-10" fill="#525252" fill-opacity="0.69803923" fill-rule="evenodd" stroke="none" />
    <path d="M23.789 79.1007L18.3798 85.2568C13.6084 78.4268 10.7614 70.249 9.88456 61.5787L17.4005 61.5787C20.0196 61.5787 22.1492 59.1552 22.1492 56.1744C22.1492 53.1935 20.0196 50.77 17.4005 50.77L9.77068 50.77C10.2604 45.9359 11.3764 41.2573 13.1642 36.799C14.2461 34.0774 13.1984 30.8763 10.8184 29.6451C8.43832 28.4139 5.62555 29.6062 4.53232 32.3278C1.52596 39.8447 0 47.867 0 56.1873C0 71.5839 5.27252 86.0603 14.8382 96.9468C15.7606 97.9965 16.9791 98.5279 18.1862 98.5279C19.3933 98.5279 20.6232 97.9965 21.5456 96.9468L30.4964 86.7601C32.3526 84.6477 32.3526 81.2262 30.4964 79.1137C28.6402 77.0012 25.6338 77.0012 23.7776 79.1137L23.789 79.1007Z" id="Shape-11" fill="#525252" fill-opacity="0.69803923" fill-rule="evenodd" stroke="none" />
  </g>
</svg>