<?xml version="1.0" encoding="utf-8"?>
<svg width="95.5105px" height="100px" viewBox="0 0 95.5105 100" version="1.1" xmlns:xlink="http://www.w3.org/1999/xlink" xmlns="http://www.w3.org/2000/svg">
  <g id="Iconsearch-normal">
    <path d="M45.764 90.6268C23.2829 90.6268 4.97447 71.4606 4.97447 47.9189C4.97447 24.3774 23.2829 5.21086 45.764 5.21086C68.2513 5.21086 86.5557 24.3774 86.5557 47.9189C86.5557 71.4606 68.2513 90.6268 45.764 90.6268L45.764 90.6268ZM45.7663 11.4603C26.5445 11.4603 10.9449 27.8352 10.9449 47.9185C10.9449 68.0016 26.5445 84.3763 45.7663 84.3763C64.9861 84.3763 80.5875 68.0016 80.5875 47.9185C80.5875 27.8352 64.9861 11.4603 45.7663 11.4603L45.7663 11.4603Z" id="Vector" fill="#D93357" fill-rule="evenodd" stroke="none" />
    <path d="M87.5525 94.7923C86.7968 94.7923 86.0407 94.5007 85.4439 93.8757L77.4855 85.5423C76.3304 84.3339 76.3304 82.3339 77.4855 81.1256C78.6397 79.9172 80.55 79.9172 81.7029 81.1256L89.6625 89.4589C90.8162 90.6673 90.8162 92.6674 89.6625 93.8757C89.0654 94.5007 88.3095 94.7923 87.5525 94.7923L87.5525 94.7923Z" id="Vector" fill="#D93357" fill-rule="evenodd" stroke="none" />
    <path d="M95.5106 0L0 0L0 100L95.5106 100L95.5106 0L95.5106 0Z" id="Vector" fill="#D93357" fill-opacity="0" fill-rule="evenodd" stroke="none" />
  </g>
</svg>