<?xml version="1.0" encoding="utf-8"?>
<svg width="100px" height="100.00049px" viewBox="0 0 100 100.00049" version="1.1" xmlns:xlink="http://www.w3.org/1999/xlink" xmlns="http://www.w3.org/2000/svg">
  <g id="Group-79">
    <path d="M76.4597 5.05907C63.459 5.05907 52.9199 16.4055 52.9199 30.4021C52.9199 44.3987 63.459 55.7452 76.4597 55.7452C89.4604 55.7452 99.9996 44.3987 99.9996 30.4021C99.9996 16.4055 89.4604 5.05907 76.4597 5.05907L76.4597 5.05907Z" id="Shape-4" fill="#35E6B5" fill-rule="evenodd" stroke="none" />
    <path d="M30.4586 55.6498L51.056 55.6498C57.9218 55.6498 61.3547 59.3456 61.3547 66.7374L61.3547 88.9125C61.3547 96.3043 57.9218 100 51.056 100L30.4586 100C23.5929 100 20.16 96.3043 20.16 88.9126L20.16 66.7374C20.16 59.3456 23.5929 55.6498 30.4586 55.6498L30.4586 55.6498Z" id="Shape-5" fill="#525252" fill-opacity="0.69803923" fill-rule="evenodd" stroke="none" />
    <path d="M44.6704 40.1825C45.9723 37.7326 45.9723 34.69 44.6493 32.2514L29.1748 3.68352C26.5075 -1.22784 19.1407 -1.22784 16.4734 3.68352C16.4734 3.68352 16.4734 3.68352 16.4734 3.68352L0.998944 32.2514C-0.324113 34.69 -0.334698 37.7326 0.977775 40.1825C2.29025 42.6325 4.73526 44.1595 7.34962 44.1595L38.2986 44.1595C40.9235 44.1595 43.3685 42.6439 44.6704 40.1825L44.6704 40.1825Z" id="Shape-6" fill="#525252" fill-opacity="0.69803923" fill-rule="evenodd" stroke="none" />
  </g>
</svg>