<?xml version="1.0" encoding="utf-8"?>
<svg width="100px" height="100px" viewBox="0 0 100 100" version="1.1" xmlns:xlink="http://www.w3.org/1999/xlink" xmlns="http://www.w3.org/2000/svg">
  <g id="Group-1462">
    <g id="Group-1461">
      <g id="Group-14">
        <path d="M84.3755 45.3181L52.7096 45.3181L36.871 17.887C35.5783 15.6385 32.7006 14.8853 30.4636 16.1781C28.2154 17.471 27.4623 20.3378 28.755 22.575L44.5936 50.0061L28.755 77.4373C27.4623 79.6857 28.2267 82.5413 30.4636 83.8454C31.2055 84.2726 32.0036 84.4749 32.813 84.4749C34.4317 84.4749 36.0054 83.6318 36.871 82.1253L52.7096 54.6942L84.3867 54.6942C86.9722 54.6942 89.0742 52.5919 89.0742 50.0061C89.0742 47.4204 86.9722 45.3181 84.3867 45.3181L84.3755 45.3181Z" id="Shape" fill="#35E6B5" fill-rule="evenodd" stroke="none" />
        <path d="M95.3125 45.3176L88.759 45.3176C88.3094 41.5852 87.3539 38.0101 85.9263 34.6824L91.5917 31.4109C93.8399 30.118 94.5931 27.2513 93.3004 25.0141C92.0076 22.7656 89.1412 22.0124 86.9042 23.294L81.1938 26.588C78.9793 23.6425 76.3602 21.0343 73.4263 18.8196L76.7199 13.1085C78.0126 10.86 77.2482 8.0045 75.0112 6.71164C72.7743 5.40753 69.9078 6.18325 68.6039 8.42046L65.3327 14.0866C62.0054 12.6588 58.4308 11.7032 54.6987 11.2535L54.6987 4.68803C54.6987 2.1023 52.5967 0 50.0112 0C47.4258 0 45.3237 2.1023 45.3237 4.68803L45.3237 11.2423C41.5917 11.692 38.0171 12.6476 34.6898 14.0753L31.4186 8.40922C30.1147 6.16077 27.2482 5.39629 25.0225 6.7004C22.7743 7.99326 22.0211 10.86 23.3026 13.0972L26.5962 18.8196C23.6511 21.0343 21.0432 23.6425 18.8287 26.588L13.1295 23.294C10.9038 22.0011 8.02608 22.7656 6.72212 25.0028C5.42941 27.2513 6.1938 30.1068 8.442 31.3997L14.0962 34.6712C12.6686 37.9989 11.7131 41.5739 11.2635 45.3064L4.6875 45.3064C2.10207 45.3064 0 47.4087 0 49.9944C0 52.5801 2.10207 54.6824 4.6875 54.6824L11.241 54.6824C11.6906 58.4148 12.6461 61.9899 14.0737 65.3288L8.40827 68.6003C6.16007 69.8932 5.40693 72.76 6.69964 74.9972C7.5652 76.5037 9.13894 77.3356 10.7576 77.3356C11.5558 77.3356 12.3539 77.1332 13.107 76.706L18.8174 73.412C21.0319 76.3575 23.6511 78.9657 26.585 81.1805L23.2914 86.9028C21.9987 89.1512 22.763 92.0068 25 93.2996C25.7419 93.7268 26.54 93.9292 27.3494 93.9292C28.9681 93.9292 30.5418 93.086 31.4074 91.5908L34.6785 85.9247C38.0058 87.3524 41.5805 88.308 45.3125 88.7577L45.3125 95.312C45.3125 97.8977 47.4146 100 50 100C52.5854 100 54.6875 97.8977 54.6875 95.312L54.6875 88.7577C58.4195 88.308 61.9941 87.3524 65.3215 85.9247L68.5926 91.5908C69.4582 93.0972 71.0319 93.9292 72.6619 93.9292C73.46 93.9292 74.2581 93.7268 75 93.2996C77.2482 92.0068 78.0014 89.14 76.7086 86.9028L73.415 81.1805C76.3602 78.9657 78.9681 76.3575 81.1826 73.412L86.893 76.706C87.6349 77.1332 88.433 77.3356 89.2424 77.3356C90.8611 77.3356 92.4348 76.4924 93.3004 74.9972C94.5931 72.7487 93.8287 69.8932 91.5917 68.6003L85.9263 65.3288C87.3539 62.0011 88.3094 58.4261 88.759 54.6824L95.3125 54.6824C97.8979 54.6824 100 52.5801 100 49.9944C100 47.4086 97.8979 45.3064 95.3125 45.3064L95.3125 45.3176ZM50 79.6966C33.6331 79.6966 20.3125 66.3745 20.3125 50.0058C20.3125 33.637 33.6331 20.3149 50 20.3149C66.3669 20.3149 79.6875 33.637 79.6875 50.0058C79.6875 66.3745 66.3669 79.6966 50 79.6966L50 79.6966Z" id="Shape" fill="#525252" fill-opacity="0.69803923" fill-rule="evenodd" stroke="none" />
      </g>
    </g>
  </g>
</svg>