<?xml version="1.0" encoding="utf-8"?>
<svg width="100px" height="100px" viewBox="0 0 100 100" version="1.1" xmlns:xlink="http://www.w3.org/1999/xlink" xmlns="http://www.w3.org/2000/svg">
  <g id="Group-1443">
    <g id="Group">
      <path d="M20 99.6856C21.0968 99.8807 22.2171 99.9999 23.3846 99.9999L72.5621 99.9999C82.5037 99.9999 90.5938 92.5643 90.5938 83.427L90.5938 34.8031L20 99.6856L20 99.6856Z" id="Shape" fill="#525252" fill-opacity="0.69803923" fill-rule="evenodd" stroke="none" />
      <path d="M89.3126 17.3533C86.1874 12.4107 80.4323 9.03976 73.7692 9.03976L71.9649 9.03976C71.1629 3.94541 66.4221 0 60.6552 0L37.7058 0C31.9389 0 27.1981 3.94541 26.3961 9.03976L24.5918 9.03976C14.6502 9.03976 6.56006 16.4753 6.56006 25.6127L6.56006 82.8645C6.56006 85.8886 7.5153 88.6851 9.04841 91.1238L89.3126 17.3533L89.3126 17.3533ZM34.0601 11.4504C34.0601 10.6158 34.7912 9.94374 35.6993 9.94374L58.6488 9.94374C59.5568 9.94374 60.288 10.6158 60.288 11.4504L60.288 17.4769C60.288 18.3115 59.5568 18.9835 58.6488 18.9835L35.6993 18.9835C34.7912 18.9835 34.0601 18.3115 34.0601 17.4769L34.0601 11.4504L34.0601 11.4504Z" id="Shape" fill="#525252" fill-opacity="0.69803923" fill-rule="evenodd" stroke="none" />
      <path d="M4.92069 99.3647C3.65882 99.3647 2.39696 98.9203 1.44171 98.0424C-0.480571 96.2756 -0.480571 93.4141 1.44171 91.6474L91.6003 8.78288C93.5226 7.01611 96.636 7.01611 98.5583 8.78288C100.481 10.5496 100.481 13.4111 98.5583 15.1779L8.39967 98.0424C7.44442 98.9203 6.18256 99.3647 4.92069 99.3647L4.92069 99.3647Z" id="Shape" fill="#35E6B5" fill-rule="evenodd" stroke="none" />
    </g>
  </g>
</svg>