<?xml version="1.0" encoding="utf-8"?>
<svg width="100px" height="100px" viewBox="0 0 100 100" version="1.1" xmlns:xlink="http://www.w3.org/1999/xlink" xmlns="http://www.w3.org/2000/svg">
  <g id="Group-1442">
    <path d="M78.8454 9.09091L76.7286 9.09091C75.7878 3.96774 70.2262 0 63.4609 0L36.5381 0C29.7728 0 24.2112 3.96774 23.2704 9.09091L21.1536 9.09091C9.49077 9.09091 0 16.5686 0 25.7576L0 83.3333C0 92.5223 9.49077 100 21.1536 100L78.8454 100C90.5082 100 99.999 92.5223 99.999 83.3333L99.999 25.7576C99.999 16.5686 90.5082 9.09091 78.8454 9.09091L78.8454 9.09091ZM32.4997 11.5152C32.4997 10.6758 33.3574 10 34.4227 10L61.3455 10C62.4108 10 63.2686 10.6758 63.2686 11.5152L63.2686 17.5758C63.2686 18.4151 62.4108 19.0909 61.3455 19.0909L34.4227 19.0909C33.3574 19.0909 32.4997 18.4151 32.4997 17.5758L32.4997 11.5152L32.4997 11.5152ZM75.2001 44.7751L46.3542 75.0782C45.3028 76.1791 43.6979 76.844 41.9547 76.8876C41.8855 76.8876 41.8025 76.8876 41.7333 76.8876C40.0731 76.8876 38.4821 76.3208 37.3892 75.3398L23.9278 63.2186C21.8249 61.3328 22.0739 58.466 24.4812 56.8091C26.8884 55.1523 30.5132 55.3376 32.6161 57.2343L41.4013 65.137L65.9722 39.314C67.8814 37.3084 71.5062 36.9051 74.0518 38.4093C76.5974 39.9136 77.1093 42.7695 75.2001 44.7751L75.2001 44.7751Z" id="Group" fill="#525252" fill-opacity="0.69803923" fill-rule="evenodd" stroke="none" />
  </g>
</svg>