<?xml version="1.0" encoding="utf-8"?>
<svg width="100px" height="100px" viewBox="0 0 100 100" version="1.1" xmlns:xlink="http://www.w3.org/1999/xlink" xmlns="http://www.w3.org/2000/svg">
  <defs>
    <path d="M4781 4198L4781 4198L4781 4298L4681 4298L4681 4198L4781 4198Z" id="path_1" />
    <clipPath id="clip_1">
      <use xlink:href="#path_1" clip-rule="evenodd" fill-rule="evenodd" />
    </clipPath>
  </defs>
  <g id="sos">
    <path d="M4781 4198L4781 4198L4781 4298L4681 4298L4681 4198L4781 4198Z" id="sos" fill="none" stroke="none" />
    <path d="M100 88.8906C100 95.026 95.026 100 88.8906 100L11.1094 100C4.97396 100 0 95.026 0 88.8906L0 11.1094C0 4.97396 4.97396 0 11.1094 0L88.8906 0C95.026 0 100 4.97396 100 11.1094L100 88.8906Z" id="Shape" fill="#525252" fill-opacity="0.69803923" stroke="none" clip-path="url(#clip_1)" />
    <path d="M100 88.8906C100 95.026 95.026 100 88.8906 100L11.1094 100C4.97396 100 0 95.026 0 88.8906L0 11.1094C0 4.97396 4.97396 0 11.1094 0L88.8906 0C95.026 0 100 4.97396 100 11.1094L100 88.8906Z" id="Shape" fill="#525252" fill-opacity="0.69803923" stroke="none" clip-path="url(#clip_1)" />
    <path d="M27.1147 34.7709C27.1147 36.9376 25.672 38.8855 23.3959 38.8855C21.1147 38.8855 19.3386 37.2188 16.0053 37.2188C13.6147 37.2188 11.4428 38.4949 11.4428 40.8282C11.4428 46.5522 30.0053 42.8855 30.0053 57.2188C30.0053 65.1667 23.448 70.1147 15.7813 70.1147C11.5001 70.1147 2.27612 69.1147 2.27612 63.8907C2.27612 61.724 3.72404 59.9428 6.00008 59.9428C8.60946 59.9428 11.724 62.1095 15.3386 62.1095C19.0053 62.1095 21.0053 60.0574 21.0053 57.3282C21.0053 50.7761 2.44279 54.7188 2.44279 41.8282C2.44279 34.047 8.83862 29.2136 16.224 29.2136C19.3386 29.2136 27.1147 30.3803 27.1147 34.7709L27.1147 34.7709ZM30.8907 49.6615C30.8907 38.1042 38.672 29.2136 50.0053 29.2136C61.172 29.2136 69.1199 38.3803 69.1199 49.6615C69.1199 61.1668 61.3959 70.1095 50.0053 70.1095C38.7241 70.1095 30.8907 61.1668 30.8907 49.6615L30.8907 49.6615ZM60.4527 49.6615C60.4527 42.9375 56.9475 36.8802 50.0048 36.8802C43.0569 36.8802 39.5569 42.9375 39.5569 49.6615C39.5569 56.4427 42.9475 62.4427 50.0048 62.4427C57.0621 62.4427 60.4527 56.4427 60.4527 49.6615L60.4527 49.6615ZM94.8436 34.7709C94.8436 36.9376 93.3957 38.8855 91.1145 38.8855C88.8332 38.8855 87.0624 37.2188 83.7238 37.2188C81.3384 37.2188 79.1665 38.4949 79.1665 40.8282C79.1665 46.5522 97.729 42.8855 97.729 57.2188C97.729 65.1667 91.177 70.1147 83.5051 70.1147C79.229 70.1147 69.9999 69.1147 69.9999 63.8907C69.9999 61.724 71.4478 59.9428 73.729 59.9428C76.3384 59.9428 79.453 62.1095 83.0572 62.1095C86.7238 62.1095 88.729 60.0574 88.729 57.3282C88.729 50.7761 70.1665 54.7188 70.1665 41.8282C70.1665 34.047 76.5572 29.2136 83.9478 29.2136C87.0624 29.2136 94.8436 30.3803 94.8436 34.7709L94.8436 34.7709Z" id="Shape" fill="#FFFFFF" fill-rule="evenodd" stroke="none" clip-path="url(#clip_1)" />
    <path d="M27.1147 34.7709C27.1147 36.9376 25.672 38.8855 23.3959 38.8855C21.1147 38.8855 19.3386 37.2188 16.0053 37.2188C13.6147 37.2188 11.4428 38.4949 11.4428 40.8282C11.4428 46.5522 30.0053 42.8855 30.0053 57.2188C30.0053 65.1667 23.448 70.1147 15.7813 70.1147C11.5001 70.1147 2.27612 69.1147 2.27612 63.8907C2.27612 61.724 3.72404 59.9428 6.00008 59.9428C8.60946 59.9428 11.724 62.1095 15.3386 62.1095C19.0053 62.1095 21.0053 60.0574 21.0053 57.3282C21.0053 50.7761 2.44279 54.7188 2.44279 41.8282C2.44279 34.047 8.83862 29.2136 16.224 29.2136C19.3386 29.2136 27.1147 30.3803 27.1147 34.7709L27.1147 34.7709ZM30.8907 49.6615C30.8907 38.1042 38.672 29.2136 50.0053 29.2136C61.172 29.2136 69.1199 38.3803 69.1199 49.6615C69.1199 61.1668 61.3959 70.1095 50.0053 70.1095C38.7241 70.1095 30.8907 61.1668 30.8907 49.6615L30.8907 49.6615ZM60.4527 49.6615C60.4527 42.9375 56.9475 36.8802 50.0048 36.8802C43.0569 36.8802 39.5569 42.9375 39.5569 49.6615C39.5569 56.4427 42.9475 62.4427 50.0048 62.4427C57.0621 62.4427 60.4527 56.4427 60.4527 49.6615L60.4527 49.6615ZM94.8436 34.7709C94.8436 36.9376 93.3957 38.8855 91.1145 38.8855C88.8332 38.8855 87.0624 37.2188 83.7238 37.2188C81.3384 37.2188 79.1665 38.4949 79.1665 40.8282C79.1665 46.5522 97.729 42.8855 97.729 57.2188C97.729 65.1667 91.177 70.1147 83.5051 70.1147C79.229 70.1147 69.9999 69.1147 69.9999 63.8907C69.9999 61.724 71.4478 59.9428 73.729 59.9428C76.3384 59.9428 79.453 62.1095 83.0572 62.1095C86.7238 62.1095 88.729 60.0574 88.729 57.3282C88.729 50.7761 70.1665 54.7188 70.1665 41.8282C70.1665 34.047 76.5572 29.2136 83.9478 29.2136C87.0624 29.2136 94.8436 30.3803 94.8436 34.7709L94.8436 34.7709Z" id="Shape" fill="#FFFFFF" fill-rule="evenodd" stroke="none" clip-path="url(#clip_1)" />
  </g>
</svg>