<?xml version="1.0" encoding="utf-8"?>
<svg width="100px" height="100px" viewBox="0 0 100 100" version="1.1" xmlns:xlink="http://www.w3.org/1999/xlink" xmlns="http://www.w3.org/2000/svg">
  <defs>
    <path d="M100 0L100 0L100 100L0 100L0 0L100 0Z" id="path_1" />
    <clipPath id="clip_1">
      <use xlink:href="#path_1" clip-rule="evenodd" fill-rule="evenodd" />
    </clipPath>
  </defs>
  <g id="sos">
    <path d="M100 0L100 0L100 100L0 100L0 0L100 0Z" id="sos" fill="none" stroke="none" />
    <path d="M100 88.8906C100 95.026 95.026 100 88.8906 100L11.1094 100C4.97396 100 0 95.026 0 88.8906L0 11.1094C0 4.97396 4.97396 0 11.1094 0L88.8906 0C95.026 0 100 4.97396 100 11.1094L100 88.8906Z" id="Shape" fill="#525252" fill-opacity="0.69803923" stroke="none" clip-path="url(#clip_1)" />
    <path d="M100 88.8906C100 95.026 95.026 100 88.8906 100L11.1094 100C4.97396 100 0 95.026 0 88.8906L0 11.1094C0 4.97396 4.97396 0 11.1094 0L88.8906 0C95.026 0 100 4.97396 100 11.1094L100 88.8906Z" id="Shape" fill="#525252" fill-opacity="0.69803923" stroke="none" clip-path="url(#clip_1)" />
    <path d="M27.1144 34.7712C27.1144 36.9378 25.6717 38.8857 23.3957 38.8857C21.1144 38.8857 19.3384 37.2191 16.005 37.2191C13.6144 37.2191 11.4425 38.4951 11.4425 40.8285C11.4425 46.5524 30.005 42.8857 30.005 57.2191C30.005 65.167 23.4478 70.1149 15.7811 70.1149C11.4998 70.1149 2.27588 69.1149 2.27588 63.891C2.27588 61.7243 3.7238 59.943 5.99984 59.943C8.60921 59.943 11.7238 62.1097 15.3384 62.1097C19.005 62.1097 21.005 60.0576 21.005 57.3285C21.005 50.7764 2.44255 54.7191 2.44255 41.8285C2.44255 34.0472 8.83838 29.2139 16.2238 29.2139C19.3384 29.2139 27.1144 30.3805 27.1144 34.7712L27.1144 34.7712ZM30.8905 49.6618C30.8905 38.1045 38.6717 29.2139 50.0051 29.2139C61.1717 29.2139 69.1197 38.3805 69.1197 49.6618C69.1197 61.167 61.3957 70.1097 50.0051 70.1097C38.7238 70.1097 30.8905 61.167 30.8905 49.6618L30.8905 49.6618ZM60.4524 49.6617C60.4524 42.9378 56.9472 36.8805 50.0045 36.8805C43.0566 36.8805 39.5566 42.9378 39.5566 49.6617C39.5566 56.443 42.9472 62.443 50.0045 62.443C57.0618 62.443 60.4524 56.443 60.4524 49.6617L60.4524 49.6617ZM94.8434 34.7712C94.8434 36.9378 93.3955 38.8857 91.1142 38.8857C88.833 38.8857 87.0621 37.2191 83.7236 37.2191C81.3382 37.2191 79.1663 38.4951 79.1663 40.8285C79.1663 46.5524 97.7288 42.8857 97.7288 57.2191C97.7288 65.167 91.1767 70.1149 83.5048 70.1149C79.2288 70.1149 69.9996 69.1149 69.9996 63.891C69.9996 61.7243 71.4475 59.943 73.7288 59.943C76.3382 59.943 79.4528 62.1097 83.0569 62.1097C86.7236 62.1097 88.7288 60.0576 88.7288 57.3285C88.7288 50.7764 70.1663 54.7191 70.1663 41.8285C70.1663 34.0472 76.5569 29.2139 83.9475 29.2139C87.0621 29.2139 94.8434 30.3805 94.8434 34.7712L94.8434 34.7712Z" id="Shape" fill="#FFFFFF" fill-rule="evenodd" stroke="none" clip-path="url(#clip_1)" />
    <path d="M27.1144 34.7712C27.1144 36.9378 25.6717 38.8857 23.3957 38.8857C21.1144 38.8857 19.3384 37.2191 16.005 37.2191C13.6144 37.2191 11.4425 38.4951 11.4425 40.8285C11.4425 46.5524 30.005 42.8857 30.005 57.2191C30.005 65.167 23.4478 70.1149 15.7811 70.1149C11.4998 70.1149 2.27588 69.1149 2.27588 63.891C2.27588 61.7243 3.7238 59.943 5.99984 59.943C8.60921 59.943 11.7238 62.1097 15.3384 62.1097C19.005 62.1097 21.005 60.0576 21.005 57.3285C21.005 50.7764 2.44255 54.7191 2.44255 41.8285C2.44255 34.0472 8.83838 29.2139 16.2238 29.2139C19.3384 29.2139 27.1144 30.3805 27.1144 34.7712L27.1144 34.7712ZM30.8905 49.6618C30.8905 38.1045 38.6717 29.2139 50.0051 29.2139C61.1717 29.2139 69.1197 38.3805 69.1197 49.6618C69.1197 61.167 61.3957 70.1097 50.0051 70.1097C38.7238 70.1097 30.8905 61.167 30.8905 49.6618L30.8905 49.6618ZM60.4524 49.6617C60.4524 42.9378 56.9472 36.8805 50.0045 36.8805C43.0566 36.8805 39.5566 42.9378 39.5566 49.6617C39.5566 56.443 42.9472 62.443 50.0045 62.443C57.0618 62.443 60.4524 56.443 60.4524 49.6617L60.4524 49.6617ZM94.8434 34.7712C94.8434 36.9378 93.3955 38.8857 91.1142 38.8857C88.833 38.8857 87.0621 37.2191 83.7236 37.2191C81.3382 37.2191 79.1663 38.4951 79.1663 40.8285C79.1663 46.5524 97.7288 42.8857 97.7288 57.2191C97.7288 65.167 91.1767 70.1149 83.5048 70.1149C79.2288 70.1149 69.9996 69.1149 69.9996 63.891C69.9996 61.7243 71.4475 59.943 73.7288 59.943C76.3382 59.943 79.4528 62.1097 83.0569 62.1097C86.7236 62.1097 88.7288 60.0576 88.7288 57.3285C88.7288 50.7764 70.1663 54.7191 70.1663 41.8285C70.1663 34.0472 76.5569 29.2139 83.9475 29.2139C87.0621 29.2139 94.8434 30.3805 94.8434 34.7712L94.8434 34.7712Z" id="Shape" fill="#FFFFFF" fill-rule="evenodd" stroke="none" clip-path="url(#clip_1)" />
  </g>
</svg>