<?xml version="1.0" encoding="utf-8"?>
<svg width="100px" height="100px" viewBox="0 0 100 100" version="1.1" xmlns:xlink="http://www.w3.org/1999/xlink" xmlns="http://www.w3.org/2000/svg">
  <g id="Group">
    <path d="M100 88.8906C100 95.026 95.026 100 88.8906 100L11.1094 100C4.97396 100 0 95.026 0 88.8906L0 11.1094C0 4.97396 4.97396 0 11.1094 0L88.8906 0C95.026 0 100 4.97396 100 11.1094L100 88.8906Z" id="Shape" fill="#525252" fill-opacity="0.69803923" stroke="none" />
    <path d="M27.1144 34.7712C27.1144 36.9378 25.6717 38.8857 23.3957 38.8857C21.1144 38.8857 19.3384 37.2191 16.005 37.2191C13.6144 37.2191 11.4425 38.4951 11.4425 40.8285C11.4425 46.5524 30.005 42.8857 30.005 57.2191C30.005 65.167 23.4478 70.1149 15.7811 70.1149C11.4998 70.1149 2.27588 69.1149 2.27588 63.891C2.27588 61.7243 3.7238 59.943 5.99984 59.943C8.60921 59.943 11.7238 62.1097 15.3384 62.1097C19.005 62.1097 21.005 60.0576 21.005 57.3285C21.005 50.7764 2.44255 54.7191 2.44255 41.8285C2.44255 34.0472 8.83838 29.2139 16.2238 29.2139C19.3384 29.2139 27.1144 30.3805 27.1144 34.7712L27.1144 34.7712ZM30.8906 49.6618C30.8906 38.1045 38.6719 29.2139 50.0052 29.2139C61.1719 29.2139 69.1198 38.3805 69.1198 49.6618C69.1198 61.167 61.3958 70.1097 50.0052 70.1097C38.724 70.1097 30.8906 61.167 30.8906 49.6618L30.8906 49.6618ZM60.4525 49.6616C60.4525 42.9377 56.9473 36.8804 50.0046 36.8804C43.0566 36.8804 39.5566 42.9377 39.5566 49.6616C39.5566 56.4429 42.9473 62.4429 50.0046 62.4429C57.0618 62.4429 60.4525 56.4429 60.4525 49.6616L60.4525 49.6616ZM94.8433 34.7712C94.8433 36.9378 93.3954 38.8857 91.1141 38.8857C88.8329 38.8857 87.062 37.2191 83.7235 37.2191C81.3381 37.2191 79.1662 38.4951 79.1662 40.8285C79.1662 46.5524 97.7287 42.8857 97.7287 57.2191C97.7287 65.167 91.1766 70.1149 83.5047 70.1149C79.2287 70.1149 69.9995 69.1149 69.9995 63.891C69.9995 61.7243 71.4474 59.943 73.7287 59.943C76.3381 59.943 79.4526 62.1097 83.0568 62.1097C86.7235 62.1097 88.7287 60.0576 88.7287 57.3285C88.7287 50.7764 70.1662 54.7191 70.1662 41.8285C70.1662 34.0472 76.5568 29.2139 83.9474 29.2139C87.062 29.2139 94.8433 30.3805 94.8433 34.7712L94.8433 34.7712Z" id="Shape" fill="#FFFFFF" fill-rule="evenodd" stroke="none" />
  </g>
</svg>