<?xml version="1.0" encoding="utf-8"?>
<svg width="100px" height="100px" viewBox="0 0 100 100" version="1.1" xmlns:xlink="http://www.w3.org/1999/xlink" xmlns="http://www.w3.org/2000/svg">
  <defs>
    <path d="M99.771 37.708C99.2202 35.9282 97.7476 34.6313 95.9941 34.3604L67.1147 29.9634L54.21 2.51953C52.6362 -0.839844 47.375 -0.839844 45.8013 2.51953L32.8853 29.9634L4.00586 34.3604C2.24121 34.6313 0.779785 35.9282 0.229004 37.6963C-0.321777 39.4766 0.13916 41.4331 1.42041 42.7417L22.3071 64.0908L17.3721 94.2573C17.0684 96.1079 17.7881 97.9707 19.2383 99.0669C20.6768 100.163 22.5991 100.305 24.1729 99.4321L49.9941 85.1919L75.8271 99.4321C76.5127 99.8096 77.2549 99.998 78.0078 99.998C78.9746 99.998 79.9414 99.6797 80.7617 99.0669C82.2007 97.9707 82.9316 96.1079 82.6279 94.2573L77.6929 64.0908L98.5796 42.7417C99.8608 41.4331 100.322 39.4766 99.771 37.6963L99.771 37.708Z" id="path_1" />
    <clipPath id="clip_1">
      <use xlink:href="#path_1" />
    </clipPath>
  </defs>
  <g id="Group-1464">
    <use stroke="none" fill="#FFC443" xlink:href="#path_1" fill-rule="evenodd" />
    <g clip-path="url(#clip_1)">
      <use xlink:href="#path_1" fill="none" stroke="#FFC443" stroke-width="2" />
    </g>
  </g>
</svg>