<?xml version="1.0" encoding="utf-8"?>
<svg width="100px" height="100px" viewBox="0 0 100 100" version="1.1" xmlns:xlink="http://www.w3.org/1999/xlink" xmlns="http://www.w3.org/2000/svg">
  <defs>
    <path d="M92 0C96.4189 0 100 3.58112 100 8L100 92C100 96.4189 96.4189 100 92 100L8 100C3.58112 100 0 96.4189 0 92L0 8C0 3.58112 3.58112 0 8 0L92 0Z" id="path_1" />
    <clipPath id="clip_1">
      <use xlink:href="#path_1" />
    </clipPath>
  </defs>
  <g id="Group-2">
    <g id="Rectangle-37">
      <use stroke="none" fill="#525252" fill-opacity="0.69803923" xlink:href="#path_1" />
      <g clip-path="url(#clip_1)">
        <use xlink:href="#path_1" fill="none" stroke="#CAC2B7" stroke-width="2" />
      </g>
    </g>
    <path d="M71.9169 20.8398L28.1363 20.8398C21.8144 20.8398 16.6699 25.9848 16.6699 32.3073L16.6699 67.7523C16.6699 74.0749 21.8144 79.2198 28.1363 79.2198L71.9169 79.2198C78.2388 79.2198 83.3832 74.0749 83.3832 67.7523L83.3832 32.3073C83.3832 25.9848 78.2388 20.8398 71.9169 20.8398L71.9169 20.8398ZM40.6449 31.2646C42.3697 31.2646 43.7721 32.6671 43.7721 34.3922C43.7721 36.1171 42.3697 37.5196 40.6449 37.5196C38.9201 37.5196 37.5177 36.1171 37.5177 34.3922C37.5177 32.6671 38.9201 31.2646 40.6449 31.2646L40.6449 31.2646ZM27.0941 34.3922C27.0941 32.6671 28.4965 31.2646 30.2213 31.2646C31.9461 31.2646 33.3485 32.6671 33.3485 34.3922C33.3485 36.1171 31.9461 37.5196 30.2213 37.5196C28.4965 37.5196 27.0941 36.1171 27.0941 34.3922L27.0941 34.3922ZM70.5446 37.8727L61.1631 56.6377C60.6531 57.6577 59.6257 58.3177 58.4858 58.3627C57.331 58.4152 56.2736 57.8227 55.6811 56.8477L52.179 51.0052L46.4945 60.9577C45.9771 61.8577 45.0547 62.4427 44.0198 62.5252C42.9924 62.6002 41.98 62.1727 41.3351 61.3627L39.4977 59.0677L34.6607 64.5952C34.0458 65.3002 33.1759 65.6602 32.306 65.6602C31.5785 65.6602 30.8436 65.4052 30.2512 64.8802C28.9538 63.7402 28.8188 61.7677 29.9512 60.4702L37.248 52.1302C37.8554 51.4327 38.7328 51.0877 39.6702 51.0652C40.5926 51.0877 41.4625 51.5152 42.0475 52.2352L43.3449 53.8552L49.3968 43.2577C49.9442 42.2977 50.9716 41.6977 52.0815 41.6827C53.1014 41.6827 54.2263 42.2527 54.7962 43.1977L58.1184 48.7402L64.9502 35.0677C65.7226 33.5227 67.6049 32.9002 69.1498 33.6727C70.6946 34.4452 71.3246 36.3277 70.5446 37.8652L70.5446 37.8727Z" id="Group" fill="#48F5F9" fill-rule="evenodd" stroke="none" />
  </g>
</svg>