<?xml version="1.0" encoding="utf-8"?>
<svg width="100px" height="100px" viewBox="0 0 100 100" version="1.1" xmlns:xlink="http://www.w3.org/1999/xlink" xmlns="http://www.w3.org/2000/svg">
  <defs>
    <path d="M92 0C96.4189 0 100 3.58112 100 8L100 92C100 96.4189 96.4189 100 92 100L8 100C3.58112 100 0 96.4189 0 92L0 8C0 3.58112 3.58112 0 8 0L92 0Z" id="path_1" />
    <clipPath id="clip_1">
      <use xlink:href="#path_1" />
    </clipPath>
  </defs>
  <g id="Group-1450">
    <g id="Rectangle-37">
      <use stroke="none" fill="#525252" xlink:href="#path_1" />
      <g clip-path="url(#clip_1)">
        <use xlink:href="#path_1" fill="none" stroke="#CAC2B7" stroke-width="2" />
      </g>
    </g>
    <path d="M70.247 20L26.4664 20C20.1445 20 15 25.145 15 31.4675L15 66.9125C15 73.235 20.1445 78.38 26.4664 78.38L70.247 78.38C76.5688 78.38 81.7133 73.235 81.7133 66.9125L81.7133 31.4675C81.7133 25.145 76.5688 20 70.247 20L70.247 20ZM38.975 30.4248C40.6998 30.4248 42.1021 31.8273 42.1021 33.5523C42.1021 35.2773 40.6998 36.6798 38.975 36.6798C37.2501 36.6798 35.8478 35.2773 35.8478 33.5523C35.8478 31.8273 37.2501 30.4248 38.975 30.4248L38.975 30.4248ZM25.4242 33.5523C25.4242 31.8273 26.8266 30.4248 28.5514 30.4248C30.2762 30.4248 31.6786 31.8273 31.6786 33.5523C31.6786 35.2773 30.2762 36.6798 28.5514 36.6798C26.8266 36.6798 25.4242 35.2773 25.4242 33.5523L25.4242 33.5523ZM68.8747 37.0329L59.4932 55.7979C58.9832 56.8179 57.9558 57.4779 56.8159 57.5229C55.661 57.5754 54.6036 56.9829 54.0112 56.0079L50.5091 50.1654L44.8246 60.1179C44.3072 61.0179 43.3848 61.6029 42.3499 61.6854C41.3225 61.7604 40.3101 61.3329 39.6651 60.5229L37.8278 58.2279L32.9908 63.7554C32.3759 64.4604 31.506 64.8204 30.636 64.8204C29.9086 64.8204 29.1737 64.5654 28.5813 64.0404C27.2839 62.9004 27.1489 60.9279 28.2813 59.6304L35.578 51.2904C36.1855 50.5929 37.0629 50.2479 38.0003 50.2254C38.9227 50.2479 39.7926 50.6754 40.3776 51.3954L41.6749 53.0154L47.7268 42.4179C48.2743 41.4579 49.3017 40.8579 50.4116 40.8429C51.4315 40.8429 52.5563 41.4129 53.1263 42.3579L56.4485 47.9004L63.2803 34.2279C64.0527 32.6829 65.935 32.0604 67.4798 32.8329C69.0247 33.6054 69.6546 35.4879 68.8747 37.0254L68.8747 37.0329Z" id="Group" fill="#CAC2B7" fill-rule="evenodd" stroke="none" />
  </g>
</svg>