<?xml version="1.0" encoding="utf-8"?>
<svg width="100px" height="100px" viewBox="0 0 100 100" version="1.1" xmlns:xlink="http://www.w3.org/1999/xlink" xmlns="http://www.w3.org/2000/svg">
  <g id="Group-2">
    <path d="M82.8125 0L17.1875 0C7.71133 0 0 8.81295 0 19.6429L0 80.3572C0 91.1871 7.71133 100 17.1875 100L82.8125 100C92.2887 100 100 91.1871 100 80.3572L100 19.6429C100 8.81295 92.2887 0 82.8125 0L82.8125 0ZM35.9375 17.8571C38.5229 17.8571 40.625 20.2595 40.625 23.2143C40.625 26.1691 38.5229 28.5714 35.9375 28.5714C33.3521 28.5714 31.25 26.1691 31.25 23.2143C31.25 20.2595 33.3521 17.8571 35.9375 17.8571L35.9375 17.8571ZM15.625 23.2143C15.625 20.2595 17.7271 17.8571 20.3125 17.8571C22.8979 17.8571 25 20.2595 25 23.2143C25 26.1691 22.8979 28.5714 20.3125 28.5714C17.7271 28.5714 15.625 26.1691 15.625 23.2143L15.625 23.2143ZM80.7554 29.1752L66.6929 61.3181C65.9285 63.0653 64.3885 64.1958 62.6798 64.2729C60.9487 64.3628 59.3637 63.3479 58.4757 61.6778L53.2262 51.6701L44.7055 68.7179C43.9298 70.2595 42.5472 71.2616 40.9959 71.4029C39.4559 71.5314 37.9384 70.7991 36.9717 69.4116L34.2176 65.4805L26.9672 74.9486C26.0454 76.1562 24.7414 76.7729 23.4375 76.7729C22.3471 76.7729 21.2455 76.3361 20.3575 75.4368C18.4128 73.4841 18.2104 70.1053 19.9078 67.8828L30.8453 53.5971C31.7558 52.4024 33.071 51.8114 34.4762 51.7729C35.8588 51.8114 37.1628 52.5437 38.0396 53.777L39.9842 56.5519L49.0557 38.3993C49.8763 36.7549 51.4164 35.7271 53.08 35.7014C54.6088 35.7014 56.2949 36.6778 57.1493 38.2965L62.129 47.7903L72.3696 24.3705C73.5274 21.724 76.3489 20.6578 78.6645 21.981C80.9802 23.3042 81.9244 26.5288 80.7554 29.1624L80.7554 29.1752Z" id="Group" fill="#525252" fill-opacity="0.69803923" fill-rule="evenodd" stroke="none" />
  </g>
</svg>