<?xml version="1.0" encoding="utf-8"?>
<svg width="100px" height="100px" viewBox="0 0 100 100" version="1.1" xmlns:xlink="http://www.w3.org/1999/xlink" xmlns="http://www.w3.org/2000/svg">
  <path d="M23.4321 21.876C23.4321 9.79443 35.3306 0 50.0081 0C64.6855 0 76.584 9.79443 76.584 21.876C76.584 33.958 64.6855 43.7524 50.0081 43.7524C35.3306 43.7524 23.4321 33.958 23.4321 21.876ZM1.44604 76.0439C9.96606 60.2305 29.0107 50.002 49.9958 49.9976L50.0095 49.9976C70.9944 50.002 90.0527 60.2305 98.5591 76.0439C100.498 79.6753 100.485 83.8345 98.4907 87.4546C96.4561 91.1416 92.5908 93.9634 87.8657 95.1885C75.5747 98.3813 62.8193 100 49.9958 100C37.1721 100 24.4304 98.3813 12.1394 95.1885C7.41406 93.9746 3.54932 91.1528 1.5144 87.4546C-0.479492 83.8232 -0.506836 79.6641 1.44604 76.0439Z" id="Group" fill="#525252" fill-opacity="0.69803923" fill-rule="evenodd" stroke="none" />
</svg>