<?xml version="1.0" encoding="utf-8"?>
<svg width="100px" height="100px" viewBox="0 0 100 100" version="1.1" xmlns:xlink="http://www.w3.org/1999/xlink" xmlns="http://www.w3.org/2000/svg">
  <path d="M99.4329 93.915C92.1184 80.7642 80.8455 71.334 67.6895 66.8633C74.1973 62.835 79.2529 56.6968 82.0808 49.3906C84.9089 42.085 85.3523 34.0161 83.3433 26.4229C81.3342 18.8296 76.9839 12.1318 70.9604 7.3584C64.937 2.58545 57.5732 0 50 0C42.427 0 35.0632 2.58545 29.0396 7.3584C23.0161 12.1318 18.6658 18.8296 16.657 26.4229C14.6479 34.0161 15.0916 42.085 17.9194 49.3906C20.7473 56.6968 25.803 62.835 32.3105 66.8633C19.1548 71.3291 7.88184 80.7593 0.566895 93.915C0.298584 94.3701 0.120605 94.8765 0.043457 95.4038C-0.0334473 95.9312 -0.00830078 96.4697 0.11792 96.9868C0.244141 97.5034 0.46875 97.9893 0.77832 98.415C1.08789 98.8403 1.47632 99.1973 1.92065 99.4644C2.36499 99.731 2.8562 99.9028 3.36523 99.9692C3.87427 100.036 4.39111 99.9946 4.88501 99.8501C5.37891 99.7056 5.83984 99.459 6.24072 99.1265C6.6416 98.793 6.97437 98.3799 7.21924 97.9111C16.2681 81.6479 32.2625 71.9385 50 71.9385C67.7378 71.9385 83.7322 81.6479 92.7808 97.9111C93.0259 98.3799 93.3584 98.793 93.7593 99.1265C94.1602 99.459 94.6213 99.7056 95.1152 99.8501C95.6089 99.9946 96.126 100.036 96.635 99.9692C97.1438 99.9028 97.635 99.731 98.0798 99.4644C98.5237 99.1973 98.9126 98.8403 99.2219 98.415C99.5313 97.9893 99.7563 97.5034 99.8821 96.9868C100.008 96.4697 100.033 95.9312 99.9565 95.4038C99.8792 94.8765 99.7014 94.3701 99.4329 93.915L99.4329 93.915ZM23.1057 35.9756C23.1057 30.4434 24.6831 25.0356 27.6387 20.436C30.5942 15.8359 34.7949 12.251 39.7097 10.1338C44.6245 8.01709 50.0327 7.46289 55.2502 8.54248C60.468 9.62158 65.2607 12.2856 69.022 16.1973C72.7837 20.1089 75.3455 25.0928 76.3833 30.5186C77.4209 35.9443 76.8884 41.5684 74.8523 46.6797C72.8169 51.7905 69.3694 56.1587 64.946 59.2324C60.5232 62.3057 55.3225 63.9463 50.0029 63.9463C42.8716 63.9385 36.0347 60.9888 30.9922 55.7451C25.9497 50.5015 23.1133 43.3916 23.1057 35.9756L23.1057 35.9756Z" id="Vector" fill="#CAC2B7" fill-rule="evenodd" stroke="none" />
</svg>