<?xml version="1.0" encoding="utf-8"?>
<svg width="100.000244px" height="100px" viewBox="0 0 100.000244 100" version="1.1" xmlns:xlink="http://www.w3.org/1999/xlink" xmlns="http://www.w3.org/2000/svg">
  <g id="Group-1454">
    <path d="M0 99.9996L7.06494 74.3229C2.70639 66.8091 0.414351 58.2824 0.416973 49.5494C0.430086 22.2279 22.7631 0 50.2099 0C63.5294 0.00522112 76.0281 5.16668 85.4297 14.5314C94.8286 23.8988 100.005 36.3469 100 49.5886C99.9897 76.9101 77.6514 99.1407 50.2099 99.1407C50.2072 99.1407 50.2099 99.1407 50.2099 99.1407L50.1889 99.1407C41.8573 99.1381 33.6673 97.0573 26.3952 93.1072L0 99.9996L0 99.9996Z" id="Shape" fill="#FFFFFF" stroke="none" />
    <path d="M79.9843 21.0285C72.1693 13.2432 61.7817 8.95376 50.7253 8.95115C27.8993 8.95115 9.33484 27.4248 9.32435 50.1331C9.32173 57.9158 11.5089 65.4922 15.6524 72.053L16.6384 73.6116L12.4556 88.8088L28.1196 84.7204L29.6328 85.6132C35.9844 89.3675 43.2696 91.3517 50.6965 91.3543L50.7122 91.3543C73.5225 91.3543 92.087 72.878 92.0948 50.1671C92.0975 39.1628 87.7992 28.8137 79.9843 21.0285L79.9843 21.0285Z" id="Shape-2" fill="#40C351" stroke="none" />
    <path d="M36.1689 29.023C35.2379 26.9605 34.2571 26.9188 33.3681 26.8822C32.6416 26.8509 31.8129 26.8535 30.9842 26.8535C30.1555 26.8535 28.8076 27.1642 27.6668 28.4043C26.526 29.6444 23.3109 32.6389 23.3109 38.7324C23.3109 44.8259 27.7691 50.7158 28.3906 51.5408C29.0121 52.3657 36.9976 65.2707 49.6431 70.2363C60.1514 74.3613 62.2913 73.5415 64.5729 73.3353C66.8544 73.129 71.9342 70.3408 72.97 67.448C74.0059 64.5553 74.0059 62.0777 73.6964 61.5608C73.3844 61.0439 72.5557 60.7358 71.3126 60.1144C70.0696 59.4931 63.9513 56.4986 62.8106 56.0861C61.6698 55.6736 60.8411 55.4673 60.0098 56.7074C59.1811 57.9449 56.7972 60.7358 56.0708 61.5608C55.3444 62.3884 54.618 62.4928 53.3749 61.8715C52.1318 61.2501 48.1247 59.9447 43.3702 55.7258C39.6725 52.4441 37.1759 48.3896 36.4495 47.1495C35.723 45.912 36.3708 45.241 36.9949 44.6222C37.5535 44.0662 38.238 43.1759 38.8621 42.4527C39.4837 41.7295 39.6908 41.2126 40.1052 40.3876C40.5195 39.56 40.3124 38.8368 40.0003 38.2181C39.6935 37.5967 37.2755 31.4719 36.1689 29.023L36.1689 29.023Z" id="Shape-3" fill="#FFFFFF" fill-rule="evenodd" stroke="none" />
  </g>
</svg>