<?xml version="1.0" encoding="UTF-8"?>
<svg id="Capa_1" data-name="Capa 1" xmlns="http://www.w3.org/2000/svg" viewBox="0 0 1988 1080">
  <defs>
    <style>
      .cls-1, .cls-2, .cls-3, .cls-4 {
        stroke-width: 0px;
      }

      .cls-2 {
        fill: #fcc343;
        opacity: .4;
      }

      .cls-5 {
        fill: none;
        stroke: #f1883d;
        stroke-miterlimit: 10;
      }

      .cls-3 {
        fill: #cac2b7;
      }

      .cls-4 {
        fill: #f1883d;
      }
    </style>
  </defs>
  <g>
    <path class="cls-4" d="m243.75,282.98c2,0,3.7.67,5.1,2,1.4,1.33,2.1,2.97,2.1,4.9s-.7,3.57-2.1,4.9c-1.4,1.33-3.1,2-5.1,2s-3.6-.67-5-2c-1.4-1.33-2.1-2.97-2.1-4.9s.7-3.57,2.1-4.9c1.4-1.33,3.07-2,5-2Zm-6,68.9l.9-47h10.3l.9,47h-12.1Z"/>
    <path class="cls-4" d="m273.7,272.33c6.9-6.9,15.25-10.35,25.05-10.35s18.15,3.45,25.05,10.35c6.9,6.9,10.35,15.25,10.35,25.05s-3.45,18.15-10.35,25.05c-6.9,6.9-15.25,10.35-25.05,10.35s-18.15-3.45-25.05-10.35c-6.9-6.9-10.35-15.25-10.35-25.05s3.45-18.15,10.35-25.05Zm25.05,49.25c6.6,0,12.13-2.35,16.6-7.05,4.47-4.7,6.7-10.42,6.7-17.15s-2.23-12.45-6.7-17.15c-4.47-4.7-10-7.05-16.6-7.05s-12.03,2.35-16.5,7.05c-4.47,4.7-6.7,10.42-6.7,17.15s2.23,12.45,6.7,17.15c4.47,4.7,9.97,7.05,16.5,7.05Z"/>
    <path class="cls-4" d="m349.54,290.03c4.8-4.7,10.8-7.05,18-7.05s13.18,2.35,17.95,7.05c4.77,4.7,7.15,10.62,7.15,17.75s-2.4,13.18-7.2,17.95c-4.8,4.77-10.77,7.15-17.9,7.15s-13.2-2.38-18-7.15c-4.8-4.77-7.2-10.75-7.2-17.95s2.4-13.05,7.2-17.75Zm8.15,28.15c2.57,2.8,5.85,4.2,9.85,4.2s7.27-1.4,9.8-4.2c2.53-2.8,3.8-6.27,3.8-10.4s-1.27-7.47-3.8-10.2c-2.53-2.73-5.8-4.1-9.8-4.1s-7.37,1.37-9.9,4.1c-2.53,2.73-3.8,6.13-3.8,10.2s1.28,7.6,3.85,10.4Z"/>
    <path class="cls-4" d="m429.84,282.98c6.6,0,12.22,2.42,16.85,7.25,4.63,4.83,6.95,10.68,6.95,17.55s-2.32,12.7-6.95,17.5c-4.63,4.8-10.25,7.2-16.85,7.2-5.6,0-10.4-1.47-14.4-4.4v27h-11.6v-71h11.6v3.3c4-2.93,8.8-4.4,14.4-4.4Zm-1.7,39.5c4,0,7.33-1.45,10-4.35,2.67-2.9,4-6.35,4-10.35s-1.33-7.55-4-10.45c-2.67-2.9-6-4.35-10-4.35-5.47,0-9.7,2.2-12.7,6.6v16.3c3,4.4,7.23,6.6,12.7,6.6Z"/>
    <path class="cls-4" d="m461.14,315.38l10.6.1c.93,5.33,4.8,8,11.6,8,2.8,0,5.08-.47,6.85-1.4,1.77-.93,2.65-2.2,2.65-3.8,0-2.6-1.9-4.27-5.7-5l-10.3-1.7c-9.33-1.67-14-6.2-14-13.6,0-4.67,1.82-8.37,5.45-11.1,3.63-2.73,8.45-4.1,14.45-4.1,2.27,0,4.47.23,6.6.7,2.13.47,4.27,1.23,6.4,2.3,2.13,1.07,3.92,2.68,5.35,4.85,1.43,2.17,2.28,4.78,2.55,7.85l-10.7.1c-.2-2.27-1.23-3.98-3.1-5.15-1.87-1.17-4.23-1.75-7.1-1.75-2.67,0-4.75.48-6.25,1.45-1.5.97-2.25,2.18-2.25,3.65,0,2.8,2.23,4.6,6.7,5.4l8.8,1.4c9.4,1.67,14.1,6.23,14.1,13.7,0,4.93-1.93,8.77-5.8,11.5-3.87,2.73-8.87,4.1-15,4.1s-11.02-1.4-15.05-4.2c-4.03-2.8-6.32-7.23-6.85-13.3Z"/>
    <path class="cls-4" d="m522.44,332.28c-1.93,0-3.6-.67-5-2-1.4-1.33-2.1-2.97-2.1-4.9s.7-3.57,2.1-4.9c1.4-1.33,3.07-2,5-2s3.7.67,5.1,2c1.4,1.33,2.1,2.97,2.1,4.9s-.7,3.57-2.1,4.9c-1.4,1.33-3.1,2-5.1,2Zm5.2-21.9h-10.3l-.9-47h12.1l-.9,47Z"/>
  </g>
  <g>
    <path class="cls-1" d="m267.5,383.02l-6,34h-3.8l-16.4-25.45-4.45,25.45h-4.75l6-34h3.1l16.95,26.05,4.6-26.05h4.75Z"/>
    <path class="cls-1" d="m295.8,393.67l-4.15,23.35h-4.55l.4-2.35c-2.6,2.07-5.43,3.1-8.5,3.1s-5.25-.99-6.75-2.98c-1.5-1.98-1.97-4.64-1.4-7.98l2.3-13.15h4.6l-2.25,12.9c-.4,2.23-.13,3.96.8,5.18.93,1.22,2.38,1.82,4.35,1.82,2.67,0,5.25-1.3,7.75-3.9l2.8-16h4.6Z"/>
    <path class="cls-1" d="m314.7,393.07c3.37,0,5.92,1.12,7.65,3.35,1.73,2.23,2.33,5.13,1.8,8.7-.13.77-.3,1.43-.5,2l-.1-.05v.05h-18.75c0,1.9.57,3.46,1.72,4.67,1.15,1.22,2.76,1.83,4.83,1.83,2.83,0,4.85-.93,6.05-2.8h5.1c-1,2.07-2.56,3.72-4.67,4.95-2.12,1.23-4.52,1.85-7.23,1.85-3.57,0-6.31-1.18-8.23-3.55-1.92-2.37-2.57-5.27-1.98-8.7.6-3.5,2.26-6.43,4.98-8.77,2.72-2.35,5.83-3.53,9.33-3.53Zm-.6,3.85c-2.1,0-3.91.63-5.42,1.9-1.52,1.27-2.61,2.88-3.28,4.85h14.4c.23-2.1-.17-3.75-1.2-4.95-1.03-1.2-2.53-1.8-4.5-1.8Z"/>
    <path class="cls-1" d="m327.94,409.42l4.3.05c0,3.03,1.97,4.55,5.9,4.55,1.83,0,3.32-.34,4.45-1.02,1.13-.68,1.7-1.59,1.7-2.73,0-1.47-.98-2.37-2.95-2.7l-5.05-.9c-3.93-.67-5.9-2.5-5.9-5.5,0-2.47,1.02-4.45,3.08-5.95,2.05-1.5,4.67-2.25,7.88-2.25,1.2,0,2.32.12,3.38.38,1.05.25,2.03.65,2.95,1.2.92.55,1.62,1.34,2.1,2.38.48,1.03.66,2.25.52,3.65l-4.3.05c.13-1.33-.27-2.34-1.23-3.02-.95-.68-2.29-1.03-4.02-1.03s-3.11.33-4.12,1c-1.02.67-1.52,1.52-1.52,2.55,0,1.47,1.13,2.4,3.4,2.8l4.4.75c3.97.7,5.95,2.57,5.95,5.6,0,2.63-1.08,4.71-3.23,6.23-2.15,1.52-4.88,2.27-8.17,2.27-2.97,0-5.34-.68-7.12-2.05-1.78-1.37-2.58-3.47-2.38-6.3Z"/>
    <path class="cls-1" d="m364.14,397.52l-1.9,10.8c-.27,1.6-.09,2.87.52,3.8.62.93,1.64,1.4,3.08,1.4,1.3,0,2.75-.22,4.35-.65l-.05,4c-2.1.6-3.88.9-5.35.9-2.57,0-4.52-.89-5.85-2.67-1.33-1.78-1.77-4.04-1.3-6.78l1.9-10.8h-5.75l.65-3.85h5.8l1.5-8.6h4.6l-1.5,8.6h8.7l-.65,3.85h-8.75Z"/>
    <path class="cls-1" d="m383.94,393.67l-.6,3.5c2.77-2.7,5.95-4.05,9.55-4.05l-.75,4.35c-3.8.1-7.03,1.63-9.7,4.6l-2.6,14.95h-4.6l4.15-23.35h4.55Z"/>
    <path class="cls-1" d="m408.49,393.07c3.1,0,5.62.98,7.55,2.93,1.93,1.95,2.9,4.44,2.9,7.48,0,3.93-1.48,7.3-4.42,10.1-2.95,2.8-6.41,4.2-10.38,4.2-3.1,0-5.62-.98-7.55-2.95-1.93-1.97-2.9-4.48-2.9-7.55,0-3.93,1.48-7.28,4.43-10.05,2.95-2.77,6.41-4.15,10.38-4.15Zm-3.6,20.5c2.53,0,4.73-.94,6.6-2.82,1.87-1.88,2.8-4.11,2.8-6.68,0-1.93-.6-3.55-1.8-4.85-1.2-1.3-2.77-1.95-4.7-1.95-2.57,0-4.78.92-6.65,2.77-1.87,1.85-2.8,4.06-2.8,6.62,0,2,.59,3.65,1.78,4.95,1.18,1.3,2.77,1.95,4.77,1.95Z"/>
    <path class="cls-1" d="m436.44,409.42l4.3.05c0,3.03,1.97,4.55,5.9,4.55,1.83,0,3.32-.34,4.45-1.02,1.13-.68,1.7-1.59,1.7-2.73,0-1.47-.98-2.37-2.95-2.7l-5.05-.9c-3.93-.67-5.9-2.5-5.9-5.5,0-2.47,1.02-4.45,3.08-5.95,2.05-1.5,4.67-2.25,7.88-2.25,1.2,0,2.32.12,3.38.38,1.05.25,2.03.65,2.95,1.2.92.55,1.62,1.34,2.1,2.38.48,1.03.66,2.25.52,3.65l-4.3.05c.13-1.33-.27-2.34-1.23-3.02-.95-.68-2.29-1.03-4.02-1.03s-3.11.33-4.12,1c-1.02.67-1.52,1.52-1.52,2.55,0,1.47,1.13,2.4,3.4,2.8l4.4.75c3.97.7,5.95,2.57,5.95,5.6,0,2.63-1.08,4.71-3.23,6.23-2.15,1.52-4.88,2.27-8.17,2.27-2.97,0-5.34-.68-7.12-2.05-1.78-1.37-2.58-3.47-2.38-6.3Z"/>
    <path class="cls-1" d="m471.74,393.67l-4.1,23.35h-4.6l4.1-23.35h4.6Zm-.9-5.8c-.87,0-1.58-.27-2.15-.83-.57-.55-.85-1.24-.85-2.07s.28-1.53.85-2.08c.57-.55,1.28-.83,2.15-.83s1.53.28,2.1.83c.57.55.85,1.24.85,2.08s-.28,1.52-.85,2.07c-.57.55-1.27.83-2.1.83Z"/>
    <path class="cls-1" d="m486.29,397.52l-1.9,10.8c-.27,1.6-.09,2.87.52,3.8.62.93,1.64,1.4,3.08,1.4,1.3,0,2.75-.22,4.35-.65l-.05,4c-2.1.6-3.88.9-5.35.9-2.57,0-4.52-.89-5.85-2.67-1.33-1.78-1.77-4.04-1.3-6.78l1.9-10.8h-5.75l.65-3.85h5.8l1.5-8.6h4.6l-1.5,8.6h8.7l-.65,3.85h-8.75Z"/>
    <path class="cls-1" d="m507.29,393.67l-4.1,23.35h-4.6l4.1-23.35h4.6Zm-.9-5.8c-.87,0-1.58-.27-2.15-.83-.57-.55-.85-1.24-.85-2.07s.28-1.53.85-2.08c.57-.55,1.28-.83,2.15-.83s1.53.28,2.1.83c.57.55.85,1.24.85,2.08s-.28,1.52-.85,2.07c-.57.55-1.27.83-2.1.83Z"/>
    <path class="cls-1" d="m526.89,393.07c3.1,0,5.62.98,7.55,2.93,1.93,1.95,2.9,4.44,2.9,7.48,0,3.93-1.48,7.3-4.42,10.1-2.95,2.8-6.41,4.2-10.38,4.2-3.1,0-5.62-.98-7.55-2.95-1.93-1.97-2.9-4.48-2.9-7.55,0-3.93,1.48-7.28,4.43-10.05,2.95-2.77,6.41-4.15,10.38-4.15Zm-3.6,20.5c2.53,0,4.73-.94,6.6-2.82,1.87-1.88,2.8-4.11,2.8-6.68,0-1.93-.6-3.55-1.8-4.85-1.2-1.3-2.77-1.95-4.7-1.95-2.57,0-4.78.92-6.65,2.77-1.87,1.85-2.8,4.06-2.8,6.62,0,2,.59,3.65,1.78,4.95,1.18,1.3,2.77,1.95,4.77,1.95Z"/>
    <path class="cls-1" d="m593.09,393.67l-12.4,23.35h-4.55l-2.6-15.95-8.2,15.95h-4.1l-4.65-23.35h4.95l3,16.15,8.35-16.15h3.9l2.65,16.1,8.7-16.1h4.95Z"/>
    <path class="cls-1" d="m607.99,393.07c3.37,0,5.92,1.12,7.65,3.35,1.73,2.23,2.33,5.13,1.8,8.7-.13.77-.3,1.43-.5,2l-.1-.05v.05h-18.75c0,1.9.57,3.46,1.72,4.67,1.15,1.22,2.76,1.83,4.83,1.83,2.83,0,4.85-.93,6.05-2.8h5.1c-1,2.07-2.56,3.72-4.67,4.95-2.12,1.23-4.52,1.85-7.23,1.85-3.57,0-6.31-1.18-8.23-3.55-1.92-2.37-2.57-5.27-1.98-8.7.6-3.5,2.26-6.43,4.98-8.77,2.72-2.35,5.83-3.53,9.33-3.53Zm-.6,3.85c-2.1,0-3.91.63-5.42,1.9-1.52,1.27-2.61,2.88-3.28,4.85h14.4c.23-2.1-.17-3.75-1.2-4.95-1.03-1.2-2.53-1.8-4.5-1.8Z"/>
    <path class="cls-1" d="m637.69,393.07c2.9,0,5.28.99,7.15,2.98,1.87,1.98,2.8,4.46,2.8,7.43,0,3.8-1.45,7.1-4.35,9.9-2.9,2.8-6.22,4.2-9.95,4.2-3.03,0-5.47-.88-7.3-2.65l-.35,2.1h-4.6l6.25-35.5h4.6l-2.5,14.2c2.4-1.77,5.15-2.65,8.25-2.65Zm-4.25,20.55c2.53,0,4.76-.97,6.68-2.9,1.92-1.93,2.88-4.15,2.88-6.65,0-1.97-.62-3.62-1.85-4.97-1.23-1.35-2.83-2.03-4.8-2.03-3.03,0-5.63,1.25-7.8,3.75l-1.6,9.05c1.3,2.5,3.47,3.75,6.5,3.75Z"/>
    <path class="cls-1" d="m680.44,393.07c3.37,0,5.92,1.12,7.65,3.35,1.73,2.23,2.33,5.13,1.8,8.7-.13.77-.3,1.43-.5,2l-.1-.05v.05h-18.75c0,1.9.57,3.46,1.72,4.67,1.15,1.22,2.76,1.83,4.83,1.83,2.83,0,4.85-.93,6.05-2.8h5.1c-1,2.07-2.56,3.72-4.67,4.95-2.12,1.23-4.52,1.85-7.23,1.85-3.57,0-6.31-1.18-8.23-3.55-1.92-2.37-2.57-5.27-1.98-8.7.6-3.5,2.26-6.43,4.98-8.77,2.72-2.35,5.83-3.53,9.33-3.53Zm-.6,3.85c-2.1,0-3.91.63-5.42,1.9-1.52,1.27-2.61,2.88-3.28,4.85h14.4c.23-2.1-.17-3.75-1.2-4.95-1.03-1.2-2.53-1.8-4.5-1.8Z"/>
    <path class="cls-1" d="m693.69,409.42l4.3.05c0,3.03,1.97,4.55,5.9,4.55,1.83,0,3.32-.34,4.45-1.02,1.13-.68,1.7-1.59,1.7-2.73,0-1.47-.98-2.37-2.95-2.7l-5.05-.9c-3.93-.67-5.9-2.5-5.9-5.5,0-2.47,1.02-4.45,3.08-5.95,2.05-1.5,4.67-2.25,7.88-2.25,1.2,0,2.32.12,3.38.38,1.05.25,2.03.65,2.95,1.2.92.55,1.62,1.34,2.1,2.38.48,1.03.66,2.25.52,3.65l-4.3.05c.13-1.33-.27-2.34-1.23-3.02-.95-.68-2.29-1.03-4.02-1.03s-3.11.33-4.12,1c-1.02.67-1.52,1.52-1.52,2.55,0,1.47,1.13,2.4,3.4,2.8l4.4.75c3.97.7,5.95,2.57,5.95,5.6,0,2.63-1.08,4.71-3.23,6.23-2.15,1.52-4.88,2.27-8.17,2.27-2.97,0-5.34-.68-7.12-2.05-1.78-1.37-2.58-3.47-2.38-6.3Z"/>
    <path class="cls-1" d="m729.89,397.52l-1.9,10.8c-.27,1.6-.09,2.87.52,3.8.62.93,1.64,1.4,3.08,1.4,1.3,0,2.75-.22,4.35-.65l-.05,4c-2.1.6-3.88.9-5.35.9-2.57,0-4.52-.89-5.85-2.67-1.33-1.78-1.77-4.04-1.3-6.78l1.9-10.8h-5.75l.65-3.85h5.8l1.5-8.6h4.6l-1.5,8.6h8.7l-.65,3.85h-8.75Z"/>
    <path class="cls-1" d="m767.09,393.67l-4.1,23.35h-4.6l.35-2.05c-2.47,1.77-5.22,2.65-8.25,2.65s-5.37-.97-7.2-2.9c-1.83-1.93-2.75-4.43-2.75-7.5,0-3.8,1.45-7.11,4.35-9.93,2.9-2.82,6.22-4.23,9.95-4.23,3.03,0,5.48.88,7.35,2.65l.35-2.05h4.55Zm-15.25,19.95c3.07,0,5.67-1.25,7.8-3.75l1.65-9.05c-1.33-2.5-3.5-3.75-6.5-3.75-2.53,0-4.76.96-6.68,2.88-1.92,1.92-2.88,4.14-2.88,6.68,0,2.03.61,3.71,1.83,5.02,1.22,1.32,2.81,1.98,4.77,1.98Zm6.75-23.6h-4.25l5.2-7.3h5.1l-6.05,7.3Z"/>
    <path class="cls-1" d="m799.04,393.07c3.37,0,5.92,1.12,7.65,3.35,1.73,2.23,2.33,5.13,1.8,8.7-.13.77-.3,1.43-.5,2l-.1-.05v.05h-18.75c0,1.9.57,3.46,1.72,4.67,1.15,1.22,2.76,1.83,4.83,1.83,2.83,0,4.85-.93,6.05-2.8h5.1c-1,2.07-2.56,3.72-4.67,4.95-2.12,1.23-4.52,1.85-7.23,1.85-3.57,0-6.31-1.18-8.23-3.55-1.92-2.37-2.57-5.27-1.98-8.7.6-3.5,2.26-6.43,4.98-8.77,2.72-2.35,5.83-3.53,9.33-3.53Zm-.6,3.85c-2.1,0-3.91.63-5.42,1.9-1.52,1.27-2.61,2.88-3.28,4.85h14.4c.23-2.1-.17-3.75-1.2-4.95-1.03-1.2-2.53-1.8-4.5-1.8Z"/>
    <path class="cls-1" d="m828.79,392.92c3.03,0,5.3.99,6.8,2.98,1.5,1.98,1.95,4.62,1.35,7.92l-2.3,13.2h-4.55l2.25-12.95c.4-2.2.13-3.92-.8-5.15-.93-1.23-2.38-1.85-4.35-1.85-2.67,0-5.25,1.3-7.75,3.9l-2.8,16.05h-4.6l4.15-23.35h4.55l-.4,2.35c2.6-2.07,5.42-3.1,8.45-3.1Z"/>
    <path class="cls-1" d="m246.1,457.27c-2.27,0-4.25.77-5.95,2.33-1.7,1.55-2.75,3.47-3.15,5.77-.43,2.33-.07,4.26,1.08,5.77,1.15,1.52,2.88,2.27,5.17,2.27,1.67,0,3.17-.42,4.5-1.27,1.33-.85,2.28-1.98,2.85-3.38h4.75c-.9,2.63-2.54,4.77-4.92,6.4-2.38,1.63-5.03,2.45-7.93,2.45-3.67,0-6.42-1.14-8.27-3.43-1.85-2.28-2.46-5.22-1.83-8.82.6-3.5,2.28-6.43,5.05-8.77,2.77-2.35,5.9-3.53,9.4-3.53,2.9,0,5.25.83,7.05,2.48,1.8,1.65,2.68,3.79,2.65,6.43h-4.75c-.07-1.43-.62-2.58-1.65-3.43s-2.38-1.27-4.05-1.27Z"/>
    <path class="cls-1" d="m275.15,453.07c3.1,0,5.62.98,7.55,2.93,1.93,1.95,2.9,4.44,2.9,7.48,0,3.93-1.48,7.3-4.42,10.1-2.95,2.8-6.41,4.2-10.38,4.2-3.1,0-5.62-.98-7.55-2.95-1.93-1.97-2.9-4.48-2.9-7.55,0-3.93,1.48-7.28,4.43-10.05,2.95-2.77,6.41-4.15,10.38-4.15Zm-3.6,20.5c2.53,0,4.73-.94,6.6-2.82,1.87-1.88,2.8-4.11,2.8-6.68,0-1.93-.6-3.55-1.8-4.85-1.2-1.3-2.77-1.95-4.7-1.95-2.57,0-4.78.92-6.65,2.77-1.87,1.85-2.8,4.06-2.8,6.62,0,2,.59,3.65,1.78,4.95,1.18,1.3,2.77,1.95,4.77,1.95Z"/>
    <path class="cls-1" d="m305.85,452.92c3.03,0,5.3.99,6.8,2.98,1.5,1.98,1.95,4.62,1.35,7.92l-2.3,13.2h-4.55l2.25-12.95c.4-2.2.13-3.92-.8-5.15-.93-1.23-2.38-1.85-4.35-1.85-2.67,0-5.25,1.3-7.75,3.9l-2.8,16.05h-4.6l4.15-23.35h4.55l-.4,2.35c2.6-2.07,5.42-3.1,8.45-3.1Z"/>
    <path class="cls-1" d="m318.5,469.42l4.3.05c0,3.03,1.97,4.55,5.9,4.55,1.83,0,3.32-.34,4.45-1.02,1.13-.68,1.7-1.59,1.7-2.73,0-1.47-.98-2.37-2.95-2.7l-5.05-.9c-3.93-.67-5.9-2.5-5.9-5.5,0-2.47,1.02-4.45,3.08-5.95,2.05-1.5,4.67-2.25,7.88-2.25,1.2,0,2.32.12,3.38.38,1.05.25,2.03.65,2.95,1.2.92.55,1.62,1.34,2.1,2.38.48,1.03.66,2.25.52,3.65l-4.3.05c.13-1.33-.27-2.34-1.23-3.02-.95-.68-2.29-1.03-4.02-1.03s-3.11.33-4.12,1c-1.02.67-1.52,1.52-1.52,2.55,0,1.47,1.13,2.4,3.4,2.8l4.4.75c3.97.7,5.95,2.57,5.95,5.6,0,2.63-1.08,4.71-3.23,6.23-2.15,1.52-4.88,2.27-8.17,2.27-2.97,0-5.34-.68-7.12-2.05-1.78-1.37-2.58-3.47-2.38-6.3Z"/>
    <path class="cls-1" d="m354.7,457.52l-1.9,10.8c-.27,1.6-.09,2.87.52,3.8.62.93,1.64,1.4,3.08,1.4,1.3,0,2.75-.22,4.35-.65l-.05,4c-2.1.6-3.88.9-5.35.9-2.57,0-4.52-.89-5.85-2.67-1.33-1.78-1.77-4.04-1.3-6.78l1.9-10.8h-5.75l.65-3.85h5.8l1.5-8.6h4.6l-1.5,8.6h8.7l-.65,3.85h-8.75Z"/>
    <path class="cls-1" d="m374.5,453.67l-.6,3.5c2.77-2.7,5.95-4.05,9.55-4.05l-.75,4.35c-3.8.1-7.03,1.63-9.7,4.6l-2.6,14.95h-4.6l4.15-23.35h4.55Z"/>
    <path class="cls-1" d="m410.59,453.67l-4.15,23.35h-4.55l.4-2.35c-2.6,2.07-5.43,3.1-8.5,3.1s-5.25-.99-6.75-2.98c-1.5-1.98-1.97-4.64-1.4-7.98l2.3-13.15h4.6l-2.25,12.9c-.4,2.23-.13,3.96.8,5.18.93,1.22,2.38,1.82,4.35,1.82,2.67,0,5.25-1.3,7.75-3.9l2.8-16h4.6Z"/>
    <path class="cls-1" d="m428.89,457.27c-2.27,0-4.25.77-5.95,2.33-1.7,1.55-2.75,3.47-3.15,5.77-.43,2.33-.07,4.26,1.08,5.77,1.15,1.52,2.88,2.27,5.17,2.27,1.67,0,3.17-.42,4.5-1.27,1.33-.85,2.28-1.98,2.85-3.38h4.75c-.9,2.63-2.54,4.77-4.92,6.4-2.38,1.63-5.03,2.45-7.93,2.45-3.67,0-6.42-1.14-8.27-3.43-1.85-2.28-2.46-5.22-1.83-8.82.6-3.5,2.28-6.43,5.05-8.77,2.77-2.35,5.9-3.53,9.4-3.53,2.9,0,5.25.83,7.05,2.48,1.8,1.65,2.68,3.79,2.65,6.43h-4.75c-.07-1.43-.62-2.58-1.65-3.43s-2.38-1.27-4.05-1.27Z"/>
    <path class="cls-1" d="m457,457.27c-2.27,0-4.25.77-5.95,2.33-1.7,1.55-2.75,3.47-3.15,5.77-.43,2.33-.07,4.26,1.08,5.77,1.15,1.52,2.88,2.27,5.17,2.27,1.67,0,3.17-.42,4.5-1.27,1.33-.85,2.28-1.98,2.85-3.38h4.75c-.9,2.63-2.54,4.77-4.92,6.4-2.38,1.63-5.03,2.45-7.93,2.45-3.67,0-6.42-1.14-8.27-3.43-1.85-2.28-2.46-5.22-1.83-8.82.6-3.5,2.28-6.43,5.05-8.77,2.77-2.35,5.9-3.53,9.4-3.53,2.9,0,5.25.83,7.05,2.48,1.8,1.65,2.68,3.79,2.65,6.43h-4.75c-.07-1.43-.62-2.58-1.65-3.43s-2.38-1.27-4.05-1.27Z"/>
    <path class="cls-1" d="m480.65,453.67l-4.1,23.35h-4.6l4.1-23.35h4.6Zm-.9-5.8c-.87,0-1.58-.27-2.15-.83-.57-.55-.85-1.24-.85-2.07s.28-1.53.85-2.08c.57-.55,1.28-.83,2.15-.83s1.53.28,2.1.83c.57.55.85,1.24.85,2.08s-.28,1.52-.85,2.07c-.57.55-1.27.83-2.1.83Z"/>
    <path class="cls-1" d="m500.25,453.07c3.1,0,5.62.98,7.55,2.93,1.93,1.95,2.9,4.44,2.9,7.48,0,3.93-1.48,7.3-4.42,10.1-2.95,2.8-6.41,4.2-10.38,4.2-3.1,0-5.62-.98-7.55-2.95-1.93-1.97-2.9-4.48-2.9-7.55,0-3.93,1.47-7.28,4.4-10.05,2.93-2.77,6.4-4.15,10.4-4.15Zm-3.6,20.5c2.53,0,4.73-.94,6.6-2.82,1.87-1.88,2.8-4.11,2.8-6.68,0-1.93-.6-3.55-1.8-4.85-1.2-1.3-2.77-1.95-4.7-1.95-2.57,0-4.78.92-6.65,2.77-1.87,1.85-2.8,4.06-2.8,6.62,0,2,.59,3.65,1.78,4.95,1.18,1.3,2.77,1.95,4.77,1.95Zm12.25-30.85l-6.05,7.3h-4.25l5.2-7.3h5.1Z"/>
    <path class="cls-1" d="m530.94,452.92c3.03,0,5.3.99,6.8,2.98,1.5,1.98,1.95,4.62,1.35,7.92l-2.3,13.2h-4.55l2.25-12.95c.4-2.2.13-3.92-.8-5.15-.93-1.23-2.38-1.85-4.35-1.85-2.67,0-5.25,1.3-7.75,3.9l-2.8,16.05h-4.6l4.15-23.35h4.55l-.4,2.35c2.6-2.07,5.42-3.1,8.45-3.1Z"/>
  </g>
  <g>
    <path class="cls-1" d="m239.01,568.02l-1.76,9.76h14.48l-.44,2.64h-14.48l-1.72,9.6h16.12l-.48,2.6h-18.92l4.8-27.2h18.92l-.48,2.6h-16.04Z"/>
    <path class="cls-1" d="m257.25,586.9h2.56c.05,1.31.55,2.31,1.48,3,.93.69,2.25,1.04,3.96,1.04s3.04-.33,4.08-.98c1.04-.65,1.56-1.53,1.56-2.62,0-1.44-.92-2.31-2.76-2.6l-4.08-.72c-3.12-.56-4.68-1.97-4.68-4.24,0-1.87.79-3.37,2.36-4.5,1.57-1.13,3.57-1.7,6-1.7,2.13,0,3.89.49,5.28,1.46,1.39.97,1.99,2.45,1.8,4.42h-2.56c.11-1.17-.27-2.08-1.14-2.72-.87-.64-2.09-.96-3.66-.96s-2.92.31-3.88.94-1.44,1.45-1.44,2.46c0,1.33,1.05,2.19,3.16,2.56l3.6.64c3.12.53,4.68,1.99,4.68,4.36,0,2-.82,3.58-2.46,4.74s-3.73,1.74-6.26,1.74c-2.35,0-4.22-.53-5.62-1.6-1.4-1.07-2.06-2.64-1.98-4.72Z"/>
    <path class="cls-1" d="m285.61,576.5l-1.68,9.48c-.27,1.44-.12,2.59.44,3.44s1.45,1.28,2.68,1.28c.85,0,1.97-.16,3.36-.48v2.36c-1.52.43-2.84.64-3.96.64-1.92,0-3.37-.67-4.34-2.02-.97-1.35-1.27-3.09-.9-5.22l1.68-9.48h-4.96l.4-2.36h4.96l1.2-6.84h2.72l-1.2,6.84h6.96l-.36,2.36h-7Z"/>
    <path class="cls-1" d="m315.09,574.14l-3.24,18.48h-2.76l.36-2.04c-2.08,1.71-4.45,2.56-7.12,2.56-2.37,0-4.3-.78-5.78-2.34-1.48-1.56-2.22-3.54-2.22-5.94,0-3.01,1.16-5.63,3.48-7.86,2.32-2.23,4.97-3.34,7.96-3.34,2.67,0,4.75.85,6.24,2.56l.36-2.08h2.72Zm-12,16.6c2.67,0,4.97-1.13,6.92-3.4l1.4-7.88c-1.12-2.27-3.03-3.4-5.72-3.4-2.24,0-4.23.85-5.96,2.54-1.73,1.69-2.6,3.66-2.6,5.9,0,1.79.55,3.27,1.66,4.46,1.11,1.19,2.54,1.78,4.3,1.78Z"/>
    <path class="cls-1" d="m344.33,573.54c2.24,0,3.93.77,5.06,2.3,1.13,1.53,1.46,3.58.98,6.14l-1.84,10.64h-2.76l1.88-10.52c.35-1.92.15-3.41-.6-4.46-.75-1.05-1.96-1.58-3.64-1.58-2.53,0-4.72,1.19-6.56,3.56.05.77,0,1.56-.16,2.36l-1.88,10.64h-2.72l1.84-10.52c.35-1.92.15-3.41-.6-4.46-.75-1.05-1.96-1.58-3.64-1.58-2.35,0-4.44,1.12-6.28,3.36l-2.32,13.2h-2.76l3.28-18.48h2.72l-.36,2.12c1.89-1.81,4.11-2.72,6.64-2.72,2.8,0,4.71,1.15,5.72,3.44,2.29-2.29,4.96-3.44,8-3.44Z"/>
    <path class="cls-1" d="m366.73,573.66c2.43,0,4.41.79,5.94,2.36,1.53,1.57,2.3,3.55,2.3,5.92,0,3.07-1.17,5.71-3.52,7.94-2.35,2.23-5.07,3.34-8.16,3.34-2.43,0-4.41-.79-5.96-2.38-1.55-1.59-2.32-3.57-2.32-5.94,0-3.09,1.17-5.74,3.52-7.94,2.35-2.2,5.08-3.3,8.2-3.3Zm-3,17.08c2.24,0,4.21-.85,5.92-2.54,1.71-1.69,2.56-3.66,2.56-5.9,0-1.73-.55-3.19-1.64-4.36-1.09-1.17-2.51-1.76-4.24-1.76-2.27,0-4.25.83-5.96,2.5-1.71,1.67-2.56,3.62-2.56,5.86,0,1.79.55,3.27,1.64,4.44,1.09,1.17,2.52,1.76,4.28,1.76Z"/>
    <path class="cls-1" d="m378.49,586.9h2.56c.05,1.31.55,2.31,1.48,3,.93.69,2.25,1.04,3.96,1.04s3.04-.33,4.08-.98c1.04-.65,1.56-1.53,1.56-2.62,0-1.44-.92-2.31-2.76-2.6l-4.08-.72c-3.12-.56-4.68-1.97-4.68-4.24,0-1.87.79-3.37,2.36-4.5,1.57-1.13,3.57-1.7,6-1.7,2.13,0,3.89.49,5.28,1.46,1.39.97,1.99,2.45,1.8,4.42h-2.56c.11-1.17-.27-2.08-1.14-2.72-.87-.64-2.09-.96-3.66-.96s-2.92.31-3.88.94-1.44,1.45-1.44,2.46c0,1.33,1.05,2.19,3.16,2.56l3.6.64c3.12.53,4.68,1.99,4.68,4.36,0,2-.82,3.58-2.46,4.74s-3.73,1.74-6.26,1.74c-2.35,0-4.22-.53-5.62-1.6-1.4-1.07-2.06-2.64-1.98-4.72Z"/>
    <path class="cls-1" d="m423.04,573.66c2.35,0,4.27.79,5.78,2.38,1.51,1.59,2.26,3.57,2.26,5.94,0,3.01-1.15,5.63-3.44,7.84-2.29,2.21-4.96,3.32-8,3.32-2.67,0-4.75-.85-6.24-2.56l-2.12,11.96h-2.76l5.04-28.4h2.76l-.36,2.08c2.08-1.71,4.44-2.56,7.08-2.56Zm-3.32,17.08c2.24,0,4.23-.85,5.96-2.54,1.73-1.69,2.6-3.65,2.6-5.86,0-1.76-.56-3.25-1.68-4.46-1.12-1.21-2.55-1.82-4.28-1.82-2.64,0-4.96,1.13-6.96,3.4l-1.4,7.88c1.15,2.27,3.07,3.4,5.76,3.4Z"/>
    <path class="cls-1" d="m440.44,574.14l-.56,3.2c2.24-2.45,4.87-3.68,7.88-3.68l-.44,2.6c-3.12.08-5.79,1.49-8,4.24l-2.12,12.12h-2.76l3.28-18.48h2.72Z"/>
    <path class="cls-1" d="m460.12,573.66c2.67,0,4.68.9,6.04,2.7s1.81,4.11,1.36,6.94c-.05.35-.15.73-.28,1.16l-.16-.08v.08h-15.6c-.08,1.81.4,3.31,1.44,4.5s2.49,1.78,4.36,1.78c2.69,0,4.61-.93,5.76-2.8h3.04c-.8,1.6-2.02,2.87-3.66,3.8-1.64.93-3.5,1.4-5.58,1.4-2.77,0-4.91-.94-6.4-2.82-1.49-1.88-2.01-4.19-1.56-6.94.48-2.75,1.79-5.05,3.94-6.92,2.15-1.87,4.58-2.8,7.3-2.8Zm-.36,2.32c-1.89,0-3.55.6-4.98,1.8-1.43,1.2-2.41,2.72-2.94,4.56h13.12c.21-1.92-.15-3.46-1.08-4.62-.93-1.16-2.31-1.74-4.12-1.74Z"/>
    <path class="cls-1" d="m484.04,573.66c2.35,0,4.27.79,5.78,2.38,1.51,1.59,2.26,3.57,2.26,5.94,0,3.01-1.15,5.63-3.44,7.84-2.29,2.21-4.96,3.32-8,3.32-2.67,0-4.75-.85-6.24-2.56l-2.12,11.96h-2.76l5.04-28.4h2.76l-.36,2.08c2.08-1.71,4.44-2.56,7.08-2.56Zm-3.32,17.08c2.24,0,4.23-.85,5.96-2.54,1.73-1.69,2.6-3.65,2.6-5.86,0-1.76-.56-3.25-1.68-4.46-1.12-1.21-2.55-1.82-4.28-1.82-2.64,0-4.96,1.13-6.96,3.4l-1.4,7.88c1.15,2.27,3.07,3.4,5.76,3.4Z"/>
    <path class="cls-1" d="m516.8,574.14l-3.24,18.48h-2.76l.36-2.04c-2.08,1.71-4.45,2.56-7.12,2.56-2.37,0-4.3-.78-5.78-2.34-1.48-1.56-2.22-3.54-2.22-5.94,0-3.01,1.16-5.63,3.48-7.86,2.32-2.23,4.97-3.34,7.96-3.34,2.67,0,4.75.85,6.24,2.56l.36-2.08h2.72Zm-12,16.6c2.67,0,4.97-1.13,6.92-3.4l1.4-7.88c-1.12-2.27-3.03-3.4-5.72-3.4-2.24,0-4.23.85-5.96,2.54-1.73,1.69-2.6,3.66-2.6,5.9,0,1.79.55,3.27,1.66,4.46,1.11,1.19,2.54,1.78,4.3,1.78Z"/>
    <path class="cls-1" d="m526.04,574.14l-.56,3.2c2.24-2.45,4.87-3.68,7.88-3.68l-.44,2.6c-3.12.08-5.79,1.49-8,4.24l-2.12,12.12h-2.76l3.28-18.48h2.72Z"/>
    <path class="cls-1" d="m555.16,574.14l-3.24,18.48h-2.76l.36-2.04c-2.08,1.71-4.45,2.56-7.12,2.56-2.37,0-4.3-.78-5.78-2.34-1.48-1.56-2.22-3.54-2.22-5.94,0-3.01,1.16-5.63,3.48-7.86,2.32-2.23,4.97-3.34,7.96-3.34,2.67,0,4.75.85,6.24,2.56l.36-2.08h2.72Zm-12,16.6c2.67,0,4.97-1.13,6.92-3.4l1.4-7.88c-1.12-2.27-3.03-3.4-5.72-3.4-2.24,0-4.23.85-5.96,2.54-1.73,1.69-2.6,3.66-2.6,5.9,0,1.79.55,3.27,1.66,4.46,1.11,1.19,2.54,1.78,4.3,1.78Z"/>
    <path class="cls-1" d="m571.32,573.54c2.35,0,4.11.77,5.3,2.3,1.19,1.53,1.55,3.58,1.1,6.14l-1.88,10.64h-2.72l1.84-10.52c.35-1.89.1-3.37-.74-4.44-.84-1.07-2.1-1.6-3.78-1.6-2.53,0-4.85,1.13-6.96,3.4l-2.32,13.16h-2.76l3.28-18.48h2.72l-.4,2.2c2.16-1.87,4.6-2.8,7.32-2.8Z"/>
    <path class="cls-1" d="m604.92,564.22l-5.04,28.4h-2.72l.36-2.04c-2.05,1.68-4.43,2.52-7.12,2.52-2.35,0-4.27-.79-5.78-2.38-1.51-1.59-2.26-3.55-2.26-5.9,0-3.01,1.16-5.63,3.48-7.84,2.32-2.21,4.97-3.32,7.96-3.32,2.69,0,4.79.85,6.28,2.56l2.12-12h2.72Zm-13.76,26.48c2.64,0,4.96-1.13,6.96-3.4l1.36-7.84c-1.12-2.29-3.03-3.44-5.72-3.44-2.27,0-4.26.85-5.98,2.54-1.72,1.69-2.58,3.66-2.58,5.9,0,1.76.55,3.24,1.66,4.44,1.11,1.2,2.54,1.8,4.3,1.8Z"/>
    <path class="cls-1" d="m618.84,573.66c2.43,0,4.41.79,5.94,2.36,1.53,1.57,2.3,3.55,2.3,5.92,0,3.07-1.17,5.71-3.52,7.94-2.35,2.23-5.07,3.34-8.16,3.34-2.43,0-4.41-.79-5.96-2.38-1.55-1.59-2.32-3.57-2.32-5.94,0-3.09,1.17-5.74,3.52-7.94,2.35-2.2,5.08-3.3,8.2-3.3Zm-3,17.08c2.24,0,4.21-.85,5.92-2.54,1.71-1.69,2.56-3.66,2.56-5.9,0-1.73-.55-3.19-1.64-4.36-1.09-1.17-2.51-1.76-4.24-1.76-2.27,0-4.25.83-5.96,2.5-1.71,1.67-2.56,3.62-2.56,5.86,0,1.79.55,3.27,1.64,4.44,1.09,1.17,2.52,1.76,4.28,1.76Z"/>
    <path class="cls-1" d="m663.2,574.14l-3.24,18.48h-2.76l.36-2.04c-2.08,1.71-4.45,2.56-7.12,2.56-2.37,0-4.3-.78-5.78-2.34-1.48-1.56-2.22-3.54-2.22-5.94,0-3.01,1.16-5.63,3.48-7.86,2.32-2.23,4.97-3.34,7.96-3.34,2.67,0,4.75.85,6.24,2.56l.36-2.08h2.72Zm-12,16.6c2.67,0,4.97-1.13,6.92-3.4l1.4-7.88c-1.12-2.27-3.03-3.4-5.72-3.4-2.24,0-4.23.85-5.96,2.54-1.73,1.69-2.6,3.66-2.6,5.9,0,1.79.55,3.27,1.66,4.46,1.11,1.19,2.54,1.78,4.3,1.78Z"/>
    <path class="cls-1" d="m674.4,564.22l-5.04,28.4h-2.72l5.04-28.4h2.72Z"/>
    <path class="cls-1" d="m697.2,574.14l-3.36,19.08c-.51,2.77-1.75,4.99-3.72,6.64-1.97,1.65-4.33,2.48-7.08,2.48-2.4,0-4.33-.64-5.78-1.92-1.45-1.28-2.17-2.93-2.14-4.96h2.8c.05,1.31.58,2.36,1.58,3.16s2.33,1.2,3.98,1.2c1.95,0,3.62-.59,5.02-1.78,1.4-1.19,2.27-2.79,2.62-4.82l.56-3.24c-2.19,1.76-4.64,2.64-7.36,2.64-2.32,0-4.21-.78-5.66-2.34-1.45-1.56-2.18-3.47-2.18-5.74,0-3.01,1.12-5.61,3.36-7.78,2.24-2.17,4.85-3.26,7.84-3.26,2.75,0,4.89.88,6.44,2.64l.36-2h2.72Zm-12.16,16.08c2.88,0,5.28-1.16,7.2-3.48l1.32-7.36c-1.17-2.32-3.16-3.48-5.96-3.48-2.27,0-4.22.82-5.86,2.46s-2.46,3.58-2.46,5.82c0,1.68.53,3.11,1.58,4.28,1.05,1.17,2.45,1.76,4.18,1.76Z"/>
    <path class="cls-1" d="m712.2,573.66c2.43,0,4.41.79,5.94,2.36,1.53,1.57,2.3,3.55,2.3,5.92,0,3.07-1.17,5.71-3.52,7.94-2.35,2.23-5.07,3.34-8.16,3.34-2.43,0-4.41-.79-5.96-2.38-1.55-1.59-2.32-3.57-2.32-5.94,0-3.09,1.17-5.74,3.52-7.94,2.35-2.2,5.08-3.3,8.2-3.3Zm-3,17.08c2.24,0,4.21-.85,5.92-2.54,1.71-1.69,2.56-3.66,2.56-5.9,0-1.73-.55-3.19-1.64-4.36-1.09-1.17-2.51-1.76-4.24-1.76-2.27,0-4.25.83-5.96,2.5-1.71,1.67-2.56,3.62-2.56,5.86,0,1.79.55,3.27,1.64,4.44,1.09,1.17,2.52,1.76,4.28,1.76Z"/>
    <path class="cls-1" d="m741.88,574.14l-3.24,18.48h-2.76l3.28-18.48h2.72Zm1.14-5.68c-.36.35-.81.52-1.34.52s-.99-.17-1.36-.52-.56-.79-.56-1.32.19-.94.56-1.3c.37-.36.83-.54,1.36-.54s.98.18,1.34.54c.36.36.54.79.54,1.3,0,.53-.18.97-.54,1.32Z"/>
    <path class="cls-1" d="m758.56,573.54c2.35,0,4.11.77,5.3,2.3,1.19,1.53,1.55,3.58,1.1,6.14l-1.88,10.64h-2.72l1.84-10.52c.35-1.89.1-3.37-.74-4.44-.84-1.07-2.1-1.6-3.78-1.6-2.53,0-4.85,1.13-6.96,3.4l-2.32,13.16h-2.76l3.28-18.48h2.72l-.4,2.2c2.16-1.87,4.6-2.8,7.32-2.8Z"/>
    <path class="cls-1" d="m778.12,590.62c1.47,0,2.79-.38,3.98-1.14,1.19-.76,2.05-1.77,2.58-3.02h2.84c-.72,1.97-1.99,3.58-3.8,4.82-1.81,1.24-3.83,1.86-6.04,1.86-2.85,0-5.01-.92-6.48-2.76-1.47-1.84-1.96-4.17-1.48-7,.48-2.75,1.81-5.05,3.98-6.92,2.17-1.87,4.65-2.8,7.42-2.8,2.21,0,4,.61,5.36,1.84s2.07,2.84,2.12,4.84h-2.84c-.08-1.25-.58-2.26-1.5-3.02s-2.11-1.14-3.58-1.14c-2.05,0-3.84.69-5.36,2.08-1.52,1.39-2.47,3.09-2.84,5.12-.37,2.08-.04,3.81,1,5.18s2.59,2.06,4.64,2.06Z"/>
    <path class="cls-1" d="m797.52,574.14l-.56,3.2c2.24-2.45,4.87-3.68,7.88-3.68l-.44,2.6c-3.12.08-5.79,1.49-8,4.24l-2.12,12.12h-2.76l3.28-18.48h2.72Z"/>
    <path class="cls-1" d="m817.2,573.66c2.67,0,4.68.9,6.04,2.7s1.81,4.11,1.36,6.94c-.05.35-.15.73-.28,1.16l-.16-.08v.08h-15.6c-.08,1.81.4,3.31,1.44,4.5s2.49,1.78,4.36,1.78c2.69,0,4.61-.93,5.76-2.8h3.04c-.8,1.6-2.02,2.87-3.66,3.8-1.64.93-3.5,1.4-5.58,1.4-2.77,0-4.91-.94-6.4-2.82-1.49-1.88-2.01-4.19-1.56-6.94.48-2.75,1.79-5.05,3.94-6.92,2.15-1.87,4.58-2.8,7.3-2.8Zm-.36,2.32c-1.89,0-3.55.6-4.98,1.8-1.43,1.2-2.41,2.72-2.94,4.56h13.12c.21-1.92-.15-3.46-1.08-4.62-.93-1.16-2.31-1.74-4.12-1.74Z"/>
    <path class="cls-1" d="m835.24,574.14l-3.24,18.48h-2.76l3.28-18.48h2.72Zm1.14-5.68c-.36.35-.81.52-1.34.52s-.99-.17-1.36-.52-.56-.79-.56-1.32.19-.94.56-1.3c.37-.36.83-.54,1.36-.54s.98.18,1.34.54c.36.36.54.79.54,1.3,0,.53-.18.97-.54,1.32Z"/>
    <path class="cls-1" d="m851.8,573.66c2.32,0,4.23.79,5.72,2.36,1.49,1.57,2.24,3.55,2.24,5.92,0,3.01-1.16,5.63-3.48,7.84-2.32,2.21-4.97,3.32-7.96,3.32-2.67,0-4.73-.84-6.2-2.52l-.36,2.04h-2.76l5-28.4h2.76l-2.12,11.96c2.11-1.68,4.49-2.52,7.16-2.52Zm-3.36,17.04c2.24,0,4.23-.84,5.96-2.52,1.73-1.68,2.6-3.64,2.6-5.88,0-1.76-.56-3.25-1.68-4.46-1.12-1.21-2.56-1.82-4.32-1.82-2.67,0-4.97,1.13-6.92,3.4l-1.4,7.92c1.2,2.24,3.12,3.36,5.76,3.36Z"/>
    <path class="cls-1" d="m871.36,564.22l-5.04,28.4h-2.72l5.04-28.4h2.72Z"/>
    <path class="cls-1" d="m884.88,573.66c2.67,0,4.68.9,6.04,2.7s1.81,4.11,1.36,6.94c-.05.35-.15.73-.28,1.16l-.16-.08v.08h-15.6c-.08,1.81.4,3.31,1.44,4.5s2.49,1.78,4.36,1.78c2.69,0,4.61-.93,5.76-2.8h3.04c-.8,1.6-2.02,2.87-3.66,3.8-1.64.93-3.5,1.4-5.58,1.4-2.77,0-4.91-.94-6.4-2.82-1.49-1.88-2.01-4.19-1.56-6.94.48-2.75,1.79-5.05,3.94-6.92,2.15-1.87,4.58-2.8,7.3-2.8Zm-.36,2.32c-1.89,0-3.55.6-4.98,1.8-1.43,1.2-2.41,2.72-2.94,4.56h13.12c.21-1.92-.15-3.46-1.08-4.62-.93-1.16-2.31-1.74-4.12-1.74Z"/>
    <path class="cls-1" d="m929.44,574.14l-17.96,28.4h-3.12l5.8-9.16-5.96-19.24h2.96l4.96,16.12,10.2-16.12h3.12Z"/>
    <path class="cls-1" d="m243.41,621.66c2.67,0,4.68.9,6.04,2.7s1.81,4.11,1.36,6.94c-.05.35-.15.73-.28,1.16l-.16-.08v.08h-15.6c-.08,1.81.4,3.31,1.44,4.5s2.49,1.78,4.36,1.78c2.69,0,4.61-.93,5.76-2.8h3.04c-.8,1.6-2.02,2.87-3.66,3.8-1.64.93-3.5,1.4-5.58,1.4-2.77,0-4.91-.94-6.4-2.82-1.49-1.88-2.01-4.19-1.56-6.94.48-2.75,1.79-5.05,3.94-6.92,2.15-1.87,4.58-2.8,7.3-2.8Zm-.36,2.32c-1.89,0-3.55.6-4.98,1.8-1.43,1.2-2.41,2.72-2.94,4.56h13.12c.21-1.92-.15-3.46-1.08-4.62-.93-1.16-2.31-1.74-4.12-1.74Z"/>
    <path class="cls-1" d="m280.25,621.54c2.24,0,3.93.77,5.06,2.3,1.13,1.53,1.46,3.58.98,6.14l-1.84,10.64h-2.76l1.88-10.52c.35-1.92.15-3.41-.6-4.46-.75-1.05-1.96-1.58-3.64-1.58-2.53,0-4.72,1.19-6.56,3.56.05.77,0,1.56-.16,2.36l-1.88,10.64h-2.72l1.84-10.52c.35-1.92.15-3.41-.6-4.46-.75-1.05-1.96-1.58-3.64-1.58-2.35,0-4.44,1.12-6.28,3.36l-2.32,13.2h-2.76l3.28-18.48h2.72l-.36,2.12c1.89-1.81,4.11-2.72,6.64-2.72,2.8,0,4.71,1.15,5.72,3.44,2.29-2.29,4.96-3.44,8-3.44Z"/>
    <path class="cls-1" d="m302.65,621.66c2.43,0,4.41.79,5.94,2.36,1.53,1.57,2.3,3.55,2.3,5.92,0,3.07-1.17,5.71-3.52,7.94-2.35,2.23-5.07,3.34-8.16,3.34-2.43,0-4.41-.79-5.96-2.38-1.55-1.59-2.32-3.57-2.32-5.94,0-3.09,1.17-5.74,3.52-7.94,2.35-2.2,5.08-3.3,8.2-3.3Zm-3,17.08c2.24,0,4.21-.85,5.92-2.54,1.71-1.69,2.56-3.66,2.56-5.9,0-1.73-.55-3.19-1.64-4.36-1.09-1.17-2.51-1.76-4.24-1.76-2.27,0-4.25.83-5.96,2.5-1.71,1.67-2.56,3.62-2.56,5.86,0,1.79.55,3.27,1.64,4.44,1.09,1.17,2.52,1.76,4.28,1.76Z"/>
    <path class="cls-1" d="m323.37,638.62c1.47,0,2.79-.38,3.98-1.14,1.19-.76,2.05-1.77,2.58-3.02h2.84c-.72,1.97-1.99,3.58-3.8,4.82-1.81,1.24-3.83,1.86-6.04,1.86-2.85,0-5.01-.92-6.48-2.76-1.47-1.84-1.96-4.17-1.48-7,.48-2.75,1.81-5.05,3.98-6.92,2.17-1.87,4.65-2.8,7.42-2.8,2.21,0,4,.61,5.36,1.84s2.07,2.84,2.12,4.84h-2.84c-.08-1.25-.58-2.26-1.5-3.02s-2.11-1.14-3.58-1.14c-2.05,0-3.84.69-5.36,2.08-1.52,1.39-2.47,3.09-2.84,5.12-.37,2.08-.04,3.81,1,5.18s2.59,2.06,4.64,2.06Z"/>
    <path class="cls-1" d="m343.97,622.14l-3.24,18.48h-2.76l3.28-18.48h2.72Zm1.14-5.68c-.36.35-.81.52-1.34.52s-.99-.17-1.36-.52-.56-.79-.56-1.32.19-.94.56-1.3c.37-.36.83-.54,1.36-.54s.98.18,1.34.54c.36.36.54.79.54,1.3,0,.53-.18.97-.54,1.32Z"/>
    <path class="cls-1" d="m360.13,621.66c2.43,0,4.41.79,5.94,2.36,1.53,1.57,2.3,3.55,2.3,5.92,0,3.07-1.17,5.71-3.52,7.94-2.35,2.23-5.07,3.34-8.16,3.34-2.43,0-4.41-.79-5.96-2.38-1.55-1.59-2.32-3.57-2.32-5.94,0-3.09,1.17-5.74,3.52-7.94,2.35-2.2,5.08-3.3,8.2-3.3Zm-3,17.08c2.24,0,4.21-.85,5.92-2.54,1.71-1.69,2.56-3.66,2.56-5.9,0-1.73-.55-3.19-1.64-4.36-1.09-1.17-2.51-1.76-4.24-1.76-2.27,0-4.25.83-5.96,2.5-1.71,1.67-2.56,3.62-2.56,5.86,0,1.79.55,3.27,1.64,4.44,1.09,1.17,2.52,1.76,4.28,1.76Z"/>
    <path class="cls-1" d="m384.69,621.54c2.35,0,4.11.77,5.3,2.3,1.19,1.53,1.55,3.58,1.1,6.14l-1.88,10.64h-2.72l1.84-10.52c.35-1.89.1-3.37-.74-4.44-.84-1.07-2.1-1.6-3.78-1.6-2.53,0-4.85,1.13-6.96,3.4l-2.32,13.16h-2.76l3.28-18.48h2.72l-.4,2.2c2.16-1.87,4.6-2.8,7.32-2.8Z"/>
    <path class="cls-1" d="m416.52,622.14l-3.24,18.48h-2.76l.36-2.04c-2.08,1.71-4.45,2.56-7.12,2.56-2.37,0-4.3-.78-5.78-2.34-1.48-1.56-2.22-3.54-2.22-5.94,0-3.01,1.16-5.63,3.48-7.86,2.32-2.23,4.97-3.34,7.96-3.34,2.67,0,4.75.85,6.24,2.56l.36-2.08h2.72Zm-12,16.6c2.67,0,4.97-1.13,6.92-3.4l1.4-7.88c-1.12-2.27-3.03-3.4-5.72-3.4-2.24,0-4.23.85-5.96,2.54-1.73,1.69-2.6,3.66-2.6,5.9,0,1.79.55,3.27,1.66,4.46,1.11,1.19,2.54,1.78,4.3,1.78Z"/>
    <path class="cls-1" d="m432.68,621.54c2.35,0,4.11.77,5.3,2.3,1.19,1.53,1.55,3.58,1.1,6.14l-1.88,10.64h-2.72l1.84-10.52c.35-1.89.1-3.37-.74-4.44-.84-1.07-2.1-1.6-3.78-1.6-2.53,0-4.85,1.13-6.96,3.4l-2.32,13.16h-2.76l3.28-18.48h2.72l-.4,2.2c2.16-1.87,4.6-2.8,7.32-2.8Z"/>
    <path class="cls-1" d="m450.65,624.5l-1.68,9.48c-.27,1.44-.12,2.59.44,3.44s1.45,1.28,2.68,1.28c.85,0,1.97-.16,3.36-.48v2.36c-1.52.43-2.84.64-3.96.64-1.92,0-3.37-.67-4.34-2.02-.97-1.35-1.27-3.09-.9-5.22l1.68-9.48h-4.96l.4-2.36h4.96l1.2-6.84h2.72l-1.2,6.84h6.96l-.36,2.36h-7Z"/>
    <path class="cls-1" d="m470.68,621.66c2.67,0,4.68.9,6.04,2.7s1.81,4.11,1.36,6.94c-.05.35-.15.73-.28,1.16l-.16-.08v.08h-15.6c-.08,1.81.4,3.31,1.44,4.5s2.49,1.78,4.36,1.78c2.69,0,4.61-.93,5.76-2.8h3.04c-.8,1.6-2.02,2.87-3.66,3.8-1.64.93-3.5,1.4-5.58,1.4-2.77,0-4.91-.94-6.4-2.82-1.49-1.88-2.01-4.19-1.56-6.94.48-2.75,1.79-5.05,3.94-6.92,2.15-1.87,4.58-2.8,7.3-2.8Zm-.36,2.32c-1.89,0-3.55.6-4.98,1.8-1.43,1.2-2.41,2.72-2.94,4.56h13.12c.21-1.92-.15-3.46-1.08-4.62-.93-1.16-2.31-1.74-4.12-1.74Z"/>
    <path class="cls-1" d="m505.56,621.66c2.35,0,4.27.79,5.78,2.38,1.51,1.59,2.26,3.57,2.26,5.94,0,3.01-1.15,5.63-3.44,7.84-2.29,2.21-4.96,3.32-8,3.32-2.67,0-4.75-.85-6.24-2.56l-2.12,11.96h-2.76l5.04-28.4h2.76l-.36,2.08c2.08-1.71,4.44-2.56,7.08-2.56Zm-3.32,17.08c2.24,0,4.23-.85,5.96-2.54,1.73-1.69,2.6-3.65,2.6-5.86,0-1.76-.56-3.25-1.68-4.46-1.12-1.21-2.55-1.82-4.28-1.82-2.64,0-4.96,1.13-6.96,3.4l-1.4,7.88c1.15,2.27,3.07,3.4,5.76,3.4Z"/>
    <path class="cls-1" d="m538.32,622.14l-3.24,18.48h-2.76l.36-2.04c-2.08,1.71-4.45,2.56-7.12,2.56-2.37,0-4.3-.78-5.78-2.34-1.48-1.56-2.22-3.54-2.22-5.94,0-3.01,1.16-5.63,3.48-7.86,2.32-2.23,4.97-3.34,7.96-3.34,2.67,0,4.75.85,6.24,2.56l.36-2.08h2.72Zm-12,16.6c2.67,0,4.97-1.13,6.92-3.4l1.4-7.88c-1.12-2.27-3.03-3.4-5.72-3.4-2.24,0-4.23.85-5.96,2.54-1.73,1.69-2.6,3.66-2.6,5.9,0,1.79.55,3.27,1.66,4.46,1.11,1.19,2.54,1.78,4.3,1.78Z"/>
    <path class="cls-1" d="m547.56,622.14l-.56,3.2c2.24-2.45,4.87-3.68,7.88-3.68l-.44,2.6c-3.12.08-5.79,1.49-8,4.24l-2.12,12.12h-2.76l3.28-18.48h2.72Z"/>
    <path class="cls-1" d="m576.68,622.14l-3.24,18.48h-2.76l.36-2.04c-2.08,1.71-4.45,2.56-7.12,2.56-2.37,0-4.3-.78-5.78-2.34-1.48-1.56-2.22-3.54-2.22-5.94,0-3.01,1.16-5.63,3.48-7.86,2.32-2.23,4.97-3.34,7.96-3.34,2.67,0,4.75.85,6.24,2.56l.36-2.08h2.72Zm-12,16.6c2.67,0,4.97-1.13,6.92-3.4l1.4-7.88c-1.12-2.27-3.03-3.4-5.72-3.4-2.24,0-4.23.85-5.96,2.54-1.73,1.69-2.6,3.66-2.6,5.9,0,1.79.55,3.27,1.66,4.46,1.11,1.19,2.54,1.78,4.3,1.78Z"/>
    <path class="cls-1" d="m598.44,624.5l-1.68,9.48c-.27,1.44-.12,2.59.44,3.44s1.45,1.28,2.68,1.28c.85,0,1.97-.16,3.36-.48v2.36c-1.52.43-2.84.64-3.96.64-1.92,0-3.37-.67-4.34-2.02-.97-1.35-1.27-3.09-.9-5.22l1.68-9.48h-4.96l.4-2.36h4.96l1.2-6.84h2.72l-1.2,6.84h6.96l-.36,2.36h-7Z"/>
    <path class="cls-1" d="m614.76,622.14l-3.24,18.48h-2.76l3.28-18.48h2.72Zm1.14-5.68c-.36.35-.81.52-1.34.52s-.99-.17-1.36-.52-.56-.79-.56-1.32.19-.94.56-1.3c.37-.36.83-.54,1.36-.54s.98.18,1.34.54c.36.36.54.79.54,1.3,0,.53-.18.97-.54,1.32Z"/>
    <path class="cls-1" d="m619.16,641.14c-.51,0-.95-.18-1.32-.54-.37-.36-.56-.79-.56-1.3s.19-.94.56-1.3c.37-.36.81-.54,1.32-.54.53,0,.99.18,1.36.54.37.36.56.79.56,1.3s-.19.94-.56,1.3c-.37.36-.83.54-1.36.54Z"/>
  </g>
  <g>
    <path class="cls-4" d="m261.69,697.42l-17.36,27.4h-2.68l-7.72-27.4h3.04l6.52,23.44,14.92-23.44h3.28Z"/>
    <path class="cls-4" d="m279.33,706.14l-3.24,18.48h-2.76l.4-2.16c-2.19,1.84-4.63,2.76-7.32,2.76-2.35,0-4.11-.76-5.28-2.28-1.17-1.52-1.53-3.56-1.08-6.12l1.84-10.68h2.72l-1.84,10.52c-.35,1.92-.1,3.41.74,4.48s2.11,1.6,3.82,1.6c2.56,0,4.88-1.15,6.96-3.44l2.32-13.16h2.72Z"/>
    <path class="cls-4" d="m294.85,705.66c2.67,0,4.68.9,6.04,2.7s1.81,4.11,1.36,6.94c-.05.35-.15.73-.28,1.16l-.16-.08v.08h-15.6c-.08,1.81.4,3.31,1.44,4.5s2.49,1.78,4.36,1.78c2.69,0,4.61-.93,5.76-2.8h3.04c-.8,1.6-2.02,2.87-3.66,3.8-1.64.93-3.5,1.4-5.58,1.4-2.77,0-4.91-.94-6.4-2.82-1.49-1.88-2.01-4.19-1.56-6.94.48-2.75,1.79-5.05,3.94-6.92,2.15-1.87,4.58-2.8,7.3-2.8Zm-.36,2.32c-1.89,0-3.55.6-4.98,1.8-1.43,1.2-2.41,2.72-2.94,4.56h13.12c.21-1.92-.15-3.46-1.08-4.62-.93-1.16-2.31-1.74-4.12-1.74Z"/>
    <path class="cls-4" d="m313.77,696.22l-5.04,28.4h-2.72l5.04-28.4h2.72Z"/>
    <path class="cls-4" d="m336.33,706.14l-11.8,18.48h-2.76l-5.52-18.48h2.88l4.52,15,9.72-15h2.96Z"/>
    <path class="cls-4" d="m348.53,705.66c2.67,0,4.68.9,6.04,2.7s1.81,4.11,1.36,6.94c-.05.35-.15.73-.28,1.16l-.16-.08v.08h-15.6c-.08,1.81.4,3.31,1.44,4.5s2.49,1.78,4.36,1.78c2.69,0,4.61-.93,5.76-2.8h3.04c-.8,1.6-2.02,2.87-3.66,3.8-1.64.93-3.5,1.4-5.58,1.4-2.77,0-4.91-.94-6.4-2.82-1.49-1.88-2.01-4.19-1.56-6.94.48-2.75,1.79-5.05,3.94-6.92,2.15-1.87,4.58-2.8,7.3-2.8Zm-.36,2.32c-1.89,0-3.55.6-4.98,1.8-1.43,1.2-2.41,2.72-2.94,4.56h13.12c.21-1.92-.15-3.46-1.08-4.62-.93-1.16-2.31-1.74-4.12-1.74Z"/>
    <path class="cls-4" d="m383.4,705.66c2.35,0,4.27.79,5.78,2.38,1.51,1.59,2.26,3.57,2.26,5.94,0,3.01-1.15,5.63-3.44,7.84-2.29,2.21-4.96,3.32-8,3.32-2.67,0-4.75-.85-6.24-2.56l-2.12,11.96h-2.76l5.04-28.4h2.76l-.36,2.08c2.08-1.71,4.44-2.56,7.08-2.56Zm-3.32,17.08c2.24,0,4.23-.85,5.96-2.54,1.73-1.69,2.6-3.65,2.6-5.86,0-1.76-.56-3.25-1.68-4.46-1.12-1.21-2.55-1.82-4.28-1.82-2.64,0-4.96,1.13-6.96,3.4l-1.4,7.88c1.15,2.27,3.07,3.4,5.76,3.4Z"/>
    <path class="cls-4" d="m400.8,706.14l-.56,3.2c2.24-2.45,4.87-3.68,7.88-3.68l-.44,2.6c-3.12.08-5.79,1.49-8,4.24l-2.12,12.12h-2.76l3.28-18.48h2.72Z"/>
    <path class="cls-4" d="m420.84,705.66c2.43,0,4.41.79,5.94,2.36,1.53,1.57,2.3,3.55,2.3,5.92,0,3.07-1.17,5.71-3.52,7.94-2.35,2.23-5.07,3.34-8.16,3.34-2.43,0-4.41-.79-5.96-2.38-1.55-1.59-2.32-3.57-2.32-5.94,0-3.09,1.17-5.74,3.52-7.94,2.35-2.2,5.08-3.3,8.2-3.3Zm-3,17.08c2.24,0,4.21-.85,5.92-2.54,1.71-1.69,2.56-3.66,2.56-5.9,0-1.73-.55-3.19-1.64-4.36-1.09-1.17-2.51-1.76-4.24-1.76-2.27,0-4.25.83-5.96,2.5-1.71,1.67-2.56,3.62-2.56,5.86,0,1.79.55,3.27,1.64,4.44,1.09,1.17,2.52,1.76,4.28,1.76Z"/>
    <path class="cls-4" d="m445.4,705.54c2.35,0,4.11.77,5.3,2.3,1.19,1.53,1.55,3.58,1.1,6.14l-1.88,10.64h-2.72l1.84-10.52c.35-1.89.1-3.37-.74-4.44-.84-1.07-2.1-1.6-3.78-1.6-2.53,0-4.85,1.13-6.96,3.4l-2.32,13.16h-2.76l3.28-18.48h2.72l-.4,2.2c2.16-1.87,4.6-2.8,7.32-2.8Z"/>
    <path class="cls-4" d="m463.36,708.5l-1.68,9.48c-.27,1.44-.12,2.59.44,3.44s1.45,1.28,2.68,1.28c.85,0,1.97-.16,3.36-.48v2.36c-1.52.43-2.84.64-3.96.64-1.92,0-3.37-.67-4.34-2.02-.97-1.35-1.27-3.09-.9-5.22l1.68-9.48h-4.96l.4-2.36h4.96l1.2-6.84h2.72l-1.2,6.84h6.96l-.36,2.36h-7Z"/>
    <path class="cls-4" d="m483.76,705.66c2.43,0,4.41.79,5.94,2.36,1.53,1.57,2.3,3.55,2.3,5.92,0,3.07-1.17,5.71-3.52,7.94-2.35,2.23-5.07,3.34-8.16,3.34-2.43,0-4.41-.79-5.96-2.38-1.55-1.59-2.32-3.57-2.32-5.94,0-3.09,1.17-5.74,3.52-7.94,2.35-2.2,5.08-3.3,8.2-3.3Zm-3,17.08c2.24,0,4.21-.85,5.92-2.54,1.71-1.69,2.56-3.66,2.56-5.9,0-1.73-.55-3.19-1.64-4.36-1.09-1.17-2.51-1.76-4.24-1.76-2.27,0-4.25.83-5.96,2.5-1.71,1.67-2.56,3.62-2.56,5.86,0,1.79.55,3.27,1.64,4.44,1.09,1.17,2.52,1.76,4.28,1.76Z"/>
    <path class="cls-4" d="m495.84,725.14c-.51,0-.95-.18-1.32-.54-.37-.36-.56-.79-.56-1.3s.19-.94.56-1.3c.37-.36.81-.54,1.32-.54.53,0,.99.18,1.36.54.37.36.56.79.56,1.3s-.19.94-.56,1.3c-.37.36-.83.54-1.36.54Z"/>
  </g>
  <path class="cls-2" d="m1761.27,504.54c99.73,177.3-112.05,177.3-320.13,320.13-145.77,100.05-320.13-143.33-320.13-320.13s153.47-261.11,320.13-320.13c295.51-104.66,233.45,166.03,320.13,320.13Z"/>
  <rect class="cls-3" y="999" width="1988" height="81"/>
  <rect class="cls-3" width="1988" height="81"/>
  <line class="cls-5" x1="230" y1="737.5" x2="514.5" y2="737.5"/>
</svg>